<svg id="Layer_1" data-name="Layer 1" xmlns="http://www.w3.org/2000/svg" xmlns:xlink="http://www.w3.org/1999/xlink" viewBox="0 0 383.18109 398.49613"><defs><style>.cls-1,.cls-12,.cls-8{fill:none;}.cls-2{fill:#e4e9f2;}.cls-3{fill:url(#linear-gradient);}.cls-4{clip-path:url(#clip-path);}.cls-5{fill:#4bd0e2;}.cls-6{fill:#83c48d;}.cls-7{fill:url(#linear-gradient-2);}.cls-12,.cls-8{stroke:#383776;stroke-linecap:round;stroke-width:4px;}.cls-8{stroke-miterlimit:10;}.cls-9{fill:url(#linear-gradient-3);}.cls-10{fill:url(#linear-gradient-4);}.cls-11{fill:#383776;}.cls-12{stroke-linejoin:round;}.cls-13{fill:#f2604c;}.cls-14{fill:url(#linear-gradient-5);}.cls-15{fill:#fff;}</style><linearGradient id="linear-gradient" x1="3.47263" y1="199.34553" x2="325.50536" y2="199.34553" gradientUnits="userSpaceOnUse"><stop offset="0" stop-color="#383776" stop-opacity="0"/><stop offset="0.27036" stop-color="#383776" stop-opacity="0.03152"/><stop offset="0.5237" stop-color="#383776" stop-opacity="0.12746"/><stop offset="0.76938" stop-color="#383776" stop-opacity="0.28733"/><stop offset="1" stop-color="#383776" stop-opacity="0.5"/></linearGradient><clipPath id="clip-path"><path class="cls-1" d="M166.00293,390.686c-27.04541-.001-54.59277-11.79883-71.89111-30.78809-13.28418-14.583-19.51074-34.07617-25.53223-52.92676-3.24268-10.15137-6.5957-20.64746-11.02686-30.38477C52.45019,265.37158,46.104,254.67627,39.96631,244.3335c-6.70117-11.29395-13.63086-22.97168-18.78369-35.127-16.5-38.92285-16.16309-87.47461.94873-136.71094,13.19971-37.98047,49.73193-63.498,90.90674-63.498,25.88379,0,53.45215,10.93359,70.2334,27.85449,5.72754,5.77539,9.55371,13.23438,13.60449,21.13086,5.82666,11.35742,11.85156,23.10254,24.07471,29.96289,6.43506,3.61035,13.58008,5.0127,20.34717,6.13867,29.209,4.86328,78.65137,21.05859,81.605,74.88379A77.14933,77.14933,0,0,1,312.376,212.648c-5.23389,8.68359-12.37451,16.47949-19.27979,24.01855-7.99365,8.72754-16.25977,17.751-22.05713,28.52246-6.64551,12.34668-9.56494,26.07031-12.38818,39.3418-2.12988,10.01074-4.332,20.3623-8.11621,29.79395-11.9751,29.84668-42.06055,52.29-74.86426,55.8457a90.17454,90.17454,0,0,1-9.66309.51563h-0.00439Z"/></clipPath><linearGradient id="linear-gradient-2" x1="30.53372" y1="326.33353" x2="227.12369" y2="326.33353" xlink:href="#linear-gradient"/><linearGradient id="linear-gradient-3" x1="66.90859" y1="242.37377" x2="158.21088" y2="242.37377" xlink:href="#linear-gradient"/><linearGradient id="linear-gradient-4" x1="63.87105" y1="148.48167" x2="196.72553" y2="148.48167" xlink:href="#linear-gradient"/><linearGradient id="linear-gradient-5" x1="195.18668" y1="164.07066" x2="380.41655" y2="164.07066" xlink:href="#linear-gradient"/></defs><title>ReactUniversity_artwork</title><path class="cls-2" d="M325.3792,168.25283c-2.6805-48.84934-41.88988-71.44271-84.94209-78.61013C233.86761,88.549,227.199,87.22,221.39128,83.96047,202.17,73.17289,199.31241,48.38077,184.594,33.53944,166.30392,15.0967,137.16307,4.50119,111.52032,4.501,68.71921,4.50071,30.674,30.86716,16.83547,70.68579c-15.51711,44.64863-19.653,95.23715-.8529,139.58549,9.98185,23.54664,25.81957,44.19664,36.41207,67.475C65.0071,305.46385,68.505,338.89642,89.63706,362.09464c20.78728,22.81978,54.47537,34.85979,84.94689,31.5561,33.946-3.68038,65.4313-26.6439,78.14572-58.33328,8.92043-22.23325,8.96038-47.63461,20.31406-68.72929,10.55528-19.61127,29.74349-33.29656,41.24062-52.37094A80.831,80.831,0,0,0,325.3792,168.25283Z"/><path class="cls-3" d="M325.3792,168.25283c-2.6805-48.84934-41.88988-71.44271-84.94209-78.61013C233.86761,88.549,227.199,87.22,221.39128,83.96047,202.17,73.17289,199.31241,48.38077,184.594,33.53944,166.30392,15.0967,137.16307,4.50119,111.52032,4.501,68.71921,4.50071,30.674,30.86716,16.83547,70.68579c-15.51711,44.64863-19.653,95.23715-.8529,139.58549,9.98185,23.54664,25.81957,44.19664,36.41207,67.475C65.0071,305.46385,68.505,338.89642,89.63706,362.09464c20.78728,22.81978,54.47537,34.85979,84.94689,31.5561,33.946-3.68038,65.4313-26.6439,78.14572-58.33328,8.92043-22.23325,8.96038-47.63461,20.31406-68.72929,10.55528-19.61127,29.74349-33.29656,41.24062-52.37094A80.831,80.831,0,0,0,325.3792,168.25283Z"/><g class="cls-4"><polyline class="cls-5" points="161.47 192.659 168.137 171.659 183.137 160.992 191.804 176.992 174.47 193.659"/><path class="cls-6" d="M227.12369,398.56551L31.1005,395.764,30.53372,257.58964a59.54835,59.54835,0,0,0,31.32794-.55593c0.59951-.17431,1.199-0.35953,1.80945-0.56671a20.71712,20.71712,0,0,0,3.23747-1.4062c5.60279,12.99341,37.03978,50.64368,91.30229-.95925a55.13832,55.13832,0,0,0,4.40383,4.30563,67.76312,67.76312,0,0,0,6.09333,4.79637c32.01468,22.46572,48.3,29.21318,48.3,29.21318C224.87819,308.70209,227.12369,398.56551,227.12369,398.56551Z"/><path class="cls-7" d="M227.12369,398.56551L31.1005,395.764,30.53372,257.58964a59.54835,59.54835,0,0,0,31.32794-.55593c0.59951-.17431,1.199-0.35953,1.80945-0.56671a20.71712,20.71712,0,0,0,3.23747-1.4062c5.60279,12.99341,37.03978,50.64368,91.30229-.95925a55.13832,55.13832,0,0,0,4.40383,4.30563,67.76312,67.76312,0,0,0,6.09333,4.79637c32.01468,22.46572,48.3,29.21318,48.3,29.21318C224.87819,308.70209,227.12369,398.56551,227.12369,398.56551Z"/><path class="cls-5" d="M158.21088,254.10154c-54.26251,51.60292-85.6995,13.95266-91.30229.95925,12.3611-6.61653,14.44312-23.6867,13.06965-30.68485l70.94028-20.144C146.5256,209.60588,139.01516,233.25985,158.21088,254.10154Z"/><line class="cls-8" x1="171.44406" y1="338.35132" x2="171.44406" y2="393.20818"/><path class="cls-8" d="M61.46156,256.88506c1.5755,12.51073,13.93171,26.82157,24.90728,32.01722,27.41229,12.97652,58.93-11.01,77.29357-29.34286"/><path class="cls-5" d="M193.91867,150.64121c-3.99219,12.93443-1.78165,46.68432-30.32607,42.48839-21.45591,20.77218-49.11927,38.79341-67.58011,42.15984a11.79234,11.79234,0,0,1-10.24774-3.18661c-24.82932-24.1317-25.996-87.31045-16.06321-119.4921C80.20336,78.58548,89.51267,45.398,151.32574,70.0178,184.40735,83.194,204.42049,116.616,193.91867,150.64121Z"/><path class="cls-5" d="M158.21088,254.10154c-54.26251,51.60292-85.6995,13.95266-91.30229.95925,12.3611-6.61653,14.44312-23.6867,13.06965-30.68485l70.94028-20.144C146.5256,209.60588,139.01516,233.25985,158.21088,254.10154Z"/><path class="cls-9" d="M158.21088,254.10154c-54.26251,51.60292-85.6995,13.95266-91.30229.95925,12.3611-6.61653,14.44312-23.6867,13.06965-30.68485l0.1812,0.25246a28.45975,28.45975,0,0,0,41.83427,4.8474l28.92481-25.24391C146.5256,209.60588,139.01516,233.25985,158.21088,254.10154Z"/><path class="cls-10" d="M193.91867,150.64121c-3.96034,12.83125-7.78165,46.68432-29.97708,42.14974-21.50419,20.91467-49.368,39.11378-67.9291,42.49849a11.79234,11.79234,0,0,1-10.24774-3.18661c-24.82932-24.1317-25.996-87.31045-16.06321-119.4921C80.20336,78.58548,89.51267,45.398,151.32574,70.0178,184.40735,83.194,204.42049,116.616,193.91867,150.64121Z"/><path class="cls-11" d="M114.97508,121.04074c6.2748,0.59269,12.11175,1.941,17.6207,5.09168,3.35726,1.9201,6.38326-3.262,3.02831-5.18082-6.43923-3.68276-13.32054-5.21863-20.649-5.91085-3.84215-.36292-3.81728,5.63943,0,6h0Z"/><path class="cls-11" d="M69.0743,117.511a26.388,26.388,0,0,1,15.58745,3.12544c3.414,1.79729,6.45008-3.37947,3.02831-5.18082A32.05571,32.05571,0,0,0,69.0743,111.511c-3.79711.41524-3.83945,6.41987,0,6h0Z"/><path class="cls-8" d="M102.71193,111.76876c-13.57371,20.501-32.01443,57.48947-32.01443,64.27041s4.58618,13.89543,11.68793,20.729c1.84627,1.77656,4.2115,3.55725,5.02346,5.777"/><path class="cls-11" d="M76.16085,143.91659h0c-1.46369.095-2.87129-1.51355-2.82665-3.46231a26.46712,26.46712,0,0,1,1.46319-8.20391c0.61676-1.76274,2.31434-2.42924,3.57634-1.70256h0a3.09772,3.09772,0,0,1,1.34668,3.65779,21.21633,21.21633,0,0,0-1.09189,6.67693A2.8775,2.8775,0,0,1,76.16085,143.91659Z"/><path class="cls-11" d="M114.10855,152.52989h0c-1.61412.10476-3.16639-1.66911-3.11716-3.81815a29.18729,29.18729,0,0,1,1.61357-9.04707c0.68015-1.94391,2.5522-2.67891,3.9439-1.87754h0a3.41609,3.41609,0,0,1,1.48508,4.03372,23.39685,23.39685,0,0,0-1.20411,7.36315A3.17323,3.17323,0,0,1,114.10855,152.52989Z"/><path class="cls-12" d="M107.51873,211.324c-12.99237,3.87039-17.49666,4.59705-27.17583,1.90831l5.77934,7.1991a8.53227,8.53227,0,0,0,11.25382.30145Z"/><path class="cls-8" d="M80.97016,227.52987a70.19048,70.19048,0,0,0,5.8969,6.93049A12.14283,12.14283,0,0,0,97.1148,237.647c16.71591-2.48064,49.25818-26.83115,49.25818-26.83115"/><path class="cls-8" d="M65.98909,254.03165c0,7.1145,32.81817,60.59385,94.2275.30786"/></g><path class="cls-2" d="M330.8993,168.25283c-1.02589-16.32952-5.92644-31.9976-15.97526-45.05624-9.188-11.93995-21.73316-20.8754-35.41473-27.00457a141.55276,141.55276,0,0,0-22.55013-7.87669c-8.48058-2.18636-17.34854-2.92485-25.71294-5.50258-17.38172-5.35667-23.47138-22.7166-31.51588-37.19271C182.13687,13.96045,141.7612-1.79844,106.73521.16317,72.82278,2.06242,40.9772,20.27505,23.06009,49.28926,12.89029,65.7578,7.7342,85.49312,4.11075,104.33367c-4.01133,20.85738-5.37231,42.32565-2.80066,63.44912a171.16647,171.16647,0,0,0,19.58153,60.78712c10.05783,18.709,22.53493,36.24631,30.59275,55.98765,7.19618,17.63034,11.40021,36.32007,19.04249,53.78936C78.006,355.4433,89.38062,369.68516,104.883,380.1614c30.2152,20.41889,69.99915,24.39661,103.10093,8.82987a102.36257,102.36257,0,0,0,39.90076-33.5205c11.69366-16.59923,15.531-35.97322,19.81469-55.42847,2.22933-10.125,4.73088-20.37743,9.458-29.6689,4.42848-8.70439,10.635-16.21876,17.13139-23.44309,13.37284-14.8713,26.98305-29.09288,32.98668-48.69087a88.97044,88.97044,0,0,0,3.6238-29.9866c-0.25742-5.76845-9.25884-5.80029-9,0,0.91363,20.47329-5.60459,39.22992-18.57173,55.02834-11.492,14.00115-25.61583,26.1926-33.94137,42.54975-8.80542,17.29995-10.69476,36.7878-15.70533,55.29238-4.63278,17.10936-13.20831,32.15951-26.33657,44.17536-26.11219,23.89958-62.88383,30.1677-95.9296,18.28966-16.63294-5.97858-32.33469-16.54466-42.70925-31.01546-10.36567-14.45839-15.49631-31.74-20.86217-48.47836a257.19423,257.19423,0,0,0-22.62284-51.48341c-10.24459-17.63-21.43415-34.86969-27.96482-54.3274-13.02226-38.799-9.52513-81.22842,2.725-119.745C25.133,62.33885,32.99172,47.81278,45.29692,35.90732A95.87987,95.87987,0,0,1,86.19678,12.58584c32.81027-9.12424,73.46826-.32621,97.14,25.07591,10.27173,11.02257,14.26514,26.36206,23.40019,38.22773a43.56185,43.56185,0,0,0,18.2148,14.20319c8.01062,3.24234,16.73983,3.91181,25.11091,5.812,27.84311,6.3204,56.29515,21.06813,67.02586,49.21762a78.5135,78.5135,0,0,1,4.81074,23.1305C322.26071,174.00552,331.26328,174.04636,330.8993,168.25283Z"/><path class="cls-13" d="M225.42829,150.7861V95.2091a8.63257,8.63257,0,0,1,8.63257-8.63257H371.784a8.63257,8.63257,0,0,1,8.63257,8.63257V213.85034a7.47846,7.47846,0,0,1-6.97853,7.47039c-18.48749,1.25647-70.93872,3.58856-123.74262-5.43526a13.5113,13.5113,0,0,0-8.41094,1.22886c-20.34949,10.33043-46.09778,24.45046-46.09778,24.45046S225.42829,201.87267,225.42829,150.7861Z"/><path class="cls-14" d="M225.42829,150.7861V95.2091a8.63257,8.63257,0,0,1,8.63257-8.63257H371.784a8.63257,8.63257,0,0,1,8.63257,8.63257V213.85034a7.47846,7.47846,0,0,1-6.97853,7.47039c-18.48749,1.25647-70.93872,3.58856-123.74262-5.43526a13.5113,13.5113,0,0,0-8.41094,1.22886c-20.34949,10.33043-46.09778,24.45046-46.09778,24.45046S225.42829,201.87267,225.42829,150.7861Z"/><line class="cls-8" x1="225.42829" y1="113.2742" x2="381.18109" y2="113.2742"/><circle class="cls-11" cx="239.7657" cy="100.82236" r="4.17812"/><circle class="cls-11" cx="255.43364" cy="100.82236" r="4.17812"/><circle class="cls-11" cx="271.10158" cy="100.82236" r="4.17812"/><path class="cls-15" d="M305.936,132.84108l6.70582,20.6384a1.67206,1.67206,0,0,0,1.59022,1.15537h21.70049a1.67206,1.67206,0,0,1,.98281,3.02479L319.3593,170.41486a1.67206,1.67206,0,0,0-.60741,1.86942l6.70582,20.6384a1.67206,1.67206,0,0,1-2.573,1.86942L305.3286,182.03687a1.67206,1.67206,0,0,0-1.96563,0L285.80691,194.7921a1.67206,1.67206,0,0,1-2.573-1.86942l6.70582-20.6384a1.67206,1.67206,0,0,0-.60741-1.86942l-17.55607-12.75523a1.67206,1.67206,0,0,1,.98281-3.02479h21.70049a1.67206,1.67206,0,0,0,1.59022-1.15537l6.70582-20.6384A1.67206,1.67206,0,0,1,305.936,132.84108Z"/><path class="cls-11" d="M224.05957,121.822a12.92157,12.92157,0,0,0-12.08107-7.91464c5.08823-5.21916,3.95093-14.61159-4.68616-17.823a9.33671,9.33671,0,0,0-9.697,2.25915c-0.12522-.05128-0.26475-0.07275-0.39176-0.12164a24.638,24.638,0,0,0,6.39706-16.91382c-0.09232-6.05347-3.08385-11.70694-7.41584-15.93623-9.83022-9.59716-17.45384-9.43673-24.31111-7.45332A24.73746,24.73746,0,0,0,125.01827,51.122a16.19759,16.19759,0,0,0-28.43478-1.697,18.38688,18.38688,0,0,0-4.56214-.72867c-34.6-1.22081-29.551,39.62922-19.21767,53.29588,4.78554-13.8781,8.3594-21.269,11.01618-22.64767a21.05793,21.05793,0,0,0,8.20229,1.91767,16.18083,16.18083,0,0,0,11.074-4.4066c-0.01312.27906-.08318,0.54263-0.08318,0.82467a17.58583,17.58583,0,0,0,17.58584,17.58584,17.31947,17.31947,0,0,0,1.7695-.17829,24.14162,24.14162,0,0,0,25.26608,8.62655,15.79643,15.79643,0,0,0,8.59465,13.58532,15.78878,15.78878,0,0,0,13.54209,14.72185,15.6257,15.6257,0,0,0-2.22745,21.99065,11.27946,11.27946,0,0,0-4.06939,13.84709c-0.17292.059-.31693,0.10853-0.31693,0.10853-7.02193,3.35832-4.88482,16.79158.6106,17.09688,1.35737-2.45342,2.46269-6.19406,3.57532-9.49713a11.89935,11.89935,0,0,1,9.7112-8.22966c3.0091-.33082,3.75153.71442,4.421,6.73594,1.325,11.91835-22.6758,19.585-22.6758,19.585,14,4.66667,46.56683-14.44737,52.88156-40.46478a12.9823,12.9823,0,0,0,.10405-13.42313A12.938,12.938,0,0,0,224.05957,121.822Z"/></svg>