<svg id="Layer_1" data-name="Layer 1" xmlns="http://www.w3.org/2000/svg" xmlns:xlink="http://www.w3.org/1999/xlink" viewBox="0 0 358.17601 319.83387"><defs><style>.cls-1,.cls-6{fill:none;}.cls-2{fill:#e4e9f2;}.cls-3{clip-path:url(#clip-path);}.cls-4{fill:#f2604c;}.cls-5{fill:url(#linear-gradient);}.cls-6{stroke:#383776;stroke-linecap:round;stroke-miterlimit:10;stroke-width:5px;}.cls-7{fill:#4bd0e2;}.cls-8{fill:url(#linear-gradient-2);}.cls-9{fill:#83c48d;}.cls-10{fill:url(#linear-gradient-3);}.cls-11{fill:url(#linear-gradient-4);}.cls-12{fill:#fff;}</style><clipPath id="clip-path"><path class="cls-1" d="M178.53808,6.55931C228.55874,21.89665,223.4813,86.169,246.547,119.87059c24.61808,35.96981,82.45939,9.98972,102.084,46.23007,19.7431,36.45915-22.7541,116.35944-52.94591,136.2098-60.768,39.95342-118.2618-19.253-170.94011-43.31312C63.14373,230.86175,26.63358,224.95391,9.53449,151.66668,2.01309,119.42974-4.42435,60.88623,47.71966,76.66184,131.41876,101.98416,123.11117-10.4357,178.53808,6.55931Z"/></clipPath><linearGradient id="linear-gradient" x1="106.72317" y1="153.67725" x2="235.15628" y2="153.67725" gradientUnits="userSpaceOnUse"><stop offset="0" stop-color="#383776" stop-opacity="0"/><stop offset="0.50002" stop-color="#383776" stop-opacity="0.01588"/><stop offset="0.68011" stop-color="#383776" stop-opacity="0.07339"/><stop offset="0.80845" stop-color="#383776" stop-opacity="0.17352"/><stop offset="0.91155" stop-color="#383776" stop-opacity="0.31534"/><stop offset="1" stop-color="#383776" stop-opacity="0.5"/></linearGradient><linearGradient id="linear-gradient-2" x1="154.27885" y1="250.55704" x2="338.10393" y2="250.55704" xlink:href="#linear-gradient"/><linearGradient id="linear-gradient-3" x1="154.93582" y1="45.5387" x2="201.48652" y2="45.5387" gradientUnits="userSpaceOnUse"><stop offset="0" stop-color="#383776" stop-opacity="0"/><stop offset="0.33761" stop-color="#383776" stop-opacity="0.02315"/><stop offset="0.56304" stop-color="#383776" stop-opacity="0.09841"/><stop offset="0.75571" stop-color="#383776" stop-opacity="0.22632"/><stop offset="0.92897" stop-color="#383776" stop-opacity="0.4059"/><stop offset="1" stop-color="#383776" stop-opacity="0.5"/></linearGradient><linearGradient id="linear-gradient-4" x1="6.06242" y1="160.29987" x2="355.24288" y2="160.29987" xlink:href="#linear-gradient"/></defs><title>ReactUniversity_artwork</title><path class="cls-2" d="M177.03929,5.02758c50.02066,15.33734,44.94322,79.60965,68.00894,113.31128,24.61808,35.96981,82.45939,9.98972,102.084,46.23006,19.7431,36.45915-22.7541,116.35944-52.94591,136.2098-60.768,39.95342-118.2618-19.253-170.94011-43.31312C61.64493,229.33,25.13479,223.42219,8.03569,150.135,0.51429,117.898-5.92315,59.3545,46.22086,75.13012,129.92,100.45244,121.61238-11.96742,177.03929,5.02758Z"/><g class="cls-3"><path class="cls-4" d="M170.94,217.894a64.2168,64.2168,0,1,1,64.21631-64.2168A64.28963,64.28963,0,0,1,170.94,217.894Zm0-108.43359a44.2168,44.2168,0,1,0,44.21631,44.2168A44.267,44.267,0,0,0,170.94,109.46046Z"/><path class="cls-5" d="M170.94,217.894a64.2168,64.2168,0,1,1,64.21631-64.2168A64.28963,64.28963,0,0,1,170.94,217.894Zm0-108.43359a44.2168,44.2168,0,1,0,44.21631,44.2168A44.267,44.267,0,0,0,170.94,109.46046Z"/><line class="cls-6" x1="101.28051" y1="95.96448" x2="562.28051" y2="95.96448"/><line class="cls-6" x1="188.28051" y1="129.96448" x2="562.28051" y2="129.96448"/><line class="cls-6" x1="129.28051" y1="163.96448" x2="562.28051" y2="163.96448"/><line class="cls-6" x1="99.28051" y1="194.96448" x2="562.28051" y2="194.96448"/><line class="cls-6" x1="188.28051" y1="228.96448" x2="562.28051" y2="228.96448"/><line class="cls-6" x1="185.28051" y1="259.96448" x2="562.28051" y2="259.96448"/><circle class="cls-7" cx="246.20259" cy="250.55864" r="91.91254"/><circle class="cls-8" cx="246.19139" cy="250.55704" r="91.91254"/><path class="cls-9" d="M183.70558,27.10913l1.534,4.72129a5.77716,5.77716,0,0,0,5.49441,3.99192h4.96426a5.77716,5.77716,0,0,1,3.39573,10.451l-4.01617,2.91792a5.77716,5.77716,0,0,0-2.09868,6.45906l1.534,4.72129a5.77716,5.77716,0,0,1-8.89014,6.45906l-4.01617-2.91792a5.77716,5.77716,0,0,0-6.79146,0l-4.01617,2.91792a5.77716,5.77716,0,0,1-8.89014-6.45906l1.534-4.72129a5.77716,5.77716,0,0,0-2.09868-6.45906l-4.01617-2.91792a5.77716,5.77716,0,0,1,3.39573-10.451h4.96426a5.77716,5.77716,0,0,0,5.49441-3.99192l1.534-4.72129A5.77716,5.77716,0,0,1,183.70558,27.10913Z"/><path class="cls-10" d="M183.70558,27.10913l1.534,4.72129a5.77716,5.77716,0,0,0,5.49441,3.99192h4.96426a5.77716,5.77716,0,0,1,3.39573,10.451l-4.01617,2.91792a5.77716,5.77716,0,0,0-2.09868,6.45906l1.534,4.72129a5.77716,5.77716,0,0,1-8.89014,6.45906l-4.01617-2.91792a5.77716,5.77716,0,0,0-6.79146,0l-4.01617,2.91792a5.77716,5.77716,0,0,1-8.89014-6.45906l1.534-4.72129a5.77716,5.77716,0,0,0-2.09868-6.45906l-4.01617-2.91792a5.77716,5.77716,0,0,1,3.39573-10.451h4.96426a5.77716,5.77716,0,0,0,5.49441-3.99192l1.534-4.72129A5.77716,5.77716,0,0,1,183.70558,27.10913Z"/></g><path class="cls-11" d="M180.10273,6.55931c50.02066,15.33734,44.94322,79.60965,68.00894,113.31128,24.61808,35.96981,82.45939,9.98972,102.084,46.23007,19.7431,36.45915-22.7541,116.35944-52.94591,136.2098-60.768,39.95342-118.2618-19.253-170.94011-43.31312C64.70838,230.86175,28.19823,224.95391,11.09914,151.66668,3.57774,119.42974-2.8597,60.88623,49.2843,76.66184,132.98341,101.98416,124.67582-10.4357,180.10273,6.55931Z"/><path class="cls-2" d="M177.37473,11.66442c36.47964,11.57751,42.17587,52.98841,52.86416,84.39631,5.41791,15.92071,12.61952,32.25584,27.67962,41.20477,15.46592,9.19008,34.03924,9.48831,51.32274,12.22545,15.78456,2.49976,32.0737,7.881,37.64752,24.5327,5.41524,16.178,1.03925,34.72837-4.2185,50.34934a193.21327,193.21327,0,0,1-27.0515,51.902c-10.94873,14.99624-24.229,27.04288-42.32337,32.63907-44.409,13.73471-87.01611-19.82956-123.10791-40.8064-17.70813-10.2921-36.4571-18.0987-55.18015-26.3027-14.87849-6.51941-30.0888-13.28407-43.03874-23.25393-27.14133-20.89551-38.20351-56.34172-41.989-89.19357-1.48728-12.90721-2.68548-28.82824,4.17508-40.5247,8.44686-14.40092,25.21676-8.58711,38.19886-5.49413,14.17811,3.37794,28.98338,3.31094,42.34115-2.9834,11.07173-5.21713,19.61664-14.3061,26.86161-23.94745,7.04614-9.37675,12.83856-19.61509,19.80878-29.04268,5.3963-7.29879,12.18394-14.80634,21.42955-16.80285,4.89522-1.05708,9.83951-.30675,14.58008,1.10217,5.56352,1.6535,7.94038-7.02968,2.39256-8.67851-11.27507-3.351-22.71265-2.1007-32.24447,5.02279-9.24336,6.90793-15.66538,16.94979-21.8986,26.4796-6.72487,10.28148-13.3358,20.8491-22.44351,29.23453a47.86762,47.86762,0,0,1-34.94187,12.8899C51.51608,75.96582,34.65048,65.38329,18.2,73.18068,5.14494,79.36865,1.11542,94.48959.22914,107.75028c-1.0411,15.57719,1.60128,31.51986,5.17854,46.63709,4.60343,19.45373,11.65038,38.71827,24.12168,54.5695,22.20023,28.21687,58.94135,39.29641,90.42512,53.53226,41.43454,18.73524,78.35092,54.11222,125.30185,58.25476a81.48157,81.48157,0,0,0,59.77772-19.1854c13.941-12.08209,24.64245-28.4623,33.224-44.62341,9.45411-17.80438,16.98686-37.20854,19.349-57.33382,1.94048-16.53246-.688-34.87065-14.06346-46.246-28.12343-23.9179-75.88246-3.91192-96.26229-40.131-17.29544-30.7375-16.13595-71.47275-43.4997-96.60971A63.48816,63.48816,0,0,0,179.76729,2.98591C174.23385,1.22977,171.86549,9.916,177.37473,11.66442Z"/><circle class="cls-12" cx="42.46058" cy="96.23222" r="4.49978"/><circle class="cls-12" cx="58.74759" cy="197.67748" r="3.12718"/><circle class="cls-12" cx="88.24759" cy="171.67725" r="9.02095" transform="translate(-22.07028 13.27686) rotate(-7.65065)"/><g id="GsxfTR.tif"><path class="cls-12" d="M86.0989,96.18249L67.03555,127.85H88.59589l0.202,0.51766L30.407,189.6482l-0.34986-.31562,25.94243-48.05744H37.0417c0.62636-1.147.97852-1.86727,1.39223-2.53826Q51.10731,118.1821,63.82781,97.66534A3.39407,3.39407,0,0,1,66.04273,96.029c6.30831-.12766,12.61954-0.06963,18.92988-0.05821A8.097,8.097,0,0,1,86.0989,96.18249Z"/></g></svg>