<?xml version="1.0" encoding="utf-8"?>
<!-- Generator: Adobe Illustrator 20.1.0, SVG Export Plug-In . SVG Version: 6.00 Build 0)  -->
<svg version="1.1" id="Layer_1" xmlns="http://www.w3.org/2000/svg" xmlns:xlink="http://www.w3.org/1999/xlink" x="0px" y="0px"
	 viewBox="0 0 1758.1 1016" style="enable-background:new 0 0 1758.1 1016;" xml:space="preserve">
<style type="text/css">
	.st0{fill:#FFFFFF;}
	.st1{fill:#A9E0F6;}
	.st2{fill:#CBEBFA;}
	.st3{fill:#E5E9F2;}
	.st4{fill:#BDC8E0;}
	.st5{fill:#373775;}
	.st6{fill:#FFFFFF;stroke:#8DA0C4;stroke-width:3.5269;stroke-miterlimit:10;}
	.st7{fill:#8DA0C4;}
	.st8{fill:none;}
	.st9{fill:none;stroke:#8DA0C4;stroke-width:3.5269;stroke-miterlimit:10;}
	.st10{fill:none;stroke:#373775;stroke-width:3.5269;stroke-miterlimit:10;}
	.st11{fill:none;stroke:#373775;stroke-width:2;stroke-miterlimit:10;}
	.st12{fill:none;stroke:#6ACEF1;stroke-width:3.3539;stroke-miterlimit:10;}
	.st13{fill:#6ACEF1;}
	.st14{fill:none;stroke:#8DA0C4;stroke-width:2;stroke-linejoin:bevel;}
	.st15{fill:none;stroke:#BDC8E0;stroke-width:2.2408;}
	.st16{fill:none;stroke:#BDC8E0;stroke-width:1.1994;}
	.st17{fill:none;stroke:#BDC8E0;stroke-width:2.8366;}
	.st18{fill:none;stroke:#BDC8E0;stroke-width:2.0385;}
	.st19{fill:none;stroke:#BDC8E0;stroke-width:1.1435;}
	.st20{fill:none;stroke:#BDC8E0;stroke-width:1.1695;}
	.st21{fill:none;stroke:#BDC8E0;stroke-width:1.6321;}
	.st22{fill:none;stroke:#BDC8E0;stroke-width:0.5058;}
	.st23{fill:none;stroke:#BDC8E0;stroke-width:0.9175;}
</style>
<title>React_2016_Artwork</title>
<g>
	<g id="Layer_2">
		<path class="st0" d="M934.4,254.3c0.6-2.5,3.1-13.2,3.1-15.9c0-3.1-0.4-6.2-1.3-9.2l45.9,0.1c-3.9,8-4.3,17.2-1.1,25.5l0,0
			c-14.4,7.4-31.5,7.3-45.8-0.1L934.4,254.3z"/>
		<path class="st1" d="M893.2,207c-19.5-35.5-6.6-80,28.9-99.5c9.5-5.2,20-8.3,30.8-8.9c-35.2,19.9-47.7,64.5-27.9,99.8
			c13.8,24.5,40.3,38.9,68.4,37.2c-0.2,0.1-0.4,0.2-0.6,0.4C957.3,255.3,912.7,242.4,893.2,207z"/>
		<path class="st2" d="M924.6,197.7c-19.4-35.2-6.8-79.4,28.2-99.1c40.4-2.5,75.1,28.2,77.6,68.6c1.7,28-12.7,54.6-37.2,68.3
			C965.1,237.2,938.3,222.5,924.6,197.7z"/>
		<path class="st0" d="M963.9,505.7c0,0,0.8,119.1,1,173.5c0,0.3,0,0.6,0.1,1l1,5.9c0.3,1.6-0.1,3.2-1.1,4.5l0,0
			c-1.1,1.4-1.4,3.3-1,5l0.9,3.4l0.2,2.3c2.6,12,27.9,13.2,40.4,10.5c2.4-0.5,4-2.9,3.5-5.4c-0.1-0.4-0.2-0.8-0.4-1.1l-0.6-1.3
			c-1.1-2.1-0.7-4.7,0.9-6.4l0,0c2-2.2,2-5.6,0-7.7l0,0c-1.9-2.1-2.1-5.3-0.3-7.4l0,0c1.2-1.5,1.8-3.3,1.8-5.2l-3.6-213.4
			c-22.8,3.8-78.1,5.1-101.9,0.7l6.9,216.8c0,0.7-0.1,1.4-0.4,2l-1.8,4.1c-0.6,1.3-0.5,2.8,0.2,4.1l1.1,2.1c0.8,1.6,0.7,3.5-0.3,5
			l0,0c-1.3,1.8-1.2,4.2,0.3,5.9l1.7,2c0.7,2.6,5,5.1,10.8,6.8l1.1,0.3c12.3,3.7,29.9,3.9,33.3-4.1c-1-6,0.9-4.7,0.6-8.2
			c-0.2-1.9-1.8-3.7-1.7-5.2c0.3-2.8,2.2-3.3,2.4-6.1c0.1-1.8-2.4-5.1-2.4-7.6c-1.7-50.2-2.9-149.5,1.7-175.8L963.9,505.7z"/>
		<path class="st0" d="M884.9,462.1c-2.3,3.6-6.4,9.6-6.9,12.9c0,0,0.7,11-0.9,19.8c1.8,0.8,3.9,0.5,5.4-0.8l-0.4-13l-0.1,6.8
			c0,0,0.1,19.6,1.5,20.1c1.4,0.5,2.8-19.7,2.8-19.7s0,23.4,1.7,24c1.9,0.8,3.7-24,3.7-24s0.3,21,2.1,21.7
			c2.1,0.7,4.1-21.6,4.1-21.6s0.3,18.4,2.4,18.9c2.5,0.6,3.7-13.2,4.2-18.9c0-0.1,0-0.1,0-0.2l0-0.4l-0.1-12.5
			c-0.2-4.1-1-8.2-2.3-12.1L884.9,462.1z"/>
		<path class="st0" d="M1005.4,457.1c-2.3,3.6-6.4,9.6-6.9,12.9c0,0,0.7,11-0.9,19.8c1.8,0.8,3.9,0.5,5.4-0.8l-0.4-13l-0.1,6.8
			c0,0,0.1,19.6,1.5,20.1c1.4,0.5,2.8-19.7,2.8-19.7s0,23.4,1.7,24c1.9,0.8,3.7-24,3.7-24s0.3,21,2.1,21.7
			c2.1,0.7,4.1-21.6,4.1-21.6s0.3,18.4,2.4,18.9c2.5,0.6,3.7-13.2,4.2-18.9c0-0.1,0-0.1,0-0.2l0-0.4l-0.1-12.5
			c0-3.7-4.8-8.9-5.9-12.1L1005.4,457.1z"/>
		<path class="st3" d="M1740.9,1012H158.4c144.1-291.2,444.3-491.5,791.2-491.5C1296.6,520.5,1596.8,720.8,1740.9,1012z"/>
		<path class="st4" d="M843.4,727.9c-2.2,8.2,14.2,5.5,16.2,5.4l0.1,0c3.1-0.1,4.2,5.2,1.5,6.9c-2.3,1.4-4.2,2.8-4.8,3.3
			c-7.3,5.8,2.4,7.7,5.9,7.9c7.6,0.4,15.2-1.3,22.7-2.1c28.8-3.2,58.9,5,87.3-0.6c9-1.8,18.5-1.6,27.2-4.4c1.4-0.5,2.4-1.8,2.5-3.3
			c0.4-3-2.1-4.4-4.1-5.1c-6.8-2.1-13-1.4-19.8-0.7c2.9-0.5,6.4-1.5,9.3-1c-19.6-3.4-39.2-6.8-58.8-10.1c-10-1.7-20.1-9.7-30.1-9.1
			c-10.1,0.6-18.2-0.1-27.1,4.4c-8.8,4.4-15.8,5.6-25.6,6.3c-1,0.1-1.9,0.7-2.3,1.6C843.6,727.4,843.5,727.7,843.4,727.9z"/>
		<path class="st4" d="M921.6,301.2c0-13.6-18-24.2-29.5-22.3l14.8-8.8c8-1.3,19.1,3.4,25.2,11L921.6,301.2z"/>
		<path class="st5" d="M1037,303l-5.5,129.3c-0.8,6-1.6,11.9-2.6,17c-3.5,1.7-5.6,5.2-5.7,9c-4.1,0.2-10.6,0.5-16.3,0.6
			c-0.2,1-0.3,2.1-0.1,3.2c-4.7,2-13,4-23.1,5.4l-2.8,0.4c-19.8,2.3-46.7,2.5-67.7-2.7c-2-0.5-4-1.1-5.9-1.7c0.4-3-0.2-6.1-1.8-8.7
			l0.2-1.4c-0.6,1.3-0.9,2.7-0.9,4.1c0,1.4,0.3,2.7,0.8,4c-7.7,0-22.5-0.6-24.9-0.7c0.4-1,0.5-2.1,0.5-3.2c0-2.9-1.3-5.7-3.5-7.5
			c-10.9-55,3.2-165.4,3.2-165.4l36.8-22.8l5.7-9.6l5.1-0.5c7.2,5,14.7,4.8,29.6,4.4c18.2-0.5,26.4-2.2,26.4-2.2l1.9-0.1l4.3,2.4
			L1037,303z"/>
		<path class="st5" d="M930.5,282.4c0,0-0.3-0.3-0.8-1c-0.1-0.1-0.3-0.3-0.4-0.5c-0.1-0.2-0.3-0.3-0.5-0.5c-0.4-0.4-0.8-0.8-1.2-1.2
			c-0.2-0.2-0.5-0.4-0.7-0.7c-0.3-0.2-0.5-0.4-0.8-0.7c-0.5-0.5-1.2-0.9-1.8-1.4c-0.7-0.4-1.3-0.9-2.1-1.3c-0.7-0.4-1.5-0.8-2.2-1.2
			c-0.8-0.4-1.5-0.7-2.3-1c-0.8-0.3-1.6-0.6-2.3-0.8c-0.8-0.3-1.5-0.4-2.2-0.6c-0.7-0.1-1.4-0.3-2-0.3c-0.6,0-1.2-0.1-1.7-0.1
			c-0.4,0-0.9,0-1.3,0c-0.7,0.1-1.1,0.1-1.1,0.1l-0.4-2.3c0,0,0.5-0.1,1.3-0.2c0.4-0.1,0.9-0.1,1.5-0.1c0.6-0.1,1.2,0,1.9,0
			c0.7,0,1.5,0.1,2.3,0.2c0.8,0.1,1.6,0.3,2.5,0.5c0.9,0.2,1.7,0.5,2.6,0.7c0.9,0.3,1.8,0.6,2.6,1c0.9,0.4,1.7,0.8,2.5,1.2
			c0.8,0.4,1.6,0.9,2.4,1.3c0.7,0.5,1.5,0.9,2.1,1.4c0.3,0.2,0.6,0.5,0.9,0.7c0.3,0.2,0.6,0.5,0.9,0.7c0.5,0.4,1,0.9,1.5,1.3
			c0.2,0.2,0.4,0.4,0.6,0.6c0.2,0.2,0.3,0.3,0.4,0.5c0.5,0.6,0.8,0.9,0.8,0.9L930.5,282.4z"/>
		<path class="st5" d="M919.7,301.3l0-0.5c0-0.4,0-0.8-0.1-1.2c-0.1-0.6-0.1-1.1-0.3-1.7l-0.3-1.1c-0.1-0.4-0.3-0.8-0.4-1.2
			c-0.3-0.9-0.8-1.7-1.2-2.5c-0.5-0.9-1.1-1.8-1.8-2.6c-1.5-1.8-3.2-3.5-5.1-4.9c-1.9-1.4-4-2.6-6.2-3.6c-1.9-0.8-3.9-1.5-6-1.8
			c-0.8-0.2-1.6-0.3-2.5-0.3c-0.6,0-1.3-0.1-1.9,0c-0.4,0-0.8,0-1.2,0.1c-0.3,0-0.4,0-0.4,0l-0.4-2.3c0,0,0.2,0,0.5-0.1
			c0.5-0.1,0.9-0.1,1.4-0.2c0.7-0.1,1.4-0.1,2.1-0.1c0.9,0,1.8,0.1,2.8,0.2c2.3,0.3,4.5,0.9,6.6,1.8c2.4,0.9,4.8,2.2,7,3.6
			c2.2,1.5,4.2,3.2,6,5.2c0.8,0.9,1.6,1.9,2.2,3c0.6,1,1.1,2,1.6,3c0.2,0.5,0.4,1,0.6,1.4c0.1,0.5,0.3,0.9,0.4,1.3
			c0.2,0.7,0.3,1.5,0.4,2.3c0.1,0.5,0.1,0.9,0.1,1.4l0,0.5L919.7,301.3z"/>
		<path class="st6" d="M935.6,714c1.8-5,6.5-9.1,17.5-7.2c4.3,0.8,8.5,1.7,12.6,3c1.5,0.4,3-0.4,3.4-1.9c0.1-0.3,0.1-0.5,0.1-0.8
			h0.2c0,0,17.2,7.4,32.6,3.3c-0.2,7-0.3,26.2-0.3,26.2c-0.1,4.1-3.2,7.5-7.2,7.9c-8.7,0.9-25.6-0.2-51.4-12.9
			C936.4,728.5,933.2,720.9,935.6,714z"/>
		<path class="st7" d="M1002.7,732.5l0,0.2c0,0.2,0,0.5-0.1,0.7c-0.1,0.9-0.4,1.8-0.9,2.6c-0.7,1.3-1.8,2.5-3,3.3
			c-0.8,0.5-1.7,0.9-2.7,1.2c-0.6,0.1-1,0.2-1.4,0.3c-0.4,0.1-0.9,0.2-1.4,0.2c-2.1,0.3-4.2,0.5-6.4,0.5c-2.4,0-4.7-0.1-7.1-0.4
			c-2.5-0.3-5-0.7-7.4-1.2c-1.2-0.3-2.5-0.6-3.7-0.9c-1.2-0.3-2.5-0.7-3.7-1.1c-1.2-0.4-2.4-0.8-3.7-1.3c-1.2-0.4-2.4-0.9-3.6-1.4
			c-1.2-0.4-2.3-1-3.5-1.5c-1.1-0.5-2.2-1-3.3-1.6c-1.1-0.5-2.1-1-3.2-1.6c-1-0.6-2-1.1-3-1.7c-0.5-0.3-1-0.5-1.4-0.8
			c-0.5-0.3-1-0.6-1.4-0.9c-0.9-0.7-1.8-1.4-2.6-2.3c-1.3-1.4-2.3-3.1-3-4.8c-0.5-1.3-0.8-2.7-0.9-4.2c-0.1-0.9,0-1.8,0.1-2.7
			c0.1-0.6,0.2-0.9,0.2-0.9l0.4,0l0,0.9c0.1,2.2,0.6,4.3,1.6,6.2c0.8,1.5,1.9,2.8,3.1,4c0.7,0.6,1.5,1.2,2.3,1.7
			c0.9,0.5,1.8,0.9,2.8,1.4c1,0.5,2,0.9,3,1.4c1,0.5,2.1,0.9,3.2,1.4c1.1,0.5,2.2,0.9,3.3,1.4c1.1,0.4,2.3,0.9,3.4,1.3
			c1.2,0.4,2.3,0.9,3.5,1.3c1.2,0.4,2.4,0.8,3.6,1.2c1.2,0.4,2.4,0.7,3.6,1.1c1.2,0.3,2.4,0.6,3.6,0.9c2.4,0.6,4.8,1.1,7.1,1.4
			c2.3,0.4,4.6,0.6,6.7,0.8c2,0.1,4,0.2,6.1,0.1c0.9,0,1.9-0.1,2.7-0.2c0.8-0.1,1.5-0.3,2.3-0.7c1.2-0.6,2.2-1.4,2.9-2.5
			c0.5-0.7,0.9-1.4,1.2-2.2c0.1-0.2,0.1-0.4,0.2-0.6l0.1-0.2L1002.7,732.5z"/>
		<path class="st7" d="M971.3,721.5l0,0.4c0,0.4,0.1,0.8,0.2,1.1c0.2,0.6,0.5,1.1,0.9,1.6c0.5,0.6,1.1,1,1.8,1.3
			c0.4,0.1,0.8,0.2,1.2,0.3c0.4,0,0.8,0,1.2-0.1c0.1,0,0.2-0.1,0.3-0.1l0.1,0l0.1,0c0.1,0-0.1,0-0.1,0l0,0l0,0l0,0
			c0.2,0,0.5-0.1,0.7-0.3l0.4-0.3c0.2-0.1,0.3-0.2,0.4-0.4c0.5-0.5,0.9-1.1,1.1-1.7c0.2-0.6,0.3-1.1,0.3-1.7c0,0.3,0,0.1,0,0.1l0,0
			l0,0l0-0.1l0-0.1l0-0.2c0-0.1,0-0.1,0-0.2l0,0l0-0.3c-0.1-0.3-0.1-0.6-0.2-0.9c-0.2-0.7-0.6-1.2-1.1-1.7c-0.6-0.6-1.3-1-2.1-1.1
			c-0.4-0.1-0.8-0.1-1.2-0.1c-0.4,0-0.8,0.1-1.2,0.3c-0.7,0.3-1.3,0.7-1.8,1.3c-0.4,0.5-0.7,1-0.9,1.6c-0.1,0.4-0.2,0.8-0.2,1.1
			L971.3,721.5L971.3,721.5z M971,721.5l0-0.4c0-0.4,0.1-0.8,0.2-1.2c0.4-1.5,1.3-2.7,2.5-3.6c2.9-2,6.9-1.2,8.9,1.7c0,0,0,0,0,0
			c0.3,0.5,0.6,1.1,0.8,1.7c0.2,0.6,0.3,1.2,0.3,1.9c0,2.5-1.5,4.8-3.9,5.8c-0.5,0.2-1.1,0.4-1.7,0.5c-0.3,0-0.5,0.1-0.8,0.1
			c-0.3,0-0.6,0-0.8,0c-1-0.1-2-0.5-2.8-1.1c-1.2-0.9-2.2-2.1-2.5-3.6c-0.1-0.4-0.2-0.8-0.2-1.2L971,721.5L971,721.5z"/>
		<path class="st7" d="M966.1,708.8l-0.4,0.1c-0.2,0.1-0.6,0.2-1,0.3c-0.5,0.1-1,0.3-1.4,0.5c-0.5,0.1-1.1,0.5-1.7,0.7
			c-0.3,0.1-0.6,0.3-0.9,0.5c-0.3,0.2-0.6,0.3-0.9,0.5c-0.6,0.4-1.2,0.7-1.9,1.2c-0.6,0.4-1.2,0.9-1.9,1.4c-0.6,0.5-1.2,1-1.8,1.6
			c-0.3,0.3-0.6,0.5-0.8,0.8c-0.3,0.3-0.6,0.6-0.8,0.9c-0.5,0.6-1,1.2-1.5,1.8c-0.2,0.3-0.5,0.6-0.7,0.9c-0.2,0.3-0.4,0.6-0.6,0.9
			c-0.1,0.2-0.2,0.3-0.3,0.5c-0.1,0.2-0.2,0.3-0.3,0.5c-0.2,0.3-0.4,0.6-0.6,0.9c-0.2,0.3-0.3,0.6-0.5,0.9c-0.2,0.3-0.3,0.5-0.4,0.8
			c-0.3,0.5-0.5,1-0.7,1.4c-0.2,0.4-0.4,0.7-0.5,0.9l-0.2,0.3l-0.4,0c0,0,0-0.5,0.1-1.3c0-0.5,0.1-1,0.1-1.5c0.1-0.7,0.2-1.3,0.4-2
			c0.1-0.4,0.2-0.7,0.3-1.1c0.1-0.4,0.2-0.8,0.4-1.1c0.2-0.4,0.3-0.8,0.5-1.2c0.2-0.4,0.4-0.8,0.6-1.2c0.9-1.7,2.1-3.2,3.4-4.5
			c0.7-0.7,1.5-1.3,2.2-1.8c0.8-0.5,1.6-1,2.4-1.4c0.8-0.4,1.6-0.7,2.5-1c0.4-0.1,0.8-0.2,1.2-0.3c0.4-0.1,0.7-0.2,1.1-0.2
			c0.7-0.1,1.3-0.1,2-0.1c0.5,0,1,0,1.5,0.1c0.8,0.1,1.3,0.2,1.3,0.2L966.1,708.8z"/>
		<path class="st7" d="M989.7,739.4l-0.2-0.3c-0.1-0.2-0.3-0.5-0.4-0.9c-0.2-0.4-0.4-0.8-0.6-1.4c-0.2-0.6-0.4-1.2-0.6-1.8
			c-0.2-0.7-0.4-1.4-0.5-2.1c-0.2-0.7-0.3-1.5-0.4-2.4c-0.1-0.8-0.2-1.7-0.2-2.5c-0.1-0.9-0.1-1.7-0.1-2.6c0-0.9,0-1.7,0.1-2.6
			c0.1-0.9,0.1-1.7,0.3-2.5c0.1-0.8,0.2-1.6,0.4-2.4c0.1-0.7,0.3-1.5,0.5-2.1c0.2-0.6,0.4-1.2,0.6-1.8c0.2-0.5,0.4-1,0.5-1.4
			c0.2-0.4,0.3-0.7,0.4-0.9l0.2-0.3h0.4c0,0,0.1,1.7,0.1,4.3l0.1,9.6c0,3.5-0.1,7-0.1,9.6c0,2.6-0.1,4.3-0.1,4.3H989.7z"/>
		<path class="st7" d="M995.3,737.8l-0.2-0.3c-0.1-0.2-0.3-0.5-0.4-0.8c-0.2-0.4-0.4-0.8-0.6-1.3c-0.2-0.5-0.4-1.1-0.6-1.7
			c-0.2-0.6-0.4-1.3-0.5-2c-0.2-0.7-0.3-1.4-0.4-2.2c-0.1-0.8-0.2-1.6-0.3-2.4c-0.1-0.8-0.1-1.6-0.1-2.5c0-0.8,0-1.6,0.1-2.5
			c0-0.8,0.1-1.6,0.2-2.4c0.1-0.8,0.2-1.5,0.4-2.2c0.1-0.7,0.3-1.4,0.5-2c0.2-0.6,0.3-1.1,0.6-1.7c0.2-0.5,0.4-0.9,0.5-1.3
			c0.1-0.4,0.3-0.6,0.4-0.8l0.2-0.3l0.4,0c0,0,0.1,1.6,0.1,4.1c0,2.5,0.1,5.8,0.1,9c0,3.3,0,6.6,0,9c0,2.5-0.1,4.1-0.1,4.1
			L995.3,737.8z"/>
		<path class="st6" d="M883.2,716.3c1.8-5,6.5-9.1,17.5-7.2c4.3,0.8,8.5,1.7,12.6,3c1.5,0.4,3-0.4,3.4-1.9c0.1-0.3,0.1-0.5,0.1-0.8
			h0.2l16.1,4.5c0,0,13.7,1.7,16.5-1.4c0,0-0.3,19.7-0.3,26.3c-0.1,4.1-3.2,7.5-7.2,7.9c-8.7,0.9-25.6-0.2-51.4-12.9
			C884.1,730.8,880.9,723.2,883.2,716.3z"/>
		<path class="st7" d="M950.3,734.8l0,0.2c0,0.2,0,0.5-0.1,0.7c-0.1,0.9-0.4,1.8-0.9,2.6c-0.7,1.3-1.8,2.5-3,3.3
			c-0.8,0.5-1.7,0.9-2.7,1.2c-0.6,0.1-1,0.2-1.4,0.3c-0.4,0.1-0.9,0.2-1.4,0.2c-2.1,0.3-4.2,0.5-6.4,0.5c-2.4,0-4.7-0.1-7.1-0.4
			c-2.5-0.3-5-0.7-7.4-1.2c-1.2-0.3-2.5-0.6-3.7-0.9c-1.2-0.3-2.5-0.7-3.7-1.1c-1.2-0.4-2.4-0.8-3.7-1.3c-1.2-0.4-2.4-0.9-3.6-1.4
			c-1.2-0.4-2.3-1-3.5-1.5c-1.1-0.5-2.2-1-3.3-1.6c-1.1-0.5-2.1-1-3.2-1.6c-1-0.6-2-1.1-3-1.7c-0.5-0.3-1-0.5-1.4-0.8
			c-0.5-0.3-1-0.6-1.4-0.9c-0.9-0.7-1.8-1.4-2.6-2.3c-1.3-1.4-2.3-3.1-3-4.8c-0.5-1.3-0.8-2.7-0.9-4.2c-0.1-0.9,0-1.8,0.1-2.7
			c0.1-0.6,0.2-0.9,0.2-0.9l0.4,0l0,0.9c0.1,2.2,0.6,4.3,1.6,6.2c0.8,1.5,1.9,2.8,3.1,4c0.7,0.6,1.5,1.2,2.3,1.7
			c0.9,0.5,1.8,0.9,2.8,1.4c1,0.5,2,0.9,3,1.4c1,0.5,2.1,0.9,3.2,1.4c1.1,0.5,2.2,0.9,3.3,1.4c1.1,0.4,2.3,0.9,3.4,1.3
			c1.2,0.4,2.3,0.9,3.5,1.3c1.2,0.4,2.4,0.8,3.6,1.2c1.2,0.4,2.4,0.7,3.6,1.1c1.2,0.3,2.4,0.6,3.6,0.9c2.4,0.6,4.8,1.1,7.1,1.4
			c2.3,0.4,4.6,0.6,6.7,0.8c2,0.1,4,0.2,6.1,0.1c0.9,0,1.9-0.1,2.7-0.2c0.8-0.1,1.5-0.3,2.3-0.7c1.2-0.6,2.2-1.4,2.9-2.5
			c0.5-0.7,0.9-1.4,1.2-2.2c0.1-0.2,0.1-0.4,0.2-0.6l0.1-0.2L950.3,734.8z"/>
		<path class="st7" d="M919,723.8l0,0.4c0,0.4,0.1,0.8,0.2,1.1c0.2,0.6,0.5,1.1,0.9,1.6c0.5,0.6,1.1,1,1.8,1.3
			c0.4,0.1,0.8,0.2,1.2,0.3c0.4,0,0.8,0,1.2-0.1c0.1,0,0.2-0.1,0.3-0.1l0.1,0l0.1,0c0.1,0-0.1,0-0.1,0l0,0l0,0l0,0
			c0.2,0,0.5-0.1,0.7-0.3l0.4-0.3c0.2-0.1,0.3-0.2,0.4-0.4c0.5-0.5,0.9-1.1,1.1-1.7c0.1-0.3,0.2-0.6,0.2-0.9c0-0.1,0-0.3,0.1-0.4
			c0-0.1,0-0.1,0-0.2l0-0.1l0-0.1l0,0l0,0l0,0c0,0.1,0-0.2,0,0.2c0-0.2,0-0.5,0-0.7l0-0.3c-0.1-0.3-0.1-0.6-0.2-0.9
			c-0.2-0.7-0.6-1.2-1.1-1.7c-0.6-0.6-1.3-1-2.1-1.1c-0.4-0.1-0.8-0.1-1.2-0.1c-0.4,0-0.8,0.1-1.2,0.3c-0.7,0.3-1.3,0.7-1.8,1.3
			c-0.4,0.5-0.7,1-0.9,1.6c-0.1,0.4-0.2,0.8-0.2,1.1L919,723.8L919,723.8z M918.7,723.8l0-0.4c0-0.4,0.1-0.8,0.2-1.2
			c0.4-1.5,1.3-2.7,2.5-3.6c2.9-2,6.9-1.2,8.9,1.7c0,0,0,0,0,0c0.3,0.5,0.6,1.1,0.8,1.7c0.2,0.6,0.3,1.2,0.3,1.8
			c0,2.5-1.5,4.8-3.9,5.9c-0.5,0.2-1.1,0.4-1.7,0.5c-0.3,0-0.5,0.1-0.8,0.1c-0.3,0-0.6,0-0.8,0c-1-0.1-2-0.5-2.8-1.1
			c-1.2-0.9-2.2-2.1-2.5-3.6c-0.1-0.4-0.2-0.8-0.2-1.2L918.7,723.8L918.7,723.8z"/>
		<path class="st7" d="M913.8,711.1c0,0-0.1,0-0.4,0.1c-0.2,0.1-0.6,0.2-1,0.3c-0.5,0.1-1,0.3-1.4,0.5c-0.5,0.1-1.1,0.5-1.7,0.7
			c-0.3,0.1-0.6,0.3-0.9,0.5c-0.3,0.2-0.6,0.3-0.9,0.5c-0.6,0.4-1.2,0.7-1.9,1.2c-0.6,0.4-1.2,0.9-1.9,1.4c-0.6,0.5-1.2,1-1.8,1.6
			c-0.3,0.3-0.6,0.5-0.8,0.8c-0.3,0.3-0.6,0.6-0.8,0.9c-0.5,0.6-1,1.2-1.5,1.8c-0.2,0.3-0.5,0.6-0.7,0.9c-0.2,0.3-0.4,0.6-0.6,0.9
			c-0.1,0.2-0.2,0.3-0.3,0.5c-0.1,0.2-0.2,0.3-0.3,0.5c-0.2,0.3-0.4,0.6-0.6,0.9c-0.2,0.3-0.3,0.6-0.5,0.9c-0.2,0.3-0.3,0.5-0.4,0.8
			c-0.3,0.5-0.5,1-0.7,1.4c-0.2,0.4-0.4,0.7-0.5,0.9l-0.2,0.3l-0.4,0c0,0,0-0.5,0.1-1.3c0-0.5,0.1-1,0.1-1.5c0.1-0.7,0.2-1.3,0.4-2
			c0.1-0.4,0.2-0.7,0.3-1.1c0.1-0.4,0.2-0.8,0.4-1.1c0.2-0.4,0.3-0.8,0.5-1.2c0.2-0.4,0.4-0.8,0.6-1.2c0.9-1.7,2.1-3.2,3.4-4.5
			c0.7-0.7,1.5-1.3,2.2-1.8c0.8-0.5,1.6-1,2.4-1.4c0.8-0.4,1.6-0.7,2.5-1c0.4-0.1,0.8-0.2,1.2-0.3c0.4-0.1,0.7-0.2,1.1-0.2
			c0.7-0.1,1.3-0.1,2-0.1c0.5,0,1,0,1.5,0.1c0.8,0.1,1.3,0.2,1.3,0.2L913.8,711.1z"/>
		<path class="st7" d="M938.4,741.7l-0.2-0.3c-0.1-0.2-0.3-0.5-0.5-0.9c-0.2-0.4-0.4-0.8-0.6-1.3c-0.2-0.6-0.5-1.1-0.6-1.7
			c-0.2-0.6-0.4-1.3-0.6-2.1c-0.2-0.7-0.3-1.5-0.5-2.3c-0.1-0.8-0.3-1.6-0.3-2.5c-0.1-0.8-0.1-1.7-0.2-2.6c0-0.9,0-1.7,0-2.6
			c0-0.8,0.1-1.7,0.2-2.5c0.1-0.8,0.2-1.6,0.3-2.3c0.1-0.7,0.3-1.4,0.5-2.1c0.1-0.6,0.3-1.2,0.5-1.8c0.2-0.5,0.4-1,0.5-1.4
			c0.1-0.4,0.3-0.7,0.4-0.9c0.1-0.2,0.2-0.3,0.2-0.3l0.4,0c0,0,0.1,1.7,0.2,4.3c0.1,2.6,0.2,6,0.4,9.5c0.1,3.4,0.2,6.9,0.2,9.5
			c0,2.6,0,4.3,0,4.3L938.4,741.7z"/>
		<line class="st8" x1="941.2" y1="271.9" x2="944.7" y2="264"/>
		<polygon class="st7" points="939.8,271.3 944.7,264 942.6,272.5 		"/>
		<path class="st7" d="M924.7,256.8c0,0,0.1,0.1,0.3,0.2c0.2,0.2,0.5,0.4,0.7,0.6c0.2,0.1,0.3,0.2,0.5,0.3c0.2,0.1,0.4,0.2,0.7,0.4
			c0.5,0.3,1.1,0.5,1.7,0.8c0.7,0.2,1.4,0.5,2.2,0.8c0.8,0.3,1.6,0.5,2.5,0.7c0.9,0.2,1.8,0.4,2.7,0.6c0.9,0.2,1.9,0.4,2.8,0.5
			c0.9,0.2,1.9,0.3,2.8,0.4c0.9,0.1,1.9,0.1,2.7,0.2c0.9,0,1.7,0,2.6,0.1c0.8,0,1.6,0,2.3-0.1c0.7-0.1,1.3-0.1,1.9-0.1
			c0.6,0,1.1-0.1,1.5-0.2c0.8-0.1,1.3-0.2,1.3-0.2l0.5,3.5c0,0-0.5,0-1.4,0.1c-0.4,0-1,0.1-1.6,0.1c-0.6,0-1.3,0-2.1,0
			c-0.8,0-1.6-0.1-2.4-0.1c-0.9-0.1-1.8-0.1-2.7-0.2c-0.9-0.1-1.9-0.2-2.9-0.4c-1-0.2-2-0.3-2.9-0.6c-1-0.2-1.9-0.5-2.9-0.7
			c-0.9-0.3-1.9-0.5-2.8-0.8c-0.9-0.3-1.7-0.6-2.5-0.9c-0.8-0.3-1.5-0.7-2.2-1c-0.7-0.4-1.3-0.6-1.8-1c-0.3-0.2-0.5-0.3-0.7-0.5
			c-0.2-0.2-0.5-0.3-0.7-0.5c-0.3-0.2-0.5-0.4-0.8-0.7c-0.2-0.2-0.3-0.2-0.3-0.2L924.7,256.8z"/>
		<path class="st7" d="M921.1,264.8l0.3,0.2c0.2,0.2,0.5,0.4,0.7,0.6c0.2,0.1,0.3,0.2,0.5,0.3c0.2,0.1,0.4,0.2,0.7,0.4
			c0.5,0.3,1.1,0.5,1.7,0.8c0.7,0.2,1.4,0.5,2.2,0.8c0.8,0.3,1.6,0.5,2.5,0.7c0.9,0.2,1.8,0.4,2.7,0.6c0.9,0.2,1.9,0.4,2.8,0.5
			c0.9,0.2,1.9,0.3,2.8,0.4c0.9,0.1,1.9,0.1,2.7,0.2c0.9,0,1.7,0,2.6,0.1c0.8,0,1.6,0,2.3-0.1c0.7-0.1,1.3-0.1,1.9-0.1
			c0.6,0,1.1-0.1,1.5-0.2c0.8-0.1,1.3-0.2,1.3-0.2l0.5,3.5c0,0-0.5,0-1.4,0.1c-0.4,0-1,0.1-1.6,0.1c-0.6,0-1.3,0-2.1,0
			c-0.8,0-1.6-0.1-2.4-0.1c-0.9-0.1-1.8-0.1-2.7-0.2c-0.9-0.1-1.9-0.2-2.9-0.4c-1-0.2-2-0.3-2.9-0.6c-1-0.2-1.9-0.5-2.9-0.7
			c-0.9-0.3-1.9-0.5-2.8-0.8c-0.9-0.3-1.7-0.6-2.5-0.9c-0.8-0.3-1.5-0.7-2.2-1c-0.7-0.4-1.3-0.6-1.8-1c-0.3-0.2-0.5-0.3-0.7-0.5
			c-0.2-0.2-0.5-0.3-0.7-0.5c-0.3-0.2-0.5-0.4-0.8-0.7L920,266L921.1,264.8z"/>
		<path class="st7" d="M1008.3,484.5c-0.1,4.1,0,8.1,0,12.2c0,1,0.1,2,0,3.1c0,0.5,0,1,0.1,1.5c0.1,0.5,0.3,1,0.4,1.5
			c0.2,1,0.3,2,0.5,3c0.1,0.5,0.2,1,0.3,1.4c0,0.2,0.1,0.4,0.2,0.6c0,0,0,0.1,0.1,0.1c0,0,0,0,0,0c0,0-0.1-0.1-0.1-0.1
			c0,0-0.1,0-0.1,0c0.2,0-0.2-0.1-0.2-0.1l0,0l0,0l0,0c-0.2,0-0.3,0-0.5,0c0,0-0.1,0-0.1,0c0,0-0.1,0-0.1,0.1c0,0,0.1,0,0.1,0
			c0,0,0,0.1,0,0.1c0,0-0.1,0-0.1,0c0,0,0-0.1,0-0.1c0-0.1,0.1-0.1,0.1-0.2c0.1-0.2,0.2-0.4,0.2-0.6c0.1-0.4,0.3-0.9,0.4-1.4
			c0.2-1,0.4-2,0.6-2.9c0.2-1,0.3-2,0.4-3l0.3-3c0.1-1,0.2-2,0.3-3c0.1-1,0.2-2,0.3-3c0.1-1,0.2-2,0.4-3c0.1-1,0.3-2,0.4-3l1.5,0
			l0,0l0.4,5.5c0.1,1.8,0.2,3.7,0.4,5.5c0.2,1.8,0.3,3.7,0.5,5.5c0.1,0.9,0.2,1.8,0.4,2.6c0.1,0.4,0.2,0.8,0.3,1.2
			c0,0.1,0.1,0.3,0.2,0.4c0,0,0,0-0.1-0.1c0,0-0.1-0.1-0.2-0.1c0,0-0.1,0-0.1,0c0,0-0.4-0.1-0.2,0l0,0l0,0c0,0,0.2,0-0.1,0
			c-0.1,0-0.3,0-0.4,0.1c-0.1,0-0.2,0.1-0.3,0.2c0,0,0-0.1,0.1-0.1c0.1-0.1,0.2-0.3,0.2-0.5c0.1-0.4,0.3-0.8,0.4-1.2
			c0.2-0.8,0.4-1.7,0.6-2.6c0.4-1.8,0.7-3.6,1-5.4c0.3-1.8,0.6-3.6,0.8-5.5l0.8-5.5l1.5,0.1v0c0.2,3.2,0.5,6.5,0.8,9.7
			c0.2,1.6,0.4,3.2,0.7,4.8c0.1,0.8,0.3,1.5,0.5,2.3c0.1,0.3,0.2,0.6,0.3,0.9c-0.2-0.3-0.6-0.3-0.9-0.1c-0.3,0.2-0.3,0.6-0.1,0.9
			c0.2,0.3,0.6,0.3,0.9,0.1c0.2-0.2,0.3-0.5,0.2-0.8c-0.1-0.1-0.2-0.2-0.4-0.2c-0.3-0.1,0.1,0-0.1,0c-0.1,0-0.1,0-0.2,0
			c0,0-0.1,0-0.1,0c-0.1,0-0.2,0.1-0.3,0.1c0.1-0.1,0.1-0.2,0.1-0.2c0.1-0.3,0.3-0.6,0.4-0.9c0.2-0.7,0.4-1.5,0.6-2.2
			c0.3-1.5,0.5-3.1,0.7-4.7c0.4-3.2,0.6-6.4,0.9-9.7l0-0.2c-0.3,1.3-1.6,2.2-2.9,1.9s-2.2-1.6-1.9-2.9s1.6-2.2,2.9-1.9
			c1.2,0.2,2.1,1.4,2,2.6l0,0.5l0-0.4l0-0.4l0-0.8l0-1.6l-0.1-3.2c-0.1-2.1-0.1-4.3-0.1-6.4l0.2,0.8c-0.9-1.9-2-3.9-2.9-6.1
			c-0.5-1.1-0.9-2.2-1.2-3.4c-0.3-1.2-0.5-2.3-0.7-3.5l3.5-0.5c0.3,2,0.9,4,1.8,5.9c0.9,1.9,1.9,3.9,2.9,5.9l0.2,0.8
			c0,2.1,0.1,4.3,0.1,6.4l0,3.2l0,1.6l0,0.8l0,0.4l0,0.4l0,0.5c0-0.3,0-0.1,0,0.1l0-0.2c-0.3,3.3-0.7,6.5-1.3,9.8
			c-0.3,1.6-0.6,3.3-1,4.9c-0.2,0.9-0.5,1.7-0.8,2.5c-0.2,0.5-0.4,0.9-0.6,1.3c-0.2,0.3-0.3,0.5-0.6,0.8c-0.5,0.5-1.1,0.8-1.9,0.8
			c-0.1,0-0.3,0-0.4-0.1c-0.3-0.1-0.6-0.3-0.9-0.5c-0.3-0.3-0.5-0.6-0.6-0.9c-0.2-0.5-0.3-0.9-0.5-1.4c-0.2-0.8-0.3-1.7-0.4-2.6
			c-0.2-1.7-0.3-3.3-0.4-5c-0.1-3.3-0.2-6.6-0.1-9.9l1.5,0.1c-0.1,3.7-0.4,7.4-0.9,11.1c-0.2,1.9-0.5,3.7-0.8,5.5
			c-0.2,0.9-0.4,1.9-0.6,2.8c-0.1,0.5-0.3,1-0.5,1.4c-0.1,0.3-0.2,0.5-0.4,0.8c-0.1,0.2-0.2,0.3-0.3,0.5c-0.2,0.3-0.5,0.5-0.8,0.6
			c-0.2,0.1-0.4,0.1-0.6,0.1c-0.1,0-0.2,0-0.2,0l0,0l0,0c0.2,0-0.2-0.1-0.2-0.1c-0.1,0-0.1,0-0.2-0.1c-0.1-0.1-0.2-0.1-0.3-0.2
			c-0.2-0.2-0.4-0.4-0.5-0.6c-0.2-0.3-0.3-0.6-0.4-0.9c-0.1-0.5-0.3-1-0.4-1.5c-0.2-1-0.3-1.9-0.4-2.8c-0.2-1.9-0.3-3.7-0.4-5.6
			c-0.1-3.7-0.1-7.4,0-11.1l0,0l1.5,0c0,1,0,2.1-0.1,3.1c0,1-0.1,2-0.2,3.1c-0.1,1-0.1,2-0.3,3.1c-0.1,1-0.2,2-0.4,3l-0.5,3
			c-0.2,1-0.3,2-0.5,3.1c-0.2,1-0.3,2-0.5,3.1c-0.1,0.5-0.2,1-0.4,1.6c-0.1,0.3-0.2,0.6-0.3,0.8c-0.1,0.2-0.2,0.3-0.3,0.5
			c-0.1,0.1-0.2,0.2-0.3,0.3c-0.1,0.1-0.2,0.1-0.2,0.2l-0.2,0.1c-0.1,0-0.2,0.1-0.3,0.1c-0.1,0-0.2,0-0.3,0l0,0l0,0l0,0
			c0,0-0.4-0.1-0.2-0.1c-0.1,0-0.1-0.1-0.2-0.1c-0.1-0.1-0.2-0.1-0.2-0.2c-0.1-0.1-0.1-0.1-0.2-0.2c-0.1-0.2-0.2-0.3-0.3-0.5
			c-0.1-0.3-0.2-0.6-0.3-0.9c-0.1-0.5-0.2-1.1-0.3-1.6c-0.1-1-0.3-2.1-0.3-3.1c0-0.5,0.1-1,0.1-1.6c0-0.5,0-1-0.1-1.5
			c-0.2-1-0.3-2-0.4-3.1c-0.4-4.1-0.8-8.1-1.1-12.2L1008.3,484.5z"/>
		<path class="st0" d="M958.4,505c-4.6,26.3-3.4,125.5-1.7,175.8c0.1,2.4,2.6,5.8,2.4,7.6c-0.2,2.8-2.1,3.3-2.4,6.1
			c-0.1,1.5,1.5,3.3,1.7,5.2c0.3,3.6-1.6,2.3-0.6,8.2c-3.5,8-21,7.8-33.3,4.1l-1.1-0.3c-5.8-1.7-10.2-4.2-10.8-6.8l-1.7-2
			c-1.4-1.7-1.6-4.1-0.3-5.9l0,0c1-1.5,1.2-3.4,0.3-5l-1.1-2.1c-0.7-1.3-0.7-2.8-0.2-4.1l1.8-4.1c0.3-0.6,0.4-1.3,0.4-2l-6.9-216.8"
			/>
		<path class="st7" d="M960.2,505.2c-0.3,2.1-0.6,4.2-0.9,6.3l-0.6,6.3c-0.3,4.2-0.6,8.5-0.8,12.7l-0.3,6.4l-0.2,6.4
			c-0.2,4.2-0.3,8.5-0.4,12.8c-0.1,4.3-0.1,8.5-0.2,12.8l-0.1,12.8c0,8.5,0,17,0,25.5c0.1,17,0.3,34.1,0.7,51.1l0.3,12.8l0.2,6.4
			l0.1,3.2c0,0.2,0,0.5,0.1,0.7c0,0.2,0.1,0.4,0.1,0.6c0.1,0.5,0.3,0.9,0.5,1.4c0.4,0.9,0.9,1.9,1.3,3c0.3,0.6,0.4,1.3,0.4,2l0,0.3
			c0,0,0,0.1,0,0.1l0,0l0,0.1c0,0.1,0,0.2-0.1,0.4c-0.1,0.3-0.1,0.7-0.2,1c-0.4,1-1,2-1.6,3c-0.2,0.4-0.3,0.8-0.4,1.2l0,0.3l0,0
			c0,0,0-0.1,0,0l0,0.1c0,0.1,0,0.1,0,0.2c0,0,0,0.2,0.1,0.4c0.2,0.8,0.8,1.7,1.3,2.9c0.1,0.3,0.2,0.6,0.3,0.9
			c0.1,0.3,0.1,0.6,0.1,1c0,0.3,0,0.6,0,1c0,0.3-0.1,0.7-0.2,1c-0.2,0.7-0.4,1.2-0.5,1.6c-0.1,0.4-0.2,0.8-0.2,1.2
			c0,1,0.1,2,0.3,2.9l0.1,0.4l-0.1,0.3c-0.5,1.1-1.2,2.1-2.1,2.9c-0.9,0.8-1.8,1.4-2.9,2c-2,1-4.1,1.6-6.3,1.9
			c-4.3,0.6-8.6,0.7-12.9,0.1c-2.1-0.2-4.2-0.6-6.3-1c-1-0.2-2.1-0.5-3.1-0.8c-1.1-0.3-1.9-0.5-3.1-0.9c-1-0.3-2.1-0.7-3.1-1.1
			c-1-0.4-2-0.9-3-1.4c-1-0.5-2-1.2-2.8-1.9c-1.1-0.8-1.8-1.9-2.2-3.2l0.3,0.6l-1.5-1.7l-0.2-0.2l-0.2-0.3l-0.2-0.2l-0.2-0.3
			c-0.1-0.2-0.3-0.4-0.4-0.6c-0.1-0.2-0.2-0.4-0.3-0.7c-0.3-0.9-0.4-1.9-0.3-2.9c0.1-1,0.5-1.9,1.1-2.7l2.2,1.6l-2.2-1.6
			c0.5-0.7,0.7-1.6,0.6-2.5c0-0.2-0.1-0.4-0.2-0.6c-0.1-0.2-0.2-0.4-0.3-0.7l-0.9-1.6c-0.2-0.3-0.3-0.7-0.5-1
			c-0.1-0.4-0.2-0.8-0.3-1.1c-0.1-0.8-0.1-1.6,0.1-2.4c0.1-0.4,0.2-0.7,0.4-1.1l0.4-0.8l0.7-1.7l0.7-1.6c0.1-0.4,0.2-0.8,0.2-1.3
			l-0.1-3.7l-0.2-7.3l-1-29.4l-2-58.8l-2-58.8l-1.9-58.8l3.5-0.1l1.9,58.8l1.8,58.8l1.7,58.8l0.9,29.4l0.2,7.3l0.1,3.7
			c0,0.8-0.1,1.6-0.4,2.3c-0.1,0.4-0.3,0.6-0.4,0.9l-0.4,0.8l-0.7,1.7l-0.4,0.8c-0.1,0.2-0.2,0.4-0.2,0.6c-0.1,0.4-0.1,0.9-0.1,1.3
			c0,0.2,0.1,0.4,0.2,0.6c0.1,0.2,0.2,0.4,0.3,0.7l0.9,1.6c0.2,0.3,0.3,0.7,0.5,1c0.1,0.4,0.2,0.8,0.3,1.1c0.2,1.6-0.1,3.2-1.1,4.5
			l-2.2-1.6l2.2,1.6c-0.6,0.9-0.8,2-0.5,3c0,0.1,0.1,0.3,0.1,0.4c0.1,0.1,0.1,0.2,0.2,0.3l0.1,0.1l0.2,0.2l0.1,0.1c0,0,0,0,0.1,0.1
			l0.2,0.2l1.5,1.7l0.2,0.2l0.1,0.3c0.3,0.7,0.7,1.4,1.4,1.8c0.7,0.6,1.5,1.1,2.4,1.6c0.9,0.5,1.8,0.9,2.7,1.3
			c0.9,0.4,1.9,0.7,2.9,1c0.9,0.3,2,0.6,3,0.9c1,0.3,2,0.5,3,0.7c2,0.4,4,0.8,6,1c4,0.5,8.1,0.5,12.1-0.1c1.9-0.3,3.8-0.8,5.6-1.7
			c1.7-0.7,3-2,3.8-3.6l-0.1,0.7c-0.2-1.1-0.3-2.3-0.3-3.4c0-0.6,0.1-1.3,0.3-1.9c0.2-0.6,0.4-1.1,0.5-1.5c0-0.2,0.1-0.4,0.1-0.6
			c0-0.2,0-0.4,0-0.6c0-0.2,0-0.4-0.1-0.6c0-0.2-0.1-0.4-0.2-0.6c-0.3-0.9-0.8-1.7-1.3-3c-0.1-0.4-0.2-0.8-0.2-1.2
			c0-0.1,0-0.2,0-0.2l0-0.1l0-0.1l0-0.1l0.1-0.5c0.1-0.6,0.3-1.3,0.6-1.9c0.6-0.8,1-1.7,1.5-2.6c0.1-0.2,0.1-0.4,0.1-0.5
			c0-0.1,0-0.3,0.1-0.4l0-0.1l0,0c0,0,0,0.1,0,0l0-0.1c0-0.4-0.1-0.8-0.3-1.1c-0.3-0.9-0.8-1.9-1.3-2.9c-0.2-0.5-0.4-1.1-0.6-1.6
			c-0.1-0.3-0.2-0.6-0.2-1c-0.1-0.3-0.1-0.6-0.1-0.9l-0.1-3.2l-0.2-6.4l-0.4-12.8c-0.4-17-0.7-34.1-0.9-51.1
			c-0.1-8.5-0.1-17-0.1-25.6l0.1-12.8c0.1-4.3,0.1-8.5,0.1-12.8c0.1-4.3,0.1-8.5,0.2-12.8l0.2-6.4l0.2-6.4c0.1-4.3,0.4-8.5,0.7-12.8
			l0.6-6.5c0.2-2.1,0.5-4.2,0.8-6.3L960.2,505.2z"/>
		<path class="st0" d="M1006.8,462.2l3.6,213.4c0,1.9-0.6,3.7-1.8,5.2l0,0c-1.8,2.2-1.7,5.4,0.3,7.4l0,0c2,2.2,2,5.6,0,7.7l0,0
			c-1.6,1.7-2,4.3-0.9,6.4l0.6,1.3c1.1,2.2,0.3,5-2,6.1c-0.4,0.2-0.7,0.3-1.1,0.4c-12.5,2.7-37.8,1.5-40.4-10.5l-0.2-2.3L964,694
			c-0.4-1.7-0.1-3.6,1-5l0,0c1-1.3,1.3-2.9,1.1-4.5l-1-5.9c-0.1-0.3-0.1-0.6-0.1-1c-0.2-54.4-1-173.5-1-173.5"/>
		<path class="st7" d="M1008.5,462.2l0.2,27.4l0.4,27.4c0.2,18.3,0.6,36.5,1,54.8c0.1,9.1,0.4,18.3,0.6,27.4l0.3,13.7l0.4,13.7
			l0.8,27.4l0.4,13.7l0.2,6.8l0,0.9l0,0.5c0,0.2,0,0.3,0,0.5c0,0.8-0.1,1.5-0.3,2.3c-0.4,1.5-1.1,2.9-2,4l-4.1-3.4l4.1,3.4
			c-0.5,0.7-0.8,1.6-0.6,2.4c0.1,0.4,0.2,0.8,0.5,1.2c0.1,0.1,0.1,0.2,0.2,0.2l0.4,0.5l0.1,0.1l0.2,0.2l0.3,0.4
			c0.2,0.3,0.3,0.5,0.5,0.8c1.1,2.2,1.2,4.8,0.2,7c-0.2,0.6-0.5,1.1-0.9,1.6c-0.2,0.2-0.4,0.5-0.6,0.7l-0.4,0.4
			c-0.1,0.1-0.2,0.3-0.3,0.5c-0.1,0.2-0.2,0.4-0.2,0.6c-0.1,0.4-0.1,0.8,0,1.2c0.1,0.5,0.3,1.1,0.6,1.5l0.3,0.7l0.1,0.3
			c0.1,0.1,0.1,0.2,0.1,0.4c0.2,0.7,0.4,1.3,0.4,2c0.1,1.3-0.2,2.6-0.8,3.8c-0.9,1.8-2.5,3.1-4.4,3.6c-0.7,0.2-1,0.2-1.4,0.3
			c-1.7,0.3-3.4,0.5-5.1,0.7c-3.4,0.3-6.8,0.4-10.1,0.2c-3.4-0.1-6.8-0.6-10.1-1.2c-3.5-0.7-6.8-1.9-9.9-3.6
			c-1.7-0.9-3.2-2.1-4.4-3.6c-1.3-1.5-2.3-3.4-2.7-5.4l0-0.2l0-0.1l-0.1-2.4l0.1,0.4l-0.5-2.1l-0.3-1.1l-0.1-0.6
			c-0.1-0.3-0.1-0.6-0.1-0.8c-0.2-2,0.4-4.1,1.6-5.7l3.6,2.6l-3.6-2.6c0.4-0.5,0.6-1.1,0.7-1.7c0.1-0.3,0.1-0.6,0-0.9
			c0-0.1,0-0.2,0-0.2l0-0.3l-0.1-0.7l-0.4-2.9l-0.2-1.4l-0.1-0.4l0-0.2l0-0.3l0-0.1l-0.1-0.7l0.1-11.7l0.2-23.1
			c0.1-7.7,0.1-15.4,0.1-23.1c0-7.7,0-15.4,0-23.1c0-7.7-0.1-15.4-0.1-23.1c0-7.7-0.2-15.4-0.3-23.1c-0.2-7.7-0.3-15.4-0.6-23.1
			l-0.4-11.6c-0.1-3.9-0.3-7.7-0.5-11.6l5.1,0c-0.2,3.9-0.3,7.7-0.4,11.6l-0.3,11.6c-0.1,7.7-0.2,15.4-0.3,23.1
			c0,7.7-0.1,15.4,0,23.1c0,7.7,0.1,15.4,0.1,23.1c0.1,7.7,0.2,15.4,0.3,23.1c0.1,7.7,0.2,15.4,0.4,23.1l0.5,23.1l0.2,11.4l0.1,0.7
			l0,0.1c0-0.1,0,0.2,0-0.1l0,0l0,0.2l0.1,0.4l0.3,1.4l0.5,2.8l0.1,0.7l0.1,0.4c0,0.2,0.1,0.3,0.1,0.5c0.1,0.7,0.1,1.3,0,2
			c-0.2,1.3-0.7,2.6-1.5,3.6l-3.6-2.6l3.6,2.6c-0.5,0.8-0.8,1.7-0.6,2.6l0,0.3l0.1,0.3l0.1,0.2l0.3,1.1l0.6,2.1l0,0.2l0,0.2l0.2,2.3
			l0-0.3c0.5,2.3,2.4,4.2,4.9,5.6c2.7,1.4,5.5,2.3,8.5,2.9c3.1,0.6,6.2,0.9,9.3,1c3.1,0.1,6.3,0,9.4-0.3c1.6-0.2,3.1-0.4,4.6-0.7
			c0.5,0,1-0.2,1.4-0.4c0.6-0.4,0.9-1,0.8-1.6c0-0.2-0.1-0.4,0-0.3c0-0.1,0-0.1-0.1-0.2l-0.1-0.3l0,0c0,0.1-0.1-0.2,0.1,0.1l0,0
			l0-0.1l-0.1-0.1l-0.1-0.3c-0.2-0.4-0.3-0.6-0.6-1.3c-0.7-1.7-0.9-3.6-0.4-5.3c0.1-0.6,0.4-1.2,0.6-1.7c0.3-0.6,0.6-1.1,1-1.6
			l0.2-0.2l0.2-0.2l0-0.1c0.1-0.1,0.1-0.2,0.2-0.2c0.1-0.2,0.2-0.4,0.3-0.5c0.3-0.8,0.3-1.7-0.1-2.5l-0.1-0.3c0,0,0,0,0-0.1l0,0
			l-0.1-0.1l-0.4-0.4c-0.2-0.2-0.4-0.5-0.6-0.7c-0.7-1-1.2-2.1-1.4-3.3c-0.4-2.4,0.2-4.9,1.8-6.7l4.1,3.4l-4.1-3.4
			c0.7-0.9,1.2-2,1.2-3.1c0,0,0-0.2,0-0.4l0-0.4l0-0.9l0-6.8l-0.1-13.7l-0.1-27.4l0-13.7l-0.1-13.7c-0.1-9.1-0.1-18.3-0.3-27.4
			c-0.3-18.3-0.5-36.5-0.9-54.8l-0.5-27.4l-0.7-27.4L1008.5,462.2z"/>
		<path class="st7" d="M979.3,254.9l-0.4-1.1c-0.2-0.7-0.5-1.8-0.8-3c-0.7-3.1-0.9-6.3-0.7-9.4c0.1-1.7,0.3-3.3,0.7-5
			c0.3-1.4,0.7-2.8,1.2-4.2c0.4-1.2,0.9-2.2,1.2-2.9c0.3-0.7,0.5-1.1,0.5-1.1l2.1,1c0,0-0.2,0.4-0.4,1c-0.3,0.6-0.6,1.6-1,2.7
			c-0.4,1.3-0.7,2.6-0.9,3.9c-0.7,4.4-0.5,8.8,0.6,13.1c0.3,1.1,0.6,2.1,0.8,2.7c0.3,0.7,0.4,1,0.4,1L979.3,254.9z"/>
		<path class="st7" d="M921,173.2l-1.7,4.3c-0.6,1.6,0.6,3,1.9,2.2l0.4-0.2c2.2-1.5,3.1-4.3,2.2-6.8l0,0
			C923.2,171.3,921.6,171.7,921,173.2z"/>
		<path class="st7" d="M941.5,179.7l0-1c0-0.2,0-0.5,0-0.7l0-0.5c0-0.7,0-1.3,0.1-2.1c0-0.8,0.1-1.5,0.3-2.3
			c0.2-0.7,0.4-1.5,0.7-2.2c0.6-1.4,1.2-2.6,1.8-3.8l1.8-3.7l0.9-1.8l0.4-0.9l0.2-0.8c0.1-0.6,0.1-1.1,0.1-1.7c0-0.3,0-0.6-0.1-0.8
			c-0.1-0.3-0.1-0.6-0.2-0.8c-0.2-0.5-0.4-1.1-0.7-1.5c-0.3-0.5-0.7-0.9-1.1-1.3c-0.4-0.4-0.9-0.7-1.4-0.9c-0.3-0.1-0.5-0.2-0.8-0.3
			c-0.3-0.1-0.5-0.1-0.8-0.2l-0.1,0l-0.1,0l-0.1,0l0.2,0.1c-2.4-0.3-4.8,0-7,1c-0.6,0.2-1.1,0.5-1.6,0.8c-0.5,0.3-1.1,0.6-1.6,0.9
			c-0.5,0.3-1,0.7-1.5,1.1c-0.6,0.6-1.3,1-2,1.4c-0.5,0.2-1,0.2-1.6,0.2c-0.4,0-0.8-0.1-1.3-0.2c-1-0.3-1.9-1-2.4-1.9
			c-0.2-0.4-0.4-0.8-0.5-1.2c-0.1-0.4-0.2-0.8-0.3-1.2c-0.3-1.4-0.3-2.9-0.2-4.4c0.1-0.8,0.2-1.5,0.5-2.2c0.2-0.8,0.6-1.5,1.1-2.2
			c0.5-0.7,1.2-1.4,2-1.8l1.7,3.1c-0.4,0.2-0.7,0.5-0.9,0.8c-0.1,0.2-0.3,0.4-0.4,0.6c-0.1,0.2-0.2,0.5-0.3,0.7
			c-0.2,0.5-0.3,1-0.4,1.6c-0.1,0.6-0.1,1.1-0.1,1.7c0,0.6,0,1.2,0.1,1.7c0,0.3,0.1,0.5,0.1,0.7c0.1,0.2,0.1,0.4,0.2,0.7
			c0.1,0.2,0.3,0.4,0.5,0.5c0.2,0.1,0.5,0.1,0.7,0.1c0.1,0,0.3,0,0.4,0c0.4-0.2,0.8-0.5,1.2-0.9c0.6-0.4,1.1-0.8,1.7-1.2
			c0.6-0.4,1.2-0.7,1.8-1.1c0.6-0.3,1.3-0.6,1.9-0.9c2.7-1.1,5.6-1.4,8.4-1l0.2,0.1l0.1,0l-0.2,0c0.4,0.1,0.8,0.2,1.2,0.3
			c0.4,0.1,0.8,0.3,1.1,0.4c0.7,0.3,1.4,0.8,2,1.3c0.6,0.5,1.1,1.1,1.6,1.8c0.4,0.7,0.8,1.4,1,2.1c0.1,0.4,0.2,0.8,0.3,1.1
			c0.1,0.4,0.1,0.8,0.1,1.2c0,0.8,0,1.6-0.2,2.4c-0.1,0.4-0.2,0.8-0.3,1.2l-0.2,0.5l-0.1,0.2l0,0.1l-0.1,0.2l-0.9,1.8l-1.7,3.7
			c-0.6,1.2-1.1,2.4-1.5,3.6c-0.2,0.6-0.3,1.2-0.4,1.8c-0.1,0.6-0.1,1.2-0.1,1.8c0,0.6,0.1,1.3,0.2,2l0,0.5c0,0.1,0,0.2,0,0.3l0.2,1
			L941.5,179.7z"/>
		<path class="st7" d="M982.6,146c0.2-1.1,0.5-2.2,0.9-3.3c0.5-1.2,1.3-2.2,2.2-3.1c1-0.8,2.2-1.4,3.5-1.6c0.6-0.1,1.2-0.2,1.8-0.2
			c0.6,0,1.1,0,1.7,0c1.1,0.1,2.2,0.2,3.2,0.5c1,0.2,2.1,0.5,3.1,0.9c2,0.7,3.9,1.7,5.7,2.8l0.7,0.4l0.3,0.2l0.1,0.1l0,0
			c-0.1,0,0.3,0-0.7-0.3c-2.2-0.2-2.5,2.7-2.1,2.5l0,0l0-0.1c-0.2-0.5-0.3-1-0.5-1.4c-0.2-0.3-0.3-0.6-0.5-1
			c-0.2-0.3-0.5-0.7-0.7-0.9l-0.4-0.4c-0.1-0.1-0.3-0.3-0.5-0.4c-0.3-0.3-0.6-0.5-1-0.7c-0.3-0.2-0.7-0.4-1.1-0.6
			c-0.4-0.2-0.8-0.4-1.2-0.5c-0.8-0.3-1.7-0.5-2.6-0.6c-0.9-0.1-1.8-0.2-2.7-0.3c-0.5,0-0.9,0-1.4,0c-0.4,0-0.9,0-1.3,0.1
			c-0.9,0.1-1.8,0.2-2.6,0.5l-0.1,0c-1,0.2-2-0.4-2.3-1.3c-0.1-0.3-0.1-0.7,0-1c0.1-0.2,0.1-0.5,0.2-0.6l0.1-0.4
			c0.1-0.3,0.2-0.5,0.2-0.8c0.1-0.5,0.2-1,0.3-1.5c0.1-0.5,0.1-1,0.1-1.5l0-0.7c0-0.2-0.1-0.5-0.1-0.7c-0.1-0.4-0.2-0.9-0.4-1.3
			c-0.2-0.4-0.4-0.8-0.7-1.2c-0.3-0.4-0.6-0.7-1-1c-0.2-0.2-0.4-0.3-0.6-0.5l-0.6-0.4l-0.3-0.2l0,0c0,0,0.3,0.1,0.1,0.1l0,0l0,0
			c0,0-0.1,0,0,0c0.1,0.1,0.3,0.1,0.4,0.1c0.2,0,0.4,0,0.6-0.1c0.4-0.2,0.7-0.5,0.8-1c0.1-0.2,0-0.5,0-0.7l-0.1-0.2l0-0.1l0,0l0,0
			l0.1,0.1c0.1,0.2,0.3,0.6,0.5,0.9c0.1,0.3,0.3,0.6,0.4,0.9c0.5,1.3,0.8,2.6,0.9,3.9c0.1,0.7,0.1,1.4,0,2.1
			c-0.1,0.7-0.1,1.3-0.2,1.9c-0.1,0.6-0.2,1.2-0.3,1.8c-0.1,0.6-0.3,1.3-0.5,1.9c-0.3,0.9-1.3,1.4-2.2,1.1c-0.5-0.2-0.9-0.5-1.1-1
			l0-0.1c-0.3-0.8-0.7-1.5-1.1-2.3c-0.4-0.8-0.9-1.5-1.4-2.2c-1-1.5-2.1-2.8-3.4-4.1c-1.3-1.2-2.7-2.3-4.2-3.3
			c-1.5-0.9-3.2-1.6-4.9-2.2l-1.3-0.4c-0.4-0.1-0.9-0.2-1.3-0.2l-1.3-0.2c-0.4-0.1-0.9-0.1-1.4-0.1c-1.8-0.2-3.7-0.2-5.5-0.2
			c-0.9,0.1-1.8,0.1-2.8,0.2c-0.9,0.1-1.8,0.2-2.7,0.3c-1.8,0.3-3.6,0.7-5.4,1.2c-0.9,0.3-1.8,0.5-2.6,0.8c-0.9,0.3-1.7,0.6-2.5,1
			c-1.7,0.7-3.3,1.6-4.8,2.6c-1.5,1-3,2.1-4.3,3.4c-1.3,1.2-2.6,2.6-3.7,4c-1.1,1.4-2.1,2.9-3,4.5c-0.9,1.6-1.6,3.2-2.1,4.9
			c-0.6,1.7-0.9,3.4-1,5.1c-0.1,0.8,0,1.7,0.1,2.5c0.1,0.7,0.3,1.4,0.7,2l-3.1,1.7c-0.9-2-1.2-4.3-0.8-6.5c0.2-2,0.7-4,1.5-5.8
			c0.7-1.8,1.6-3.6,2.6-5.3c1-1.7,2.1-3.3,3.4-4.8c1.2-1.5,2.6-2.9,4.1-4.1c1.5-1.3,3-2.4,4.7-3.5c1.6-1,3.4-1.9,5.1-2.7
			c0.9-0.4,1.8-0.7,2.7-1.1c0.9-0.4,1.8-0.6,2.8-0.9c1.9-0.5,3.7-0.9,5.7-1.2c1-0.1,1.9-0.2,2.9-0.3c1-0.1,1.9-0.1,2.9-0.1
			c1.9,0,3.9,0,5.7,0.1c0.5,0,0.9,0,1.4,0.1l1.5,0.2c0.5,0.1,1,0.1,1.5,0.2l1.4,0.3c1.9,0.5,3.8,1.1,5.6,2c1.8,0.9,3.4,2,5,3.3
			c2.3,1.9,4.2,4.2,5.8,6.8c0.5,0.9,1,1.8,1.4,2.8l-3.3,0.1c0.1-0.5,0.3-1,0.4-1.5c0.1-0.5,0.2-1.1,0.3-1.7c0.1-0.6,0.1-1.1,0.2-1.6
			c0-0.5,0-1,0-1.5c-0.1-1-0.3-2-0.7-2.9c-0.1-0.2-0.2-0.5-0.3-0.7c-0.1-0.2-0.2-0.4-0.4-0.7l-0.1-0.1c0,0,0,0,0,0l0-0.1l-0.1-0.1
			c0-0.1-0.1-0.2-0.1-0.3c-0.1-0.4-0.1-0.8-0.1-1.2c0.2-0.7,0.7-1.3,1.3-1.6c0.6-0.2,1.2-0.3,1.7,0l0.1,0l0,0l0.1,0.1l0,0l0.4,0.3
			l0.9,0.5c0.3,0.2,0.6,0.4,0.8,0.7c0.5,0.5,1,1,1.5,1.5c0.4,0.6,0.8,1.2,1.1,1.9c0.3,0.7,0.5,1.4,0.7,2.1c0.1,0.4,0.1,0.7,0.2,1.1
			l0.1,1.1c0,0.7-0.1,1.4-0.1,2c-0.1,0.7-0.2,1.3-0.4,2c-0.1,0.3-0.2,0.6-0.3,0.9l-0.2,0.7l-2.3-2.3c1.1-0.3,2.1-0.5,3.2-0.6
			c0.6-0.1,1.1-0.1,1.7-0.1c0.5,0,1,0,1.6,0c1.1,0,2.1,0.2,3.2,0.3c1.1,0.2,2.2,0.4,3.2,0.8c0.5,0.2,1.1,0.4,1.6,0.6
			c0.5,0.3,1,0.5,1.5,0.8c0.5,0.3,1,0.6,1.4,1c0.2,0.2,0.5,0.4,0.7,0.6l0.6,0.7c0.8,0.9,1.5,2,2,3.1c0.2,0.5,0.3,1,0.5,1.4l0,0.1
			l0,0c0.4-0.2,0.2,2.7-2.1,2.5c-1.1-0.3-0.7-0.3-0.8-0.3l-0.1-0.1l-0.2-0.1l-0.3-0.2l-0.6-0.4c-1.6-1-3.2-1.8-5-2.5
			c-0.9-0.3-1.7-0.6-2.6-0.8c-0.9-0.2-1.8-0.4-2.7-0.4c-0.4,0-0.9-0.1-1.3,0c-0.4,0-0.8,0-1.2,0.1c-0.7,0.1-1.3,0.4-1.9,0.9
			c-0.5,0.5-1,1-1.3,1.7c-0.3,0.8-0.6,1.6-0.7,2.5L982.6,146z"/>
		<path class="st7" d="M943.3,200.3l0,0.5c0,0,0,0.1,0,0.1c0,0.1,0.1,0.2,0.1,0.3c0.2,0.3,0.5,0.6,0.8,0.7c0.4,0.2,0.9,0.2,1.3,0
			c0.5-0.5,0.9-1.1,1-1.8c0.3-1.2,0.6-2.3,1-3.5c0.9-2.5,2.1-4.9,3.5-7.1l0.5-0.8c0.1-0.2,0.3-0.5,0.4-0.7c0.2-0.5,0.4-1,0.6-1.6
			c0.3-0.9,0.2-1.9-0.3-2.7c-0.5-0.7-1.3-1-2.2-1l-0.4,0c-0.1,0-0.2,0-0.3,0c-0.2,0-0.4,0-0.6,0.1c-0.4,0.1-0.8,0.2-1.2,0.4
			c-1.6,0.7-2.7,2.2-3,3.9l-0.1,0.4l-1.9-0.2c0,0,0-0.2,0.1-0.5c0.1-0.5,0.2-1,0.4-1.5c0.3-0.7,0.7-1.4,1.2-2c1-1.3,2.5-2.1,4-2.5
			c0.3-0.1,0.6-0.1,0.9-0.1c0.2,0,0.4,0,0.5,0l0.4,0c0.3,0,0.7,0.1,1,0.1c0.4,0.1,0.7,0.2,1,0.3c0.7,0.3,1.4,0.8,1.9,1.5
			c0.9,1.3,1.1,3,0.7,4.5c-0.1,0.7-0.4,1.4-0.7,2.1c-0.1,0.3-0.3,0.7-0.5,1l-0.5,0.9c-1.3,2.1-2.3,4.3-3.1,6.6
			c-0.4,1-0.5,2.1-0.8,3.3c-0.2,0.6-0.4,1.2-0.7,1.8l-0.1,0.2c-0.1,0.1-0.1,0.2-0.2,0.3l-0.3,0.5c-0.3,0.3-0.5,0.5-0.9,0.7
			c-0.6,0.4-1.3,0.6-2,0.6c-0.6,0-1.2-0.1-1.8-0.3c-1.3-0.5-2.4-1.5-2.8-2.9c-0.1-0.3-0.1-0.6-0.2-1l0-0.5L943.3,200.3z"/>
		<path class="st7" d="M946.4,177.7c0,0,0.1,0,0.2-0.1c0.1-0.1,0.4-0.2,0.7-0.3c0.9-0.3,1.9-0.5,2.9-0.6c0.7,0,1.4,0,2.1,0.2
			c0.8,0.2,1.6,0.5,2.3,0.9c1.8,1,3.2,2.5,4,4.3c0.5,1.1,0.7,2.2,0.7,3.4c-0.1,1.2-0.3,2.4-0.7,3.5c-0.4,1.1-0.9,2.2-1.3,3.2
			c-0.4,1.1-0.9,2.1-1.4,3.2c-1.8,4.4-3.6,9.2-5.5,13.9c-1,2.3-1.8,4.6-2.3,7c-0.5,2.2-0.6,4.5-0.2,6.7c0.3,1.9,1.3,3.5,2.9,4.5
			c0.7,0.3,1.5,0.4,2.2,0.2c0.9-0.2,1.8-0.5,2.6-0.8c0.5-0.2,0.9-0.3,1.4-0.5c0.4-0.1,0.9-0.3,1.3-0.4c0.9-0.2,1.7-0.5,2.5-0.7
			c1.3-0.3,2.7-0.6,4.1-0.8c0.9-0.1,1.8-0.2,2.7-0.2c0.3,0,0.7,0,1,0.1l-0.1,2c-0.3,0-0.5,0-0.8,0.1c-0.8,0.1-1.6,0.2-2.4,0.4
			c-1,0.2-2.3,0.6-3.8,1c-0.7,0.2-1.5,0.5-2.3,0.8c-0.4,0.1-0.8,0.3-1.3,0.4l-1.3,0.5c-1,0.4-2,0.8-3.1,1c-1.4,0.3-2.8,0.1-4-0.4
			c-1.3-0.6-2.3-1.6-3.1-2.8c-0.4-0.6-0.7-1.2-0.9-1.8c-0.1-0.3-0.2-0.6-0.3-1l-0.1-0.4c-0.1-0.2-0.1-0.3-0.1-0.5
			c-0.5-2.6-0.4-5.3,0.2-7.9c0.6-2.6,1.5-5,2.5-7.4c1.9-4.7,3.8-9.5,5.8-13.9c0.5-1.1,1-2.2,1.4-3.2c0.5-1.1,1-2.1,1.3-3
			c0.7-1.6,0.8-3.5,0.2-5.2c-0.6-1.4-1.6-2.6-2.9-3.4c-0.5-0.3-1.1-0.6-1.7-0.7c-0.5-0.1-1.1-0.2-1.6-0.2c-0.8,0-1.5,0.1-2.2,0.4
			c-0.3,0.1-0.4,0.2-0.6,0.2l-0.2,0.1L946.4,177.7z"/>
		<path class="st7" d="M919.9,193.9c-0.1,0.2-0.2,0.4-0.3,0.7c-0.1,0.3-0.1,0.6-0.2,0.8l0,0.3l0,0.2l0,0.1l0,0.1
			c0,0.2-0.1,0.5-0.2,0.7c-0.4,1.3-1.4,2.3-2.6,2.8c-0.8,0.3-1.6,0.4-2.4,0.3c-0.4-0.1-0.8-0.2-1.2-0.4c-0.3-0.2-0.7-0.3-1-0.5
			c-1.3-0.6-2.8-1.4-4.3-2.2c-0.8-0.4-1.5-0.9-2.3-1.4c-0.3-0.2-0.4-0.3-0.6-0.5c-0.2-0.2-0.4-0.4-0.6-0.7c-0.4-0.4-0.6-0.9-0.9-1.4
			c-0.9-2.2-0.5-4.7,1-6.6c0.7-0.8,1.4-1.4,2-2.2c0.6-0.7,1.3-1.5,1.9-2.2c1.3-1.5,2.5-3,3.6-4.5c1.2-1.5,2.3-3,3.3-4.5
			c1.1-1.5,2-2.9,3-4.3c0.9-1.4,1.7-2.7,2.5-4c0.7-1.3,1.4-2.4,1.9-3.4c0.5-1,0.9-2,1.3-2.7c0.3-0.8,0.5-1.4,0.7-1.8
			c0.2-0.4,0.2-0.6,0.2-0.6l3.3,1.2l-0.3,0.7c-0.2,0.4-0.4,1.1-0.8,1.9c-0.4,0.8-0.8,1.8-1.4,2.9c-0.6,1.1-1.3,2.3-2.1,3.6
			c-0.8,1.3-1.7,2.6-2.6,4c-1,1.4-2,2.9-3.1,4.4c-1.1,1.5-2.3,3-3.5,4.5c-1.2,1.5-2.5,3-3.8,4.5c-0.7,0.7-1.3,1.5-2,2.2
			c-0.7,0.7-1.4,1.5-2,2.1c-1,1.1-1.3,2.7-0.7,4.1c0.1,0.3,0.3,0.6,0.5,0.9c0.1,0.1,0.2,0.2,0.3,0.4c0.1,0.1,0.4,0.3,0.4,0.4
			c0.7,0.5,1.4,0.9,2.1,1.4c1.4,0.8,2.8,1.6,4.1,2.2c0.3,0.2,0.6,0.3,1,0.5c0.2,0.1,0.5,0.2,0.7,0.3c0.4,0.1,0.9,0,1.3-0.1
			c0.7-0.3,1.2-0.9,1.5-1.6c0.1-0.1,0.1-0.3,0.1-0.5l0-0.1l0-0.1l0,0c0,0,0,0.2,0,0.1l0,0l0,0l0-0.3c0-0.3,0-0.6-0.1-0.9
			c0-0.2-0.1-0.5-0.2-0.7L919.9,193.9z"/>
		<path class="st7" d="M958.4,222.9c0,0,0.1,0,0.4-0.1c0.3-0.1,0.7-0.2,1.2-0.2c1.6-0.2,3.2-0.2,4.8,0c1.1,0.2,2.2,0.4,3.3,0.7
			c0.6,0.2,1.2,0.3,1.8,0.5c0.3,0.1,0.7,0.2,1,0.4l0.6,0.3l0.5,0.3c2.7,1.5,4.6,4.1,7.3,4.5c0.5,0,1,0,1.5-0.3
			c0.6-0.3,1-0.7,1.4-1.3c1-1.4,1.7-3,2.3-4.6c1.5-4,3.9-7.6,6.9-10.6c1.7-1.6,3.6-2.9,5.7-3.8l1.5-0.6l0.7-0.3l0.6-0.3
			c0.9-0.5,1.7-1,2.5-1.6c3.2-2.7,6-6,8.2-9.6l0.4-0.7l0.2-0.3l0.2-0.4l0.8-1.5c0.2-0.5,0.4-0.9,0.7-1.4c0.2-0.5,0.4-1,0.6-1.4
			c0.8-2,1.4-4,1.8-6c0.8-4,0.9-8.2,0.2-12.2c-0.6-3.8-1.9-7.5-3.7-10.9c-1.6-3-3.7-5.8-6.1-8.3c-2.1-2.1-4.4-3.9-6.9-5.4
			c-1.9-1.2-4-2.1-6.1-2.8c-0.4-0.1-0.9-0.3-1.3-0.4c-0.4-0.1-0.8-0.2-1.1-0.3c-0.6-0.2-1.2-0.3-1.8-0.4c-1-0.2-1.5-0.2-1.5-0.2
			l0.6-3.5c0,0,0.6,0.1,1.6,0.4c0.5,0.1,1.2,0.3,1.9,0.6c0.4,0.1,0.8,0.2,1.2,0.4c0.4,0.2,0.9,0.3,1.4,0.5c2.3,0.8,4.5,1.9,6.6,3.2
			c2.7,1.6,5.2,3.6,7.5,5.8c2.6,2.7,4.9,5.7,6.7,9c2,3.7,3.4,7.7,4.1,11.8c0.8,4.4,0.8,9-0.1,13.4c-0.4,2.3-1,4.5-1.9,6.7
			c-0.2,0.6-0.4,1.1-0.7,1.6c-0.2,0.5-0.5,1.1-0.7,1.6l-0.8,1.5l-0.2,0.4l-0.2,0.4l-0.4,0.7c-1.2,2-2.5,3.9-4,5.6
			c-1.5,1.8-3.1,3.4-5,4.9c-0.9,0.7-1.9,1.4-3,2l-0.8,0.4l-0.7,0.3l-1.5,0.6c-1.8,0.8-3.4,1.9-4.8,3.2c-2.7,2.6-4.8,5.8-6.2,9.4
			c-0.7,1.9-1.6,3.6-2.8,5.3c-0.7,0.9-1.6,1.6-2.6,2.1c-1.1,0.5-2.3,0.6-3.5,0.4c-0.2,0-0.4-0.1-0.6-0.2l-0.4-0.1l-0.3-0.1
			c-0.4-0.2-0.9-0.4-1.3-0.6c-0.7-0.4-1.4-0.9-2.1-1.5c-1-0.9-2.1-1.8-3.2-2.6c-1-0.6-2.1-1-3.2-1.3c-1-0.3-2-0.6-3-0.8
			c-1.4-0.3-2.8-0.4-4.2-0.2c-0.5,0-0.8,0.1-1.1,0.1l-0.4,0.1L958.4,222.9z"/>
		<path class="st7" d="M920.6,164.9c0,0,0.2-0.1,0.5-0.3c0.2-0.1,0.4-0.2,0.6-0.3c0.3-0.1,0.6-0.2,1-0.3c0.4-0.1,0.8-0.2,1.3-0.2
			c0.5,0,0.9-0.1,1.4,0c0.5,0,1,0.1,1.5,0.2c0.5,0.1,1,0.3,1.5,0.5l0.7,0.3l0.7,0.4c0.4,0.3,0.8,0.5,1.2,0.9c0.3,0.3,0.7,0.6,1,1
			c0.3,0.3,0.5,0.6,0.7,1c0.3,0.5,0.6,1,0.8,1.6c0.1,0.2,0.1,0.4,0.2,0.5l0.1,0.2l-3.1,1.6c0,0-0.1,0-0.1,0c-0.1,0-0.2-0.1-0.3-0.2
			c-0.2-0.2-0.6-0.5-1-0.8c-0.2-0.2-0.4-0.3-0.6-0.5c-0.2-0.2-0.5-0.3-0.7-0.5c-0.3-0.1-0.5-0.3-0.8-0.4c-0.1-0.1-0.3-0.1-0.4-0.2
			c-0.1-0.1-0.3-0.1-0.4-0.2c-0.3-0.1-0.5-0.2-0.8-0.3c-0.3-0.1-0.6-0.1-0.8-0.2c-0.3-0.1-0.6-0.1-0.8-0.2c-0.3-0.1-0.5-0.1-0.7-0.1
			c-0.2,0-0.5-0.1-0.7-0.1c-0.3,0-0.5,0-0.7,0c-0.4,0-0.6,0-0.6,0L920.6,164.9z"/>
		<path class="st7" d="M937.4,228.2c0,0,0.1,0.4,0.3,1.1c0.2,0.7,0.4,1.7,0.7,2.9c0.3,1.4,0.4,2.8,0.5,4.2c0,0.4,0,0.8,0,1.2l0,0.2
			l0,0.1l0,0.3c0,0.2,0,0.4,0,0.7c-0.1,0.9-0.2,1.7-0.3,2.5c-0.5,3.2-1.1,6.4-1.6,8.8c-0.5,2.4-0.8,4-0.8,4l-3.4-0.8
			c0,0,0.4-1.5,1-3.8c0.6-2.3,1.3-5.4,1.9-8.5c0.1-0.8,0.3-1.6,0.4-2.2c0-0.2,0.1-0.3,0.1-0.5l0-0.3l0-0.1c0,0,0-0.1,0-0.1l0-1.1
			c0-1.3-0.1-2.6-0.3-3.9c-0.2-1.1-0.4-2.1-0.5-2.7c-0.2-0.7-0.3-1-0.3-1L937.4,228.2z"/>
		<path class="st7" d="M917.4,199.3c-0.1,0.2-0.3,0.4-0.4,0.7l-0.4,0.8c-0.2,0.5-0.5,1-0.7,1.6c-0.4,1.1-0.8,2.2-1,3.3l-0.4-1.1
			c0.2,0.1,0.4,0.3,0.6,0.4c0.2,0.1,0.4,0.3,0.6,0.4c0.4,0.3,0.8,0.5,1.3,0.8c0.9,0.5,1.8,0.9,2.7,1.3l1.6,0.7l-1.3,1.3
			c-0.4,0.4-0.9,0.8-1.4,1.2c-0.5,0.4-1.1,0.7-1.7,0.9c-0.9,0.4-1.8,0.6-2.8,0.7c-0.2,0-0.3,0-0.5,0c-0.2,0-0.4,0-0.6,0l1.5-1.2
			c-0.2,1.6-0.3,3.2-0.3,4.8c0,1.5,0.3,3,0.8,4.5c0.5,1.3,1.3,2.5,2.4,3.4c1.2,0.9,2.5,1.5,3.9,1.8c0.8,0.2,1.5,0.3,2.3,0.3l2.5,0.2
			l2.6,0.2l2.5,0.3l10,0.8l-0.3,3.5l-10.1-1l-2.5-0.3l-2.5-0.3l-2.5-0.3c-0.9-0.1-1.8-0.3-2.7-0.5c-1.9-0.4-3.6-1.3-5.1-2.5
			c-1.5-1.3-2.7-2.9-3.3-4.8c-0.6-1.8-0.9-3.6-0.9-5.4c0-1.8,0.1-3.5,0.4-5.3l0.2-1.2l1.3,0.1c0,0,0.2,0,0.3,0l0.3,0
			c0.7,0,1.4-0.2,2-0.4c0.4-0.2,0.9-0.4,1.3-0.6c0.4-0.2,0.8-0.5,1.2-0.8l0.3,1.9c-1-0.5-1.9-1-2.8-1.5l-1.4-0.8l-0.7-0.4
			c-0.2-0.2-0.4-0.3-0.7-0.5l-0.5-0.4l0.1-0.7l0.7-3.5l0.3-1.8l0.2-0.9c0.1-0.3,0.1-0.6,0.2-0.9L917.4,199.3z"/>
		<path class="st7" d="M882.4,481l0.2,11.8c0.1,3.9,0.2,7.9,0.6,11.7c0.1,0.9,0.2,1.8,0.5,2.7c0,0.1,0.1,0.1,0,0.1
			c0,0-0.1-0.1-0.1-0.1c0,0-0.1-0.1-0.1-0.1l-0.1,0c0.2,0-0.3-0.1-0.2,0l0,0l0,0c-0.1,0-0.2,0-0.3,0c-0.1,0-0.2,0.1-0.3,0.2
			c-0.1,0.1-0.1,0.1,0,0c0-0.1,0.1-0.1,0.1-0.2c0.1-0.4,0.3-0.9,0.3-1.3c0.4-1.9,0.6-3.8,0.9-5.8c0.4-3.9,0.8-7.8,1.1-11.7l1.8,0.1
			v0c0.1,4.1,0.2,8.1,0.4,12.2c0.1,2,0.2,4,0.4,6.1c0.1,1,0.2,2,0.3,3c0.1,0.5,0.1,1,0.3,1.4c0,0.2,0.1,0.4,0.2,0.6
			c0,0.1,0.1,0.1,0,0.1c0,0,0-0.1-0.1-0.1c-0.1-0.1-0.1-0.1-0.2-0.1l0,0c-0.4-0.1-0.1,0-0.2-0.1l0,0l0,0c-0.2,0-0.3,0-0.5,0
			c-0.3,0.2-0.2,0.2-0.2,0.2c0,0,0.1-0.1,0.1-0.2c0.1-0.2,0.2-0.4,0.2-0.6c0.1-0.4,0.3-0.9,0.4-1.4c0.2-1,0.4-1.9,0.6-2.9
			c0.3-2,0.6-4,0.8-6c0.5-4,0.9-8.1,1.4-12.1l1.5,0v0l0.4,5.5c0.1,1.8,0.2,3.7,0.4,5.5c0.2,1.8,0.3,3.7,0.5,5.5
			c0.1,0.9,0.2,1.8,0.4,2.6c0.1,0.4,0.2,0.8,0.3,1.2c0,0.1,0.1,0.3,0.2,0.4c0,0,0,0-0.1-0.1c0,0-0.1-0.1-0.2-0.1c0,0-0.1,0-0.1,0
			c0,0-0.4-0.1-0.2,0l0,0l0,0c0,0,0.2,0-0.1,0c-0.1,0-0.3,0-0.4,0.1c-0.1,0-0.2,0.1-0.3,0.2c0,0,0-0.1,0.1-0.1
			c0.1-0.1,0.2-0.3,0.2-0.5c0.1-0.4,0.3-0.8,0.4-1.2c0.2-0.8,0.4-1.7,0.6-2.6c0.4-1.8,0.7-3.6,1-5.4c0.3-1.8,0.6-3.6,0.8-5.5
			l0.8-5.5l1.5,0.1c0.2,3.2,0.5,6.5,0.8,9.7c0.2,1.6,0.4,3.2,0.7,4.8c0.1,0.8,0.3,1.5,0.5,2.3c0.1,0.3,0.2,0.6,0.3,0.9
			c-0.2-0.3-0.6-0.3-0.9-0.1s-0.3,0.6-0.1,0.9s0.6,0.3,0.9,0.1c0.2-0.2,0.3-0.5,0.2-0.8c-0.1-0.1-0.2-0.2-0.4-0.2
			c-0.3-0.1,0.1,0-0.1,0c-0.1,0-0.1,0-0.2,0c0,0-0.1,0-0.1,0c-0.1,0-0.2,0.1-0.3,0.1c0.1-0.1,0.1-0.2,0.1-0.2
			c0.1-0.3,0.3-0.6,0.4-0.9c0.2-0.7,0.4-1.5,0.6-2.2c0.3-1.5,0.5-3.1,0.7-4.7c0.4-3.2,0.6-6.4,0.9-9.7l0-0.2
			c-0.3,1.3-1.6,2.2-2.9,1.9c-1.3-0.3-2.2-1.6-1.9-2.9s1.6-2.2,2.9-1.9c1.2,0.3,2.1,1.4,2,2.7l0,0.5c0-0.6,0-1.1,0-1.6l0-1.6
			l-0.1-3.1c-0.1-2.1-0.1-4.2-0.1-6.3l0-0.8l0-0.7c0-0.5-0.1-1-0.1-1.5c-0.1-1-0.3-2-0.5-3c-0.4-2-0.8-3.9-1.4-5.9l3.3-1.1
			c0.7,2.1,1.3,4.2,1.7,6.3c0.2,1.1,0.4,2.1,0.5,3.2c0.1,0.5,0.1,1.1,0.2,1.7l0,0.9l0,0.8c0,2.1,0.1,4.2,0.1,6.3l0,3.2l0,1.6
			c0,0.5,0,1.1,0,1.5l0,0.5c0-0.3,0-0.1,0,0.1l0-0.2c-0.3,3.3-0.7,6.5-1.3,9.8c-0.3,1.6-0.6,3.3-1,4.9c-0.2,0.9-0.5,1.7-0.8,2.5
			c-0.2,0.5-0.4,0.9-0.6,1.3c-0.2,0.3-0.3,0.5-0.6,0.8c-0.3,0.4-0.8,0.6-1.3,0.7c-0.1,0-0.2,0-0.2,0c-0.1,0-0.2,0-0.3,0
			c-0.1,0-0.3,0-0.4-0.1c-0.3-0.1-0.6-0.3-0.9-0.5c-0.3-0.3-0.5-0.6-0.6-0.9c-0.2-0.5-0.3-0.9-0.5-1.4c-0.2-0.8-0.3-1.7-0.4-2.6
			c-0.2-1.7-0.3-3.3-0.4-5c-0.1-3.3-0.2-6.6-0.1-9.9l1.5,0.1c-0.1,3.7-0.4,7.4-0.9,11.1c-0.2,1.9-0.5,3.7-0.8,5.5
			c-0.2,0.9-0.4,1.9-0.6,2.8c-0.1,0.5-0.3,1-0.5,1.4c-0.1,0.3-0.2,0.5-0.4,0.8c-0.1,0.2-0.2,0.3-0.3,0.5c-0.2,0.3-0.5,0.5-0.8,0.6
			c-0.2,0.1-0.4,0.1-0.6,0.1c-0.1,0-0.2,0-0.2,0l0,0l0,0c0.2,0-0.2-0.1-0.2-0.1c-0.1,0-0.1,0-0.2-0.1c-0.1-0.1-0.2-0.1-0.3-0.2
			c-0.2-0.2-0.4-0.4-0.5-0.6c-0.2-0.3-0.3-0.6-0.4-0.9c-0.1-0.5-0.3-1-0.4-1.5c-0.2-1-0.3-1.9-0.4-2.8c-0.2-1.9-0.3-3.7-0.4-5.6
			c-0.1-3.7-0.1-7.4,0-11.1l0,0l1.5,0c-0.2,4.1-0.5,8.1-0.9,12.2c-0.2,2-0.4,4.1-0.7,6.1c-0.2,1-0.3,2-0.5,3.1
			c-0.1,0.5-0.2,1-0.4,1.6c-0.1,0.3-0.2,0.6-0.3,0.8c-0.1,0.2-0.2,0.3-0.3,0.5c-0.2,0.3-0.5,0.5-0.8,0.7c-0.2,0.1-0.4,0.1-0.7,0.1
			l0,0l0,0l-0.2-0.1l-0.1,0c-0.1-0.1-0.2-0.1-0.4-0.2c-0.1-0.1-0.1-0.1-0.2-0.2c-0.1-0.2-0.2-0.4-0.3-0.6c-0.1-0.3-0.2-0.6-0.3-0.9
			c-0.1-0.6-0.2-1.1-0.3-1.6c-0.1-1-0.2-2.1-0.3-3.1c-0.2-2.1-0.3-4.1-0.3-6.1c-0.1-4.1-0.2-8.2-0.1-12.3l1.8,0.1
			c-0.2,3.9-0.5,7.9-1,11.8c-0.2,2-0.5,3.9-0.9,5.9c-0.1,0.5-0.2,1-0.4,1.6c-0.1,0.2-0.1,0.3-0.2,0.4c-0.1,0.2-0.3,0.5-0.5,0.6
			c-0.1,0.1-0.3,0.2-0.5,0.2c-0.1,0-0.3,0-0.4,0l0,0l0,0c-0.1,0-0.2,0-0.2-0.1l-0.1-0.1c-0.1,0-0.1-0.1-0.2-0.1
			c-0.1-0.1-0.2-0.1-0.2-0.2c-0.1-0.2-0.2-0.4-0.3-0.6c-0.2-0.5-0.3-1.1-0.4-1.6c-0.1-0.5-0.1-1-0.2-1.5c-0.4-4-0.5-7.9-0.5-11.9
			l0-3c0-1,0-2,0-3l0.2-5.9L882.4,481z"/>
		<path class="st7" d="M885.4,462.7c-1.2,2.1-2.5,4.2-3.7,6.3c-0.6,1-1.2,2.1-1.7,3.1c-0.3,0.5-0.5,1.1-0.7,1.6
			c-0.1,0.3-0.2,0.5-0.3,0.8c-0.1,0.2-0.1,0.5-0.2,0.7l0-0.3c0.1,1.7,0.1,3.4,0.1,5c0,1.7,0,3.4-0.1,5c-0.1,1.7-0.2,3.4-0.4,5
			c-0.1,0.8-0.2,1.7-0.3,2.5c-0.1,0.8-0.3,1.7-0.4,2.5l-0.6-1.2l0,0c0.7,0.4,1.4,0.5,2.2,0.5c0.8-0.1,1.6-0.4,2.2-0.8l1.1,1.1
			c-0.8,0.8-1.8,1.3-3,1.6c-1.2,0.3-2.4,0.1-3.5-0.3l0,0c-0.4-0.2-0.7-0.6-0.6-1.1l0-0.1c0.1-0.8,0.2-1.6,0.3-2.4
			c0.1-0.8,0.2-1.6,0.2-2.4c0.1-1.6,0.2-3.3,0.2-4.9c0-1.6,0.1-3.3,0-4.9c0-1.6-0.1-3.3-0.2-4.9l0-0.1c0-0.1,0-0.1,0-0.2
			c0.1-0.7,0.3-1.4,0.6-2c0.2-0.6,0.5-1.2,0.8-1.8c0.6-1.1,1.2-2.2,1.8-3.3c0.6-1.1,1.3-2.1,2-3.1l2.1-3L885.4,462.7z"/>
		<path class="st7" d="M991.5,101.9c0,0,0.9,0.5,2.6,1.6c0.8,0.5,1.9,1.1,3.1,2c0.6,0.4,1.2,0.9,1.9,1.3c0.3,0.2,0.7,0.5,1.1,0.7
			c0.3,0.3,0.7,0.5,1.1,0.8c1.5,1.1,3.1,2.4,4.8,3.9c0.8,0.7,1.7,1.5,2.6,2.3c0.9,0.8,1.8,1.7,2.7,2.6c4.1,4.1,7.9,8.6,11.2,13.3
			c3.9,5.7,7.2,11.8,9.6,18.2c2.8,7.3,4.2,15,4.2,22.7c-0.1,4-0.4,8.1-1.1,12.1c-0.7,4.1-1.7,8.1-3.1,12.1
			c-2.8,8-6.7,15.5-11.8,22.4c-10,13.5-24.1,23.5-40.1,28.4c-7.4,2.2-15.1,3.4-22.8,3.4c-1.8-0.1-3.5,0-5.4-0.2
			c-0.9-0.1-1.8-0.1-2.7-0.2c-0.9-0.1-1.7-0.2-2.6-0.3c-1.7-0.2-3.4-0.6-5-0.9c-1.6-0.4-3.2-0.7-4.8-1.1c-10-2.7-19.3-7.4-27.5-13.8
			c-2.3-1.8-4.4-3.7-6.5-5.7c-1.4-1.4-2.2-2.2-2.2-2.2l2.6-2.4c0,0,0.7,0.7,2.1,2.1c1.4,1.3,3.4,3.2,6.2,5.4c3.4,2.6,7,5,10.8,7
			c4.9,2.6,10.1,4.7,15.5,6.2c1.5,0.4,3,0.8,4.5,1.1c1.6,0.3,3.1,0.6,4.8,0.8c0.8,0.1,1.6,0.2,2.5,0.3c0.8,0.1,1.7,0.1,2.5,0.2
			c1.6,0.2,3.5,0.2,5.2,0.2c7.4,0.1,14.7-0.9,21.8-3c3.7-1.1,7.4-2.5,10.9-4.1c3.6-1.7,7.1-3.7,10.4-5.9
			c6.8-4.6,12.7-10.3,17.6-16.8c4.9-6.5,8.6-13.9,11.1-21.7c1.2-3.8,2.1-7.7,2.6-11.7c0.6-3.9,0.8-7.8,0.8-11.7
			c-0.1-7.3-1.4-14.6-4.1-21.4c-2.3-6.2-5.4-12-9.2-17.4c-3.2-4.6-6.8-8.8-10.8-12.8c-0.9-0.9-1.8-1.7-2.6-2.5
			c-0.9-0.8-1.7-1.5-2.5-2.2c-1.6-1.5-3.2-2.6-4.6-3.8c-0.4-0.3-0.7-0.5-1-0.8c-0.3-0.2-0.7-0.5-1-0.7c-0.6-0.5-1.3-0.9-1.8-1.3
			c-1.1-0.8-2.1-1.4-3-2c-1.7-1-2.5-1.6-2.5-1.6L991.5,101.9z"/>
		<path class="st7" d="M898.6,223.6c0,0-0.5-0.6-1.5-1.8c-0.5-0.6-1.1-1.3-1.8-2.3c-0.4-0.5-0.7-1-1.1-1.5c-0.4-0.5-0.8-1.1-1.2-1.7
			c-0.9-1.2-1.7-2.6-2.7-4.1c-0.9-1.5-1.9-3.2-2.8-5c-2.1-4.1-3.8-8.3-5.1-12.7c-1.6-5.2-2.6-10.5-3.1-15.9
			c-0.3-2.9-0.4-5.9-0.3-8.9c0-0.7,0-1.5,0.1-2.2c0-0.7,0.1-1.5,0.2-2.3c0.1-0.8,0.1-1.6,0.2-2.3c0.1-0.8,0.2-1.5,0.3-2.3
			c1.7-13.1,6.7-25.5,14.5-36.2c3.9-5.4,8.5-10.2,13.7-14.5c5-4.1,10.5-7.5,16.3-10.3c5.5-2.5,11.2-4.4,17.1-5.7
			c5.3-1.1,10.7-1.6,16.1-1.6c4.6-0.1,9.1,0.3,13.6,1.1c3.5,0.7,6.9,1.7,10.2,3.1c2.1,0.9,4.1,1.9,6.1,3c1.4,0.8,2.1,1.2,2.1,1.2
			l-1.8,3c0,0-0.7-0.4-2-1.1c-1.9-1-3.8-1.9-5.8-2.7c-3.1-1.3-6.2-2.2-9.5-2.8c-4.3-0.7-8.6-1-13-0.9c-5.1,0-10.2,0.5-15.3,1.6
			c-5.6,1.2-11,3-16.2,5.5c-5.5,2.6-10.7,5.9-15.4,9.8c-9.7,8.1-17.3,18.5-21.8,30.4c-2.2,5.7-3.7,11.6-4.5,17.7
			c-0.1,0.7-0.2,1.5-0.3,2.2c-0.1,0.7-0.1,1.4-0.2,2.2c0,0.7-0.1,1.4-0.1,2.2c0,0.7,0,1.5,0,2.2c0,2.8,0.1,5.6,0.3,8.3
			c0.5,5.1,1.5,10.1,3,15c1.3,4.1,2.9,8.1,4.9,11.9c0.9,1.7,1.8,3.3,2.6,4.7c0.9,1.4,1.7,2.7,2.5,3.8c0.4,0.6,0.8,1.1,1.1,1.6
			c0.4,0.5,0.7,0.9,1,1.3c0.6,0.8,1.2,1.5,1.7,2.1c1,1.2,1.5,1.8,1.5,1.8L898.6,223.6z"/>
		<path class="st7" d="M1032.7,434.5c-0.6,5.7-1.1,11.4-2.1,17.2v0l-0.2,0.9l-0.8,0.3c-0.4,0.2-0.7,0.3-1,0.5
			c-0.3,0.2-0.7,0.4-1,0.7c-0.6,0.5-1.2,1.1-1.7,1.7c-0.5,0.7-0.9,1.4-1.1,2.1c-0.1,0.4-0.3,0.8-0.3,1.2c-0.1,0.4-0.1,0.8-0.2,1.2v0
			l-0.1,1l-0.9,0.1c-5.4,0.4-10.9,0.7-16.3,1l-0.1-3c5.4,0,10.8,0,16.3-0.1l-1,1.1v0c0-0.5,0-1,0-1.6c0-0.5,0.1-1,0.2-1.6
			c0.2-1,0.6-2,1.1-3c0.5-0.9,1.2-1.8,1.9-2.6c0.4-0.4,0.8-0.7,1.2-1.1c0.4-0.3,0.9-0.6,1.4-0.9l-0.9,1.2v0
			c1.3-5.5,2.2-11.1,3.2-16.8L1032.7,434.5z"/>
		<path class="st9" d="M989,254.8c13.5,8.2,46.3,28.1,46.3,28.1s5,89.1-2.7,147"/>
		<path class="st9" d="M986.4,253.2c0.8,0.5,1.6,1,2.6,1.6"/>
		<path class="st7" d="M907,438.5c0,0-0.1-2-0.1-5.4c-0.1-3.4-0.2-8.4-0.3-14.3c-0.1-5.9-0.2-12.8-0.3-20.2
			c-0.1-7.4-0.1-15.3-0.2-23.2c0-7.9-0.1-15.8-0.1-23.2c0-7.4,0-14.3,0-20.2c0-11.8,0.1-19.7,0.1-19.7l1.7,0l0.4,19.7
			c0.1,5.9,0.2,12.8,0.3,20.2c0.1,7.4,0.2,15.3,0.3,23.2c0.1,7.9,0.2,15.8,0.2,23.2c0,7.4,0.1,14.3,0.1,20.2c0,5.9,0,10.8,0,14.3
			c0,3.4-0.1,5.4-0.1,5.4L907,438.5z"/>
		<path class="st7" d="M981,470.8c-1.5,0.2-3.1,0.4-4.6,0.5c-1.5,0.2-3.1,0.3-4.6,0.4c-3.1,0.3-6.2,0.5-9.3,0.6
			c-3.1,0.2-6.2,0.2-9.3,0.3c-1.6,0-3.1,0-4.7,0c-1.6,0-3.1-0.1-4.7-0.1c-3.1-0.1-6.2-0.3-9.3-0.5l-4.7-0.4l-4.7-0.6
			c-1.5-0.2-3.1-0.4-4.6-0.7c-1.5-0.3-3.1-0.5-4.6-0.9c-1.5-0.3-3.1-0.6-4.6-1c-1.5-0.4-3-0.8-4.6-1.3l-1.4-0.4l0.2-1.6l0,0
			c0.2-1.3,0.2-2.6-0.1-3.8c-0.3-1.3-0.8-2.6-1.5-3.7l3.1-1.7c0.8,1.5,1.5,3,1.9,4.7c0.4,1.7,0.4,3.5,0.1,5.2l0,0l-1.2-2
			c1.4,0.5,2.9,0.9,4.4,1.3c1.5,0.4,3,0.7,4.4,1.1c1.5,0.4,3,0.6,4.5,1c1.5,0.3,3,0.5,4.5,0.8l4.5,0.6l4.6,0.5
			c3.1,0.3,6.1,0.5,9.2,0.7c1.5,0.1,3.1,0.2,4.6,0.2c1.5,0,3.1,0.1,4.6,0.1c3.1,0,6.2,0,9.2-0.1c3.1-0.1,6.2-0.2,9.2-0.4
			c1.5-0.1,3.1-0.2,4.6-0.3c1.5-0.1,3.1-0.3,4.6-0.4L981,470.8z"/>
		<path class="st7" d="M1026.5,320.2l-6.4,128.7l-0.1,1.3l-1.5,0.4c-0.3,0.1-0.6,0.1-0.8,0.3c-0.3,0.1-0.7,0.3-1,0.4
			c-0.3,0.2-0.6,0.4-1,0.6l-1,0.7l-0.9,0.7l-0.9,0.8l-0.8,0.8c-0.3,0.3-0.5,0.6-0.8,0.9c-0.3,0.3-0.5,0.6-0.7,0.9
			c-0.2,0.3-0.4,0.6-0.6,1c-0.4,0.6-0.7,1.3-1,2c-0.1,0.3-0.3,0.7-0.3,1c-0.1,0.3-0.2,0.7-0.2,1c0,0.3-0.1,0.7-0.1,1l0.1,1v0
			l0.1,1.4l-1.1,0.4c-1.9,0.7-3.9,1.3-5.9,1.8c-2,0.5-3.9,0.9-5.9,1.3c-3.9,0.7-7.9,1.3-11.9,1.7l-0.3-2.2c3.9-0.7,7.8-1.4,11.6-2.3
			c1.9-0.5,3.8-1,5.6-1.6c1.8-0.6,3.6-1.2,5.4-2l-1.1,1.9l0,0l-0.1-1.5c0-0.5,0.1-1,0.1-1.5c0.1-0.5,0.2-1,0.3-1.5
			c0.1-0.5,0.3-0.9,0.5-1.4c0.2-0.5,0.4-0.9,0.6-1.3c0.2-0.4,0.4-0.9,0.7-1.3c0.2-0.4,0.5-0.8,0.8-1.2c0.3-0.4,0.5-0.8,0.8-1.1
			c0.3-0.4,0.6-0.7,0.9-1.1l1-1l1-0.9l1.1-0.9l1.2-0.8c0.4-0.2,0.8-0.5,1.2-0.7c0.4-0.2,0.9-0.4,1.4-0.6c0.5-0.2,1.1-0.4,1.6-0.5
			l-1.5,1.7L1023,320L1026.5,320.2z"/>
		<path class="st7" d="M879.8,462.2c0.1-0.3,0.1-0.4,0.1-0.7c0-0.2,0.1-0.4,0.1-0.6c0-0.4,0-0.9,0-1.3l-0.1-0.7
			c0-0.3-0.1-0.4-0.1-0.6c-0.1-0.4-0.2-0.8-0.3-1.2c-0.5-1.6-1.4-3-2.7-4.1l-0.4-0.4l-0.1-0.5l-0.9-5.2l-0.7-5.2
			c-0.4-3.5-0.7-6.9-1-10.4c-0.1-1.7-0.2-3.5-0.3-5.2c-0.1-1.7-0.2-3.5-0.3-5.2c-0.1-3.5-0.3-6.9-0.3-10.4
			c-0.1-3.5-0.1-6.9-0.1-10.4c0-3.5,0-6.9,0-10.4c0-3.5,0.1-6.9,0.2-10.4c0.1-3.5,0.2-6.9,0.3-10.4c0.5-13.8,1.3-27.7,2.5-41.5
			c0.5-6.9,1.2-13.8,1.8-20.7c0.7-6.9,1.4-13.8,2.2-20.7l0.1-0.7l0.6-0.4l36.7-23l-0.6,0.6l5.7-10.6l0.4-0.8l0.9-0.1l5.1-0.5
			l0.6-0.1l0.6,0.4c1,0.6,1.9,1.2,3,1.8c1,0.5,2.1,1,3.1,1.4c1.1,0.4,2.2,0.7,3.3,1c1.1,0.3,2.3,0.4,3.5,0.6
			c4.8,0.5,9.6,0.6,14.4,0.5l0.9,0l0.9,0l1.8-0.1c1.2,0,2.4-0.2,3.6-0.2c2.4-0.2,4.8-0.5,7.1-0.9c1.2-0.2,2.4-0.4,3.5-0.7
			c1.2-0.2,2.3-0.5,3.5-0.8c1.1-0.3,2.3-0.6,3.4-1c1.1-0.4,2.1-0.8,3.2-1.3l1.6,3.1c-1.2,0.6-2.4,1.1-3.6,1.5
			c-1.2,0.4-2.4,0.8-3.6,1.1c-1.2,0.3-2.4,0.6-3.7,0.9c-1.2,0.3-2.5,0.5-3.7,0.7c-1.2,0.2-2.5,0.4-3.7,0.5c-1.2,0.1-2.5,0.3-3.7,0.4
			c-1.2,0.1-2.5,0.2-3.7,0.2l-1.8,0.1l-0.9,0l-0.9,0c-5,0.2-10,0-14.9-0.5c-1.3-0.2-2.5-0.4-3.8-0.7c-1.3-0.3-2.5-0.6-3.7-1.1
			c-1.2-0.4-2.4-1-3.6-1.6c-1.2-0.6-2.3-1.3-3.3-2l1.2,0.3l-5.1,0.5l1.4-0.9l-5.8,10.5l-0.2,0.4l-0.4,0.2l-36.9,22.6l0.7-1.1
			c-0.9,6.8-1.6,13.7-2.4,20.6c-0.7,6.9-1.4,13.7-2,20.6c-1.2,13.8-2.1,27.5-2.7,41.3c-0.1,3.4-0.3,6.9-0.4,10.3
			c-0.1,3.5-0.2,6.9-0.2,10.4c0,3.5-0.1,6.9-0.1,10.4c0,1.7,0,3.5,0.1,5.2c0,1.7,0.1,3.4,0.1,5.2l0.2,5.2c0.1,1.7,0.2,3.4,0.3,5.2
			c0.1,1.7,0.3,3.4,0.4,5.2c0.1,1.7,0.3,3.4,0.5,5.1c0.3,3.4,0.8,6.8,1.2,10.2l0.8,5.1l0.9,5l-0.5-0.9c0.9,0.7,1.7,1.6,2.3,2.5
			c0.6,1,1.1,2,1.4,3.1c0.1,0.6,0.2,1.1,0.3,1.7c0,0.3,0,0.6,0,0.9l0,0.4c0,0.2,0,0.3,0,0.5c-0.1,0.6-0.2,1.1-0.3,1.7
			c-0.1,0.3-0.2,0.5-0.3,0.8c-0.1,0.3-0.2,0.5-0.3,0.7L879.8,462.2z"/>
		<path class="st7" d="M908.9,442.4l0.5,9.8l0,0.5l-0.5,0.6h0c-0.7,0.5-1.4,1.1-1.8,1.8c-0.5,0.7-0.8,1.6-1,2.4
			c-0.1,0.4-0.1,0.9-0.1,1.3c0,0.4,0,0.9,0.1,1.3c0.1,0.9,0.4,1.7,0.7,2.5l0.8,1.6l-1.9,0l-6.3,0.1c-2.1,0-4.2,0.1-6.3,0.1
			c-2.1,0-4.2,0-6.2-0.1c-2.1,0-4.2-0.1-6.2-0.3l0.2-3.5c2.1,0,4.1,0.1,6.2,0.2c2.1,0.1,4.1,0.3,6.2,0.4c4.1,0.3,8.3,0.6,12.4,0.7
			l-1.1,1.7c-0.4-1-0.7-2.1-0.8-3.2c-0.1-0.6-0.1-1.1,0-1.7c0.1-1.7,0.5-3.3,1.2-4.8c0.5-1,1.1-2,1.8-2.9l0,0l-0.5,1.1l0.5-9.8
			H908.9L908.9,442.4z"/>
		<path class="st3" d="M917.3,320.3v102.2c0,1.3,0.7,2.4,1.9,3l31.9,15.7c1.7,0.8,3.7,0.1,4.5-1.5c0.2-0.5,0.3-1,0.3-1.5v0.8
			c0,2.1,1.7,3.9,3.9,3.9c0.2,0,0.4,0,0.6-0.1l91.3-15.6c1.8-0.3,3.2-1.9,3.2-3.8V310.4c0-29.4-17.7-50.9-41-51.7v0h-0.2
			c-1,0-2,0-3.1,0h-39c-1.5,0.1-3,0.2-4.5,0.4c-0.1,0-0.3,0-0.4,0.1c-13.7,2.1-26.1,10-35,21C922.5,291.5,917.4,305.7,917.3,320.3z"
			/>
		<path class="st5" d="M1047.1,426.9c0,0,0.7-0.1,2.1-0.4c0.4-0.1,0.7-0.1,1.2-0.2c0.2,0,0.4-0.1,0.7-0.1c0.1,0,0.2,0,0.3-0.1
			l0.3-0.1c0.1,0,0.3-0.1,0.4-0.2c0.5-0.3,0.9-0.7,1.1-1.2c0.1-0.2,0.1-0.4,0.1-0.6c0-0.1,0-0.2,0-0.4l0-0.5c0-0.7,0-1.5,0-2.3
			c0-1.6,0-3.3,0-5.2c0-3.7,0-7.9,0-12.4c0-18.2,0-42.5-0.1-66.8c0-6.1,0-12.2,0-18.1c0-3,0-6,0-8.9c0-0.7,0-1.5-0.1-2.2
			c0-0.7-0.1-1.4-0.1-2.1c-0.1-1.4-0.3-2.8-0.5-4.2c-0.8-5.3-2.3-10.4-4.4-15.3c-1.9-4.3-4.5-8.3-7.6-11.9c-2.6-3-5.7-5.6-9.1-7.6
			c-2.6-1.6-5.4-2.8-8.3-3.7c-1.9-0.6-3.8-1-5.8-1.2l-2.1-0.2l0.3-3.5c0,0,0.8,0.1,2.3,0.2c2.1,0.3,4.2,0.8,6.3,1.4
			c3.2,1,6.3,2.3,9.1,4.1c3.7,2.2,7,5,9.9,8.3c3.4,3.8,6.1,8.1,8.2,12.8c2.3,5.2,3.8,10.6,4.6,16.2c0.2,1.4,0.4,2.9,0.5,4.4
			c0.1,0.7,0.1,1.5,0.1,2.2c0,0.8,0.1,1.5,0.1,2.2c0.1,3,0,5.9,0,8.9c0,6,0,12.1,0,18.1c0,24.3-0.1,48.6-0.1,66.8
			c0,4.6,0,8.7,0,12.4c0,1.9,0,3.6,0,5.2c0,0.8,0,1.6,0,2.3c0,0.2,0,0.4,0,0.5c0,0.2,0,0.5,0,0.7c-0.1,0.5-0.2,0.9-0.4,1.4
			c-0.5,1.2-1.4,2.2-2.5,2.8c-0.4,0.2-0.7,0.3-1.1,0.4c-0.1,0-0.3,0.1-0.4,0.1c-0.1,0-0.3,0-0.4,0.1c-0.2,0-0.5,0.1-0.7,0.1
			c-0.4,0.1-0.8,0.1-1.2,0.2c-1.4,0.2-2.2,0.4-2.2,0.4L1047.1,426.9z"/>
		<path class="st10" d="M955.9,439.4c0,2.1,1.7,3.8,3.8,3.8c0.2,0,0.4,0,0.6-0.1l84.5-14.6"/>
		<path class="st5" d="M967.4,261.4c0,0-0.1,0-0.3,0l-0.1,0c-0.1,0,0.1,0,0.1,0l0,0l0,0l0,0c-0.1,0-0.1,0-0.2,0
			c-0.2,0-0.3,0.1-0.5,0.1c-0.4,0.1-0.9,0.2-1.5,0.2c-0.6,0.1-1.2,0.3-2,0.4c-1.9,0.4-3.7,1-5.5,1.6c-2.4,0.9-4.8,2-7.1,3.2
			c-6.2,3.4-11.8,7.9-16.4,13.3c-2.9,3.3-5.4,6.9-7.5,10.7c-2.4,4.2-4.2,8.7-5.6,13.4c-1.5,5.1-2.2,10.3-2.3,15.6
			c0,5.6,0,11.3,0,17.2c0,11.8,0,24.3,0.1,37.2c0.1,12.9,0.3,26.3,0.4,39.8c0,1.7,0,3.4,0.1,5.1l0,2.6c-0.1,0.6,0,1.1,0.2,1.7
			c0.2,0.3,0.4,0.5,0.7,0.7l0.5,0.3l2.3,1.1c1.5,0.7,3.1,1.5,4.6,2.2c6.2,3,12.4,6,18.5,9.2l4.6,2.4l1.1,0.6l0.1,0.1c0,0,0,0,0.1,0
			l0.3,0.1c0.1,0,0.2,0.1,0.3,0.1c0.5,0.1,1.1,0,1.6-0.3c0.5-0.3,0.8-0.8,0.9-1.4c0-0.2,0-0.3,0.1-0.5l0-0.6l0-1.3l0.1-5.2
			c0.1-6.9,0-13.7,0-20.5c0-13.6,0-26.9-0.2-39.8c-0.1-12.9-0.2-25.4-0.3-37.2c0-1.5,0-2.9,0-4.4l0-1.1l0-0.6l0-0.5
			c0-0.7,0-1.4,0-2.2c0.1-2.9,0.3-5.8,0.8-8.6c0.8-5.4,2.1-10.7,4-15.9c1.8-4.7,3.9-9.3,6.5-13.6c1.2-2,2.5-4,4-5.8
			c0.3-0.4,0.7-0.9,1-1.3l0.2-0.3l0.1-0.2l0.2-0.2l0.5-0.6c0.7-0.8,1.4-1.7,2.1-2.5c5-5.6,11-10.2,17.6-13.6c4.3-2.2,9-3.7,13.7-4.5
			c1.7-0.3,2.9-0.4,3.8-0.4c0.9,0,1.3-0.1,1.3-0.1l0.1,3.5l-1.2,0.1c-0.8,0.1-2,0.2-3.5,0.4c-4.4,0.7-8.7,2.1-12.8,4.1
			c-6.3,3.2-12,7.5-16.7,12.7c-0.7,0.8-1.3,1.5-2.1,2.3l-0.5,0.6l-0.1,0.1c0.1-0.2,0.4-0.2,0.5,0c0.2,0.1,0.2,0.4,0,0.5
			c-0.1,0.2-0.4,0.2-0.5,0c-0.1-0.1-0.2-0.4,0-0.5l-0.1,0.2l-0.3,0.3c-0.3,0.4-0.7,0.9-1,1.3c-1.3,1.7-2.6,3.6-3.8,5.5
			c-2.6,4.1-4.7,8.5-6.5,13c-1.9,4.9-3.3,10-4.1,15.2c-0.4,2.7-0.7,5.5-0.8,8.3c0,0.7,0,1.4-0.1,2.2l0,0.5l0,0.5l0,1.1
			c0,1.5,0,2.9,0,4.4c-0.1,11.8-0.2,24.3-0.3,37.2c-0.1,12.9-0.1,26.3-0.2,39.8c0,6.8-0.1,13.6,0,20.5l0.1,5.2l0,1.3l0,0.6
			c0,0.3,0,0.5,0,0.8c-0.1,1.2-0.7,2.2-1.7,2.9c-0.9,0.7-2.1,1.1-3.3,1c-0.3,0-0.6-0.1-1-0.2l-0.3-0.1c0,0-0.2-0.1-0.2-0.1l-0.1-0.1
			l-1.2-0.5l-4.7-2.1c-6.3-2.8-12.4-5.9-18.6-9c-1.5-0.8-3.1-1.5-4.6-2.3l-2.3-1.1l-0.6-0.3c-1.4-0.8-2.4-2.2-2.6-3.8
			c0-0.5-0.1-1,0-1.5l0-2.6c0-1.7,0-3.4,0.1-5.1c0.1-13.6,0.4-26.9,0.4-39.8c0.1-12.9,0.1-25.4,0.1-37.2c0-5.9,0-11.7,0-17.3
			c0.1-5.5,0.8-10.9,2.3-16.2c2.6-9.3,7.1-17.9,13.3-25.2c4.7-5.7,10.4-10.6,16.9-14.3c4.2-2.4,8.6-4.2,13.3-5.5
			c0.8-0.2,1.6-0.4,2.2-0.5c0.6-0.1,1.1-0.2,1.5-0.3c0.2,0,0.4-0.1,0.5-0.1l0.2,0c0.1,0,0.2,0,0.3,0c0.2,0,0.3,0,0.3,0L967.4,261.4z
			"/>
		<line class="st10" x1="1012.9" y1="259.3" x2="969.2" y2="259.2"/>
		<path class="st5" d="M993.7,260.8c0,0-0.5,0-1.5,0.1c-0.5,0-1,0-1.6,0.1c-0.6,0-1.3,0.1-2.1,0.2c-0.8,0.1-1.6,0.2-2.5,0.4
			c-0.9,0.1-1.8,0.4-2.7,0.6c-0.9,0.3-1.9,0.5-2.9,0.8c-1,0.3-1.9,0.7-2.9,1.1c-0.9,0.4-1.9,0.8-2.8,1.3c-0.9,0.4-1.8,0.9-2.7,1.4
			c-0.8,0.5-1.7,1-2.4,1.5c-0.7,0.5-1.5,0.9-2.1,1.4c-0.6,0.4-1.2,0.9-1.7,1.3c-0.5,0.4-0.9,0.7-1.3,1l-1.1,0.9l-1.6-1.8
			c0,0,0.4-0.4,1.1-1c0.7-0.6,1.8-1.5,3.1-2.5c0.6-0.5,1.4-1,2.1-1.5c0.8-0.5,1.6-1,2.5-1.6c0.9-0.5,1.8-1.1,2.7-1.5
			c0.9-0.5,1.9-1,2.9-1.4c1-0.4,2-0.9,3-1.2c1-0.4,2-0.7,3-1c1-0.3,1.9-0.6,2.9-0.8c0.9-0.2,1.8-0.4,2.6-0.5
			c0.8-0.2,1.6-0.3,2.2-0.4c0.7-0.1,1.3-0.2,1.7-0.2c0.9-0.1,1.5-0.1,1.5-0.1L993.7,260.8z"/>
		<path class="st5" d="M958.7,277.6l-1,1.1c-0.6,0.7-1.4,1.6-2.2,2.6c-1.5,1.9-2.9,4-2.9,4l-1.8-1.2c0,0,1.4-2.1,3-4.1
			c0.8-1,1.6-2,2.2-2.7c0.6-0.7,1-1.2,1-1.2L958.7,277.6z"/>
		<path class="st5" d="M950,289.4l-0.8,1.3c-0.5,0.9-1.1,2.1-1.8,3.6c-0.7,1.5-1.5,3.3-2.3,5.2c-0.8,1.9-1.5,4-2.1,6.2
			c-0.3,1.1-0.6,2.1-0.9,3.2c-0.3,1.1-0.5,2.1-0.7,3.1c-0.2,1-0.4,2-0.5,2.9c0,0.2-0.1,0.5-0.1,0.7c0,0.1,0,0.4-0.1,0.6l-0.1,1.3
			c-0.3,3.4-0.5,5.6-0.5,5.6l-2.3-0.2c0,0,0.2-2.2,0.5-5.6c0-0.4,0.1-0.9,0.1-1.3c0-0.2,0-0.4,0.1-0.7l0.1-0.7c0.1-1,0.3-2,0.5-3
			c0.2-1.1,0.5-2.1,0.7-3.2c0.3-1.1,0.6-2.2,0.9-3.3c0.7-2.2,1.4-4.3,2.2-6.3c0.8-2,1.6-3.8,2.4-5.4c0.8-1.5,1.4-2.8,1.9-3.7
			l0.8-1.3L950,289.4z"/>
		<path class="st5" d="M940,330.1c0,0,0.1,8.5,0.3,17c0,2.1,0.1,4.2,0.1,6.2c0,2,0,3.9,0,5.4c0,3.2,0,5.3,0,5.3h-2.7
			c0,0,0-2.1,0-5.3c0-1.6,0-3.5,0-5.4c0-2,0-4.1,0-6.2c0-8.5-0.1-17-0.1-17L940,330.1z"/>
		<polygon class="st5" points="940.4,371.1 940.5,381.1 937.5,381.1 937.6,371.1 		"/>
		<polygon class="st5" points="940.6,386.1 940.8,401.2 937.2,401.2 937.4,386.1 		"/>
		<polygon class="st5" points="938.3,401 917.7,390.9 918.7,388.8 939.4,398.7 		"/>
		<polygon class="st5" points="954.6,409.7 942.1,402.4 943.1,400.3 956.5,405.9 		"/>
		<path class="st5" d="M1055.5,396.1c0,0-1.5,0.2-4.1,0.5c-2.6,0.3-6.3,0.9-10.8,1.6c-4.5,0.7-9.6,1.6-15.2,2.4
			c-2.8,0.4-5.7,0.8-8.6,1.1c-2.9,0.3-5.9,0.6-8.9,1c-3,0.4-6,0.8-8.9,1.3c-2.9,0.5-5.8,1-8.6,1.4c-2.8,0.4-5.5,0.7-8.1,1
			c-2.6,0.3-5,0.6-7.2,0.9c-4.5,0.5-8.2,0.9-10.8,1.1c-2.6,0.3-4.1,0.4-4.1,0.4l-0.2-1.4c0,0,1.5-0.3,4.1-0.8
			c2.6-0.5,6.3-1.2,10.7-2c2.2-0.4,4.6-0.8,7.2-1.2c2.5-0.4,5.2-0.9,8-1.3c2.8-0.4,5.7-0.7,8.6-1c2.9-0.3,5.9-0.8,8.9-1.3
			c3-0.5,5.9-1.1,8.8-1.6c2.9-0.5,5.8-1,8.6-1.4c5.6-0.8,10.8-1.4,15.3-2c4.5-0.6,8.2-1.1,10.8-1.5c2.6-0.4,4.1-0.7,4.1-0.7
			L1055.5,396.1z"/>
		<path class="st5" d="M939,420.5c0-7,0-2,0-3.5l0,0l0,0l0,0l0,0l0,0c0,0,0,0,0,0c0,0,0.1,0,0.1,0c0.1,0,0.1,0,0.2-0.1
			c0.1-0.1,0.2-0.1,0.3-0.2c0.1-0.1,0.1-0.2,0.2-0.3c0-0.2,0-0.3,0-0.5l0-0.6c0-1.7,0-3.3,0.1-5c0.1-1.7,0.1-3.3,0.1-5
			c0-0.8,0-1.7,0-2.5c0-0.2,0-0.3,0-0.5c0-0.1-0.1-0.2-0.2-0.3c-0.2-0.2-0.4-0.3-0.7-0.3l0-1.2l0,1.2c-0.3,0-0.5,0.1-0.7,0.3
			c-0.1,0.1-0.1,0.2-0.2,0.3c0,0.1-0.1,0.3,0,0.5c0,0.8,0,1.7,0,2.5c0,1.7,0,3.3,0.1,5c0.1,1.7,0.1,3.3,0.1,5l0,0.6l0,0.3l0,0.1l0,0
			c0,0,0-0.2,0-0.1l0,0l0,0l0,0l0,0.2c0,0.1,0.1,0.2,0.2,0.3c0.1,0.2,0.4,0.3,0.6,0.3V420.5L939,420.5z M939,420.5
			c-0.7,0-1.4-0.2-2.1-0.6c-0.6-0.4-1.1-0.9-1.5-1.5c-0.4-0.6-0.5-1.4-0.5-2.1l0-0.2l0-0.1l0,0l0-0.1l0-0.3l0.1-0.6
			c0.2-1.7,0.5-3.3,0.7-5c0.3-1.7,0.5-3.3,0.7-5c0.1-0.8,0.2-1.7,0.3-2.5c0-0.3,0.1-0.5,0.1-0.8c0.1-0.3,0.3-0.5,0.5-0.7
			c0.4-0.4,1-0.7,1.6-0.7l0,1.2l0-1.2c0.6,0,1.2,0.2,1.6,0.7c0.2,0.2,0.4,0.5,0.5,0.7c0.1,0.3,0.1,0.5,0.1,0.8
			c0.1,0.8,0.2,1.7,0.3,2.5c0.2,1.7,0.5,3.3,0.7,5c0.3,1.7,0.5,3.3,0.7,5l0.1,0.6c0,0.3,0.1,0.5,0.1,0.8c0,0.7-0.2,1.4-0.5,2
			c-0.4,0.6-0.9,1.1-1.5,1.5c-0.3,0.2-0.6,0.3-1,0.4c-0.2,0-0.4,0.1-0.5,0.1c-0.1,0-0.2,0-0.3,0l-0.1,0L939,420.5L939,420.5
			L939,420.5L939,420.5c0-1.6,0,3.5,0-3.5V420.5z"/>
		<path class="st11" d="M936.9,412.4c-0.1,1.3,0.8,2.4,2,2.6c0,0,0.1,0,0.1,0l0,0c1.3-0.1,2.2-1.2,2.2-2.5c0,0,0-0.1,0-0.1"/>
		<path class="st10" d="M967.2,442.1l-9.7,1.6c-1.3,0.2-2.7,0-3.9-0.6l-8.1-4.1"/>
		<path class="st3" d="M955.1,504c1,0,6.7,0,8.1,0c6.1,0.1,12.2-1.7,17.3-5"/>
		<path class="st7" d="M955.1,502.8c0,0,1.7,0,4.1,0c1.2,0,2.7,0,4.2,0c0.8,0,1.5,0,2.3-0.1c0.8-0.1,1.6-0.1,2.3-0.3
			c2.9-0.5,5.7-1.3,8.3-2.5c1.1-0.5,1.9-1,2.5-1.3c0.6-0.4,0.9-0.6,0.9-0.6l1.4,2.3c0,0-0.4,0.2-1,0.6c-0.7,0.4-1.6,0.9-2.8,1.4
			c-2.9,1.3-5.9,2.2-9,2.7c-0.8,0.1-1.7,0.2-2.5,0.3c-0.9,0.1-1.7,0.1-2.5,0.1c-1.6,0-3,0-4.2,0c-2.5,0-4.1,0-4.1,0L955.1,502.8z"/>
		<path class="st7" d="M899,484.5c0,0,0,0.1,0.1,0.4c0,0.1,0,0.2,0,0.4c0,0.1-0.1,0.3-0.2,0.4c-0.1,0.3-0.3,0.5-0.5,0.7
			c-0.2,0.2-0.5,0.3-0.7,0.3c-0.3,0-0.5,0-0.7-0.2c-0.1-0.1-0.2-0.1-0.3-0.2c-0.1-0.1-0.2-0.2-0.3-0.3c-0.2-0.3-0.4-0.6-0.5-1l0-0.2
			c0,0,0.2,0,0.5,0c0.4,0,0.7,0,1.1-0.1c0.3,0,0.7-0.1,1-0.2c0.2,0,0.3-0.1,0.4-0.2L899,484.5z"/>
		<path class="st7" d="M893.6,484.5c0,0,0,0.1,0.1,0.4c0,0.1,0,0.2,0,0.4c0,0.1-0.1,0.3-0.2,0.4c-0.1,0.3-0.3,0.5-0.5,0.7
			c-0.2,0.2-0.5,0.3-0.7,0.3c-0.3,0-0.5,0-0.7-0.2c-0.2-0.1-0.4-0.3-0.6-0.5c-0.2-0.3-0.4-0.6-0.5-1l0-0.2c0,0,0.2,0,0.5,0
			c0.4,0,0.7,0,1.1-0.1c0.3,0,0.7-0.1,1-0.2c0.2,0,0.3-0.1,0.4-0.2L893.6,484.5z"/>
		<path class="st7" d="M887.2,484.5c0,0,0,0.1,0.1,0.4c0,0.1,0,0.2,0,0.4c0,0.1-0.1,0.3-0.2,0.4c-0.1,0.3-0.3,0.5-0.5,0.7
			c-0.2,0.2-0.5,0.3-0.7,0.3c-0.3,0-0.5,0-0.7-0.2c-0.1-0.1-0.2-0.1-0.3-0.2c-0.1-0.1-0.2-0.2-0.3-0.3c-0.2-0.3-0.4-0.6-0.5-1l0-0.2
			c0,0,0.2,0,0.5,0c0.4,0,0.7,0,1.1-0.1c0.3,0,0.7-0.1,1-0.2c0.2,0,0.3-0.1,0.4-0.2L887.2,484.5z"/>
		<line class="st8" x1="923.6" y1="266.9" x2="927.2" y2="261.2"/>
		<polygon class="st7" points="922.3,266.1 927.2,261.2 924.8,267.7 		"/>
		<line class="st8" x1="929.2" y1="269.5" x2="931.9" y2="262.5"/>
		<polygon class="st7" points="927.8,269 931.9,262.5 930.6,270.1 		"/>
		<line class="st8" x1="935.8" y1="271.3" x2="937.5" y2="263.1"/>
		<polygon class="st7" points="934.3,271 937.5,263.1 937.3,271.6 		"/>
		<path class="st7" d="M878,450.8c0,0,0.3,0.1,0.9,0.2c0.6,0.1,1.4,0.2,2.4,0.4c1,0.2,2.2,0.3,3.4,0.5c1.3,0.2,2.6,0.3,4,0.4
			c1.4,0.1,2.7,0.2,4,0.2c1.3,0.1,2.5,0.1,3.5,0.1c1,0,1.9,0,2.5,0c0.6,0,1,0,1,0l0.1,0.8c0,0-0.3,0.1-0.9,0.1
			c-0.6,0.1-1.5,0.2-2.5,0.3c-1,0.1-2.3,0.2-3.6,0.3c-1.3,0-2.7,0.1-4.1,0.1c-1.4,0-2.8-0.1-4.1-0.2c-1.3-0.1-2.5-0.3-3.6-0.5
			c-1-0.2-1.9-0.4-2.5-0.5c-0.3-0.1-0.5-0.1-0.7-0.2c-0.2,0-0.3-0.1-0.3-0.1L878,450.8z"/>
		<path class="st7" d="M888.6,453.1c0.1,0.1,0.2,0.2,0.2,0.4c0.1,0.1,0.2,0.3,0.2,0.5c0.1,0.2,0.2,0.4,0.2,0.6
			c0.2,0.5,0.3,1,0.4,1.6c0.1,0.6,0.2,1.2,0.2,1.9c0,0.6,0,1.3-0.1,1.9c-0.1,0.5-0.2,1.1-0.4,1.6c-0.1,0.2-0.2,0.4-0.3,0.6
			c-0.1,0.2-0.1,0.3-0.2,0.5l-0.2,0.4l-0.9-0.5c0,0,0.1-0.1,0.1-0.4c0.1-0.1,0.1-0.3,0.2-0.4c0-0.2,0.1-0.3,0.2-0.5
			c0.1-0.5,0.2-0.9,0.3-1.4c0.1-0.6,0.1-1.1,0.1-1.7c0-1.1-0.2-2.1-0.4-3.1c0-0.2-0.1-0.4-0.1-0.6c0-0.2-0.1-0.3-0.1-0.4
			c-0.1-0.2-0.2-0.4-0.2-0.4L888.6,453.1z"/>
		<path class="st7" d="M897.7,462.9L897.7,462.9c-0.1-0.2-0.2-0.3-0.2-0.4c-0.1-0.1-0.2-0.3-0.3-0.5c-0.1-0.2-0.2-0.4-0.3-0.6
			c-0.2-0.5-0.3-1-0.4-1.6c-0.1-0.6-0.2-1.2-0.2-1.9c0-0.6,0-1.3,0.2-1.9c0.1-0.5,0.3-1.1,0.5-1.6c0.1-0.2,0.2-0.4,0.3-0.6
			c0.1-0.2,0.2-0.3,0.3-0.4c0.2-0.2,0.3-0.4,0.3-0.4l0.7,0.4l-0.1,0.4c-0.1,0.1-0.1,0.3-0.1,0.4c0,0.2-0.1,0.3-0.1,0.6
			c-0.2,1-0.3,2.1-0.3,3.1c0,0.6,0.1,1.1,0.1,1.7c0.1,0.5,0.1,1,0.2,1.4c0,0.2,0.1,0.4,0.1,0.6c0,0.2,0.1,0.3,0.1,0.4
			c0.1,0.2,0.1,0.4,0.1,0.4L897.7,462.9z"/>
		<path class="st7" d="M901.5,462.9L901.5,462.9c-0.1-0.2-0.2-0.2-0.3-0.3c-0.1-0.2-0.2-0.3-0.3-0.5c-0.1-0.2-0.2-0.4-0.3-0.6
			c-0.2-0.5-0.4-1-0.5-1.6c-0.1-0.6-0.2-1.3-0.2-1.9c0-0.6,0-1.3,0.2-1.9c0.1-0.6,0.3-1.1,0.5-1.6c0.1-0.2,0.2-0.4,0.3-0.6
			c0.1-0.2,0.2-0.3,0.3-0.4c0.2-0.2,0.3-0.3,0.3-0.3l0.7,0.4l-0.1,0.4c0,0.1-0.1,0.3-0.1,0.4c0,0.2-0.1,0.4-0.1,0.6
			c0,0.2-0.1,0.4-0.1,0.7c0,0.2-0.1,0.5-0.1,0.7c0,0.5,0,1.1,0,1.6c0,0.6,0,1.1,0.1,1.7c0,0.5,0.1,1,0.2,1.4l0.1,0.6l0.1,0.4
			c0.1,0.2,0.1,0.4,0.1,0.4L901.5,462.9z"/>
		<path class="st7" d="M893.3,453.1L893.3,453.1c0.1,0.2,0.2,0.3,0.2,0.4c0.2,0.4,0.3,0.7,0.5,1.1c0.3,1.1,0.5,2.2,0.5,3.4
			c0,1.2-0.2,2.3-0.5,3.4c-0.1,0.2-0.1,0.4-0.2,0.6c-0.1,0.2-0.1,0.3-0.2,0.5l-0.2,0.4l-0.9-0.4l0.1-0.4c0-0.2,0.1-0.6,0.1-1
			c0.1-1,0.1-2.1,0.1-3.1c0-1.1-0.1-2.3-0.1-3.1l-0.1-1c0-0.1,0-0.2,0-0.3l0-0.1L893.3,453.1z"/>
		<path class="st7" d="M1015.5,460.7L1015.5,460.7c-0.1-0.2-0.1-0.3-0.2-0.4c0-0.1-0.1-0.3-0.2-0.5c-0.1-0.2-0.1-0.4-0.1-0.7
			c-0.1-0.5-0.1-1.1-0.1-1.6c0-0.6,0-1.3,0.1-1.9c0.1-0.6,0.3-1.2,0.5-1.8c0.2-0.5,0.4-1,0.7-1.5c0.1-0.2,0.2-0.4,0.4-0.5
			c0.1-0.1,0.2-0.3,0.3-0.4c0.2-0.2,0.3-0.3,0.3-0.3l0.6,0.5l-0.2,0.3c-0.1,0.1-0.1,0.3-0.2,0.4c-0.1,0.2-0.2,0.3-0.2,0.5
			c-0.4,1-0.6,2-0.8,3c-0.1,0.6-0.1,1.1-0.2,1.7c0,0.5,0,1,0,1.5l0,0.6c0,0.2,0,0.3,0,0.4c0,0.2,0.1,0.4,0.1,0.4L1015.5,460.7z"/>
		<path class="st7" d="M1019.3,460.7l-0.1-0.1c-0.1-0.1-0.1-0.2-0.2-0.3c-0.2-0.4-0.3-0.8-0.4-1.2c-0.2-0.6-0.2-1.2-0.2-1.8
			c0-0.7,0-1.4,0.2-2.1c0.1-0.3,0.2-0.7,0.3-1c0.1-0.3,0.3-0.6,0.5-0.9c0.3-0.5,0.7-1,1.2-1.4c0.3-0.3,0.7-0.5,1-0.7
			c0.3-0.1,0.4-0.2,0.4-0.2l0.5,0.7c0,0-0.1,0.1-0.3,0.3c-0.2,0.2-0.4,0.5-0.6,0.9c-0.1,0.2-0.2,0.4-0.4,0.6
			c-0.1,0.2-0.2,0.5-0.3,0.7c-0.1,0.3-0.2,0.5-0.3,0.8c-0.1,0.3-0.2,0.5-0.2,0.8c-0.1,0.3-0.1,0.6-0.2,0.8c0,0.3-0.1,0.6-0.1,0.8
			c0,0.5,0,1,0,1.5c0,0.4,0.1,0.8,0.1,1.1c0,0.3,0.1,0.4,0.1,0.4L1019.3,460.7z"/>
		<path class="st7" d="M1012.6,451.1L1012.6,451.1c0.1,0.2,0.1,0.3,0.2,0.4c0.1,0.4,0.2,0.8,0.3,1.1c0.2,1.1,0.2,2.3,0,3.4
			c-0.1,1.1-0.5,2.3-1,3.3c-0.1,0.2-0.2,0.4-0.3,0.6c-0.1,0.1-0.2,0.3-0.3,0.4c-0.2,0.2-0.3,0.4-0.3,0.4l-0.9-0.5l0.1-0.4
			c0.1-0.2,0.2-0.6,0.2-1c0.2-1,0.4-2,0.5-3c0.1-1.1,0.2-2.3,0.3-3.1c0-0.4,0.1-0.8,0.1-1c0-0.1,0-0.2,0-0.3l0-0.1L1012.6,451.1z"/>
		<path class="st7" d="M885.1,453.1c0,0,0.1,0.1,0.2,0.4c0.1,0.1,0.2,0.3,0.2,0.5c0.1,0.2,0.2,0.4,0.2,0.6c0.3,1.1,0.5,2.3,0.5,3.4
			c0,1.2-0.1,2.3-0.5,3.5c-0.1,0.2-0.1,0.4-0.2,0.6c-0.1,0.2-0.1,0.3-0.2,0.5c-0.1,0.3-0.2,0.4-0.2,0.4l-0.9-0.5l0.2-0.3
			c0.1-0.1,0.1-0.3,0.2-0.4c0.1-0.2,0.1-0.3,0.2-0.5c0.3-1,0.4-2.1,0.4-3.1c0-1.1-0.2-2.1-0.4-3.2c-0.1-0.2-0.1-0.4-0.2-0.6
			c-0.1-0.2-0.1-0.3-0.1-0.4c-0.1-0.2-0.2-0.4-0.2-0.4L885.1,453.1z"/>
		<path class="st7" d="M1028.9,452.5c0,0-0.2,0-0.6,0c-0.4,0-1-0.1-1.7-0.1c-1.3-0.1-3.1-0.3-4.9-0.5l-7.1-0.8l0.1-1
			c0,0,3.6,0,7.1,0.1c1.8,0,3.5,0,4.9,0c0.7,0,1.2,0,1.5-0.1l0.6,0L1028.9,452.5z"/>
		<path class="st7" d="M1008.7,449c0,0-1.5,0.4-4,0.9c-2.6,0.6-6.3,1.3-10.7,2.2c-2.2,0.4-4.6,0.8-7.2,1.2c-2.6,0.4-5.3,0.7-8.1,1.1
			c-2.8,0.3-5.7,0.6-8.7,0.8c-3,0.2-6,0.3-9,0.4c-1.5,0-3,0-4.5,0c-1.5,0-3,0-4.5-0.1c-3-0.1-5.9-0.3-8.7-0.4
			c-2.8-0.3-5.5-0.4-8.1-0.7c-2.6-0.3-5-0.6-7.2-0.9c-2.2-0.3-4.3-0.6-6.1-0.9c-1.8-0.3-3.4-0.6-4.7-0.8c-2.6-0.5-4.1-0.8-4.1-0.8
			s1.5,0.1,4.1,0.3c1.3,0.1,2.9,0.2,4.7,0.3c1.8,0.1,3.9,0.2,6.1,0.4c2.2,0.2,4.7,0.2,7.3,0.4c2.6,0.1,5.3,0.2,8.1,0.3
			c2.8,0,5.7,0.2,8.6,0.1c1.5,0,3,0,4.4,0c1.5,0,3-0.1,4.5-0.1c1.5,0,3-0.1,4.5-0.2c0.7,0,1.5-0.1,2.2-0.1c0.7,0,1.5-0.1,2.2-0.1
			c2.9-0.1,5.8-0.4,8.6-0.6c2.8-0.2,5.5-0.5,8.1-0.8c2.6-0.2,5-0.5,7.2-0.7c4.5-0.5,8.2-0.9,10.8-1.1c2.6-0.2,4.1-0.3,4.1-0.3
			L1008.7,449z"/>
		<path class="st7" d="M1004.5,451.3c0,0,0,0.3-0.1,0.7c0,0.2-0.1,0.5-0.1,0.8c0,0.3-0.1,0.6-0.2,1c0,0.4-0.1,0.7-0.2,1.1
			c-0.1,0.4-0.1,0.8-0.2,1.2c-0.1,0.4-0.1,0.9-0.2,1.3c-0.1,0.4-0.2,0.9-0.2,1.3c-0.1,0.4-0.2,0.9-0.3,1.3c-0.1,0.4-0.2,0.8-0.2,1.2
			c0,0.4-0.2,0.8-0.2,1.2l-0.2,1.1c0,0.3-0.1,0.7-0.1,0.9c0,0.3-0.1,0.6-0.1,0.8c0,0.4-0.1,0.7-0.1,0.7l-0.2,0.1
			c0,0-0.1-0.2-0.2-0.6c-0.1-0.2-0.2-0.5-0.2-0.7c-0.1-0.3-0.2-0.6-0.2-1c-0.1-0.8-0.2-1.6-0.2-2.5c0-1,0.1-1.9,0.3-2.8
			c0.4-1.7,0.9-3.4,1.7-5c0.3-0.6,0.6-1.2,0.9-1.5c0.2-0.3,0.4-0.5,0.4-0.5L1004.5,451.3z"/>
		<path class="st7" d="M998.1,452c0,0,0,0.3-0.1,0.7c0,0.2,0,0.5-0.1,0.7c0,0.3,0,0.6-0.1,1c0,0.4-0.1,0.7-0.1,1.1
			c-0.1,0.4-0.1,0.8-0.1,1.2c-0.1,0.4-0.1,0.9-0.2,1.3c-0.1,0.4-0.1,0.9-0.2,1.3c-0.2,0.9-0.3,1.7-0.5,2.6c0,0.4-0.2,0.8-0.2,1.2
			c0,0.4-0.1,0.7-0.2,1.1c0,0.3-0.1,0.7-0.1,0.9c0,0.3-0.1,0.5-0.1,0.8c0,0.4-0.1,0.7-0.1,0.7l-0.2,0.1l-0.2-0.6
			c-0.1-0.2-0.2-0.5-0.2-0.7c-0.1-0.3-0.1-0.6-0.2-1c-0.1-0.4-0.1-0.8-0.1-1.2c0-0.4,0-0.8,0-1.3c0-0.4,0-0.9,0.1-1.4
			c0-0.5,0.1-0.9,0.2-1.4c0.3-1.7,0.8-3.4,1.4-5c0.2-0.5,0.5-1.1,0.8-1.6c0.2-0.3,0.4-0.5,0.4-0.5L998.1,452z"/>
		<path class="st7" d="M991.6,452.6l0,0.7c0,0.2,0,0.4,0,0.7c0,0.3,0,0.6,0,1c0,0.3,0,0.7,0,1.1c0,0.4,0,0.8-0.1,1.2
			c0,0.4,0,0.9-0.1,1.3c0,0.4-0.1,0.9-0.1,1.3c-0.1,0.4-0.1,0.9-0.2,1.3c-0.1,0.4-0.2,0.9-0.2,1.3c-0.1,0.4-0.1,0.8-0.2,1.2
			c0,0.4-0.1,0.7-0.2,1.1c0,0.3-0.1,0.6-0.2,0.9c0,0.3-0.1,0.5-0.1,0.7c0,0.4-0.1,0.7-0.1,0.7l-0.2,0.1l-0.2-0.6
			c-0.1-0.2-0.1-0.4-0.2-0.7c-0.1-0.3-0.1-0.6-0.1-1c-0.1-0.8-0.1-1.6-0.1-2.4c0-0.9,0.1-1.8,0.2-2.8c0.2-1.7,0.6-3.4,1.1-5.1
			c0.2-0.5,0.4-1.1,0.6-1.6c0.2-0.4,0.3-0.6,0.3-0.6L991.6,452.6z"/>
		<path class="st7" d="M985.2,453.3l0,0.2c0,0.2,0,0.3,0,0.5c0,0.2,0,0.4,0.1,0.7c0,0.3,0,0.6,0.1,0.9c0,0.3,0,0.7,0,1.1
			c0,0.4,0,0.8,0,1.2c0,0.8-0.1,1.7-0.2,2.6c-0.1,0.9-0.2,1.8-0.4,2.6c-0.2,0.8-0.3,1.6-0.5,2.3c-0.1,0.3-0.1,0.6-0.2,0.9
			c0,0.3-0.1,0.5-0.2,0.7c-0.1,0.4-0.1,0.7-0.1,0.7l-0.2,0.1l-0.2-0.6c-0.1-0.6-0.2-1.1-0.3-1.7c-0.1-1.7-0.1-3.4,0.1-5.1
			c0.2-1.7,0.5-3.4,0.9-5.1c0.1-0.6,0.3-1.1,0.5-1.6c0.1-0.1,0.1-0.3,0.2-0.4l0.1-0.1L985.2,453.3z"/>
		<path class="st7" d="M978.8,453.9l0,0.2c0,0.2,0,0.3,0.1,0.5l0.1,0.3c0,0.1,0,0.3,0.1,0.4c0,0.3,0.1,0.6,0.1,0.9
			c0,0.3,0.1,0.7,0.1,1.1c0,0.4,0.1,0.8,0.1,1.2c0,0.8,0,1.7-0.1,2.6c-0.1,0.9-0.2,1.8-0.3,2.6c-0.1,0.4-0.2,0.8-0.2,1.2
			c-0.1,0.4-0.2,0.7-0.3,1.1c-0.2,0.7-0.3,1.2-0.4,1.6l-0.1,0.5l0,0.2l-0.2,0.1l-0.1-0.2c-0.1-0.2-0.1-0.3-0.1-0.5
			c-0.1-0.6-0.2-1.1-0.2-1.7c-0.1-1.7,0-3.4,0.1-5.1c0.1-1.8,0.4-3.7,0.6-5c0.1-0.6,0.2-1.1,0.4-1.6c0.1-0.2,0.2-0.4,0.3-0.6
			L978.8,453.9z"/>
		<path class="st7" d="M972.4,454.6l0,0.2c0,0.2,0.1,0.3,0.1,0.5c0.1,0.2,0.1,0.5,0.2,0.7c0.1,0.3,0.1,0.6,0.2,0.9
			c0.1,0.3,0.1,0.7,0.2,1.1c0,0.4,0.1,0.8,0.1,1.2c0.1,0.9,0.1,1.8,0,2.6c0,0.9-0.1,1.8-0.3,2.6c-0.1,0.4-0.2,0.8-0.2,1.2
			c-0.1,0.4-0.2,0.7-0.3,1.1c-0.2,0.7-0.4,1.2-0.5,1.6c-0.1,0.2-0.1,0.3-0.2,0.5l0,0.2l-0.2,0.1c-0.1-0.2-0.1-0.4-0.1-0.6
			c-0.1-0.6-0.1-1.1-0.1-1.7c0-1.4,0-3.2,0.1-5c0.1-1.8,0.3-3.6,0.4-5c0.1-0.6,0.2-1.1,0.3-1.7c0-0.2,0.1-0.3,0.1-0.5l0.1-0.2
			L972.4,454.6z"/>
		<path class="st7" d="M966,455.2l0,0.2c0,0.2,0.1,0.3,0.2,0.5c0.1,0.2,0.2,0.5,0.2,0.7c0.1,0.3,0.2,0.6,0.2,0.9
			c0.2,0.8,0.3,1.5,0.4,2.3c0.2,1.8,0.1,3.5-0.1,5.3c-0.1,0.4-0.2,0.8-0.2,1.2c-0.1,0.4-0.2,0.7-0.3,1.1c-0.2,0.6-0.3,1.1-0.6,1.6
			c-0.1,0.2-0.2,0.4-0.2,0.4l-0.1,0.2l-0.2,0.1c-0.1-0.2-0.1-0.4-0.1-0.6c0-0.4-0.1-1-0.1-1.7c0-1.4,0-3.2,0-5
			c0.1-1.8,0.1-3.6,0.2-5c0-0.7,0.1-1.2,0.2-1.7c0-0.2,0.1-0.4,0.1-0.6L966,455.2z"/>
		<path class="st7" d="M959.6,455.9c0.4,0.7,0.7,1.5,0.9,2.3c0.2,0.8,0.4,1.5,0.5,2.3c0.2,1.8,0.2,3.6,0,5.3
			c-0.1,0.4-0.1,0.8-0.2,1.2c-0.1,0.4-0.2,0.7-0.3,1.1c-0.2,0.8-0.5,1.5-0.9,2.3h-0.2c0,0,0-0.9-0.1-2.3c0-1.4,0-3.2,0-5
			c0-1.8,0-3.6,0-5c0-1.4,0.1-2.3,0.1-2.3H959.6z"/>
		<path class="st7" d="M952.7,455.3c0.2,0.2,0.3,0.4,0.4,0.6c0.1,0.2,0.2,0.4,0.4,0.7c0.1,0.3,0.3,0.6,0.4,0.9
			c0.3,0.8,0.5,1.5,0.6,2.3c0.3,1.8,0.3,3.6,0.1,5.4c-0.1,0.8-0.3,1.6-0.5,2.4c-0.2,0.6-0.4,1.1-0.6,1.7c-0.1,0.2-0.2,0.4-0.4,0.6
			l-0.2-0.1c0-0.2,0.1-0.4,0-0.6c0-0.4,0-1,0-1.6c0-1.4,0-3.2-0.1-5c0-1.8-0.1-3.6-0.1-5c0-0.7,0-1.3-0.1-1.6c0-0.2,0-0.4-0.1-0.6
			L952.7,455.3z"/>
		<path class="st7" d="M945.7,454.8l0.1,0.1c0.1,0.1,0.3,0.3,0.4,0.4c0.3,0.5,0.6,1.1,0.8,1.6c0.3,0.8,0.5,1.5,0.7,2.3
			c0.2,0.9,0.3,1.8,0.3,2.7c0,0.9,0,1.8-0.1,2.7c-0.1,0.8-0.3,1.6-0.5,2.4c-0.1,0.3-0.2,0.6-0.3,1c-0.1,0.3-0.2,0.5-0.4,0.7
			c-0.1,0.2-0.2,0.3-0.3,0.5l-0.1,0.1l-0.2-0.1c0.1-0.2,0.1-0.4,0.1-0.6c0-0.4,0.1-1,0.1-1.6c0-1.4,0-3.2-0.1-5
			c-0.1-1.8-0.2-3.6-0.3-5c-0.1-0.7-0.1-1.3-0.2-1.6c0-0.2-0.1-0.4-0.2-0.6L945.7,454.8z"/>
		<path class="st7" d="M938.8,454.3l0.1,0.1c0.2,0.1,0.3,0.2,0.4,0.4c0.1,0.1,0.2,0.2,0.3,0.3c0.1,0.1,0.2,0.2,0.2,0.4
			c0.2,0.3,0.4,0.6,0.5,0.9c0.4,0.7,0.6,1.5,0.8,2.3c0.2,0.9,0.4,1.8,0.4,2.7c0.1,0.9,0.1,1.9,0,2.8c0,0.4-0.1,0.9-0.2,1.3
			c-0.1,0.4-0.2,0.8-0.3,1.2c-0.1,0.3-0.2,0.7-0.4,1c-0.1,0.3-0.2,0.5-0.4,0.7c-0.1,0.2-0.2,0.3-0.4,0.4l-0.1,0.1l-0.2-0.1l0-0.2
			c0-0.1,0.1-0.3,0.1-0.4c0.1-0.5,0.1-1.1,0.1-1.6c0-1.7,0-3.4-0.2-5c-0.1-1.8-0.3-3.7-0.5-5c-0.1-0.5-0.2-1.1-0.3-1.6
			c-0.1-0.2-0.1-0.4-0.2-0.6L938.8,454.3z"/>
		<path class="st7" d="M931.9,453.8l0.2,0.1c0.2,0.1,0.3,0.2,0.4,0.3c0.2,0.2,0.4,0.4,0.5,0.7c0.2,0.3,0.4,0.6,0.6,0.9
			c0.4,0.7,0.7,1.5,1,2.3c0.3,0.9,0.4,1.8,0.5,2.8c0.1,0.9,0.1,1.9,0,2.8c0,0.4-0.1,0.9-0.2,1.3c-0.1,0.4-0.2,0.8-0.3,1.2
			c-0.2,0.6-0.5,1.2-0.8,1.7c-0.2,0.2-0.3,0.4-0.5,0.5l-0.2-0.1l0.2-0.6l0.1-0.7c0-0.3,0-0.6,0.1-0.9c0.1-1.7,0-3.4-0.2-5.1
			c-0.1-1.7-0.4-3.4-0.8-5c-0.1-0.5-0.3-1.1-0.5-1.6c-0.1-0.1-0.1-0.3-0.2-0.4l-0.1-0.1L931.9,453.8z"/>
		<path class="st7" d="M924.9,453.3l0.2,0.1c0.2,0.1,0.3,0.2,0.4,0.3c0.2,0.2,0.4,0.4,0.6,0.6c0.2,0.3,0.4,0.6,0.6,0.9
			c0.2,0.3,0.4,0.7,0.6,1.1c0.2,0.4,0.4,0.8,0.5,1.2c0.2,0.4,0.3,0.9,0.4,1.4c0.1,0.5,0.2,1,0.3,1.4c0,0.5,0.1,1,0.1,1.5
			c0,0.5,0,1,0,1.4c0,0.5-0.1,0.9-0.2,1.4c-0.1,0.4-0.2,0.8-0.3,1.2c-0.2,0.6-0.5,1.2-0.9,1.7c-0.2,0.2-0.3,0.4-0.5,0.5l-0.2-0.1
			c0,0,0.1-0.2,0.2-0.6c0.1-0.2,0.1-0.4,0.2-0.7c0.1-0.3,0.1-0.6,0.1-0.9c0.1-0.8,0.1-1.6,0-2.4c0-0.9-0.1-1.8-0.3-2.7
			c-0.2-1.7-0.5-3.4-1-5c-0.2-0.5-0.4-1.1-0.6-1.6c-0.2-0.4-0.3-0.6-0.3-0.6L924.9,453.3z"/>
		<path class="st7" d="M918,452.9c0.2,0.1,0.4,0.2,0.6,0.4c0.8,0.7,1.5,1.5,2,2.5c0.2,0.4,0.4,0.8,0.6,1.2c0.2,0.4,0.3,0.9,0.5,1.4
			c0.1,0.5,0.2,1,0.3,1.5c0.1,0.5,0.1,1,0.1,1.5c0,0.5,0,1,0,1.5c-0.1,0.9-0.3,1.8-0.6,2.6c-0.1,0.3-0.3,0.7-0.5,1
			c-0.1,0.2-0.3,0.5-0.5,0.7c-0.2,0.2-0.3,0.4-0.5,0.5l-0.2-0.1c0,0,0.1-0.2,0.2-0.6c0.1-0.2,0.1-0.5,0.2-0.7
			c0.1-0.3,0.1-0.6,0.2-0.9c0-0.4,0.1-0.8,0.1-1.1c0-0.4,0-0.8,0-1.3c0-0.4,0-0.9-0.1-1.4c-0.1-0.5-0.1-0.9-0.2-1.4
			c-0.2-1.7-0.7-3.4-1.3-5c-0.2-0.5-0.4-1-0.7-1.5l-0.3-0.6L918,452.9z"/>
		<path class="st7" d="M911,452.4c0,0,0.2,0.1,0.6,0.4c0.9,0.6,1.6,1.4,2.1,2.3c0.3,0.4,0.5,0.8,0.7,1.2c0.2,0.4,0.4,0.9,0.6,1.4
			c0.1,0.5,0.3,1,0.4,1.5c0.1,0.5,0.1,1,0.2,1.6c0,0.5,0,1,0,1.5c0,0.5-0.1,1-0.2,1.4c-0.1,0.2-0.1,0.4-0.2,0.6l-0.2,0.6
			c-0.1,0.3-0.3,0.7-0.5,1c-0.1,0.2-0.3,0.5-0.5,0.7c-0.2,0.2-0.3,0.4-0.5,0.5l-0.2-0.1c0,0,0.1-0.2,0.2-0.6
			c0.1-0.2,0.2-0.5,0.2-0.7c0.1-0.3,0.1-0.6,0.2-1c0.1-0.8,0.2-1.6,0.1-2.4c0-0.9-0.2-1.9-0.3-2.8c-0.3-1.7-0.8-3.4-1.6-5
			c-0.3-0.7-0.6-1.2-0.8-1.5l-0.4-0.6L911,452.4z"/>
		<path class="st7" d="M951.1,472.3v18.4c0,0.3-0.1,0.5-0.3,0.7l-5.6,5.6c-0.2,0.2-0.4,0.3-0.6,0.3l-0.1,0l-16.8,0.9
			c-0.5,0-0.9-0.1-1.2-0.5l-0.1-0.1l-6.5-6.3c-0.4-0.4-0.6-0.9-0.6-1.4v0l0-22.1h4l0,22.1l-0.6-1.4l6.3,6.5l-1.3-0.6l16.8,0.9
			l-0.7,0.3l5.6-5.6l-0.3,0.7v-18.4H951.1z"/>
		<path class="st7" d="M1007.9,472.3V488c0,0.2-0.1,0.4-0.2,0.6l-4.2,5.6c-0.2,0.2-0.5,0.4-0.8,0.4l0,0l-12.7,0.3
			c-0.2,0-0.4,0-0.6-0.2l-0.2-0.1l-5.3-3.1c-0.5-0.3-0.8-0.8-0.8-1.4l0-0.2l0.2-20.6h3.7l0.2,20.6l-0.8-1.6l4.4,4.3l-0.8-0.3
			l12.7,0.3l-0.8,0.4l4.2-5.6l-0.2,0.6v-15.7H1007.9z"/>
		
			<ellipse transform="matrix(0.473 -0.8811 0.8811 0.473 235.679 1064.4415)" class="st12" cx="1007.6" cy="335.2" rx="37.7" ry="14.6"/>
		
			<ellipse transform="matrix(0.8688 -0.4951 0.4951 0.8688 -33.7896 542.8894)" class="st12" cx="1007.6" cy="335.2" rx="14.6" ry="37.7"/>
		
			<ellipse transform="matrix(6.413514e-03 -1 1 6.413514e-03 665.9631 1340.6708)" class="st12" cx="1007.6" cy="335.2" rx="14.6" ry="37.7"/>
		<circle class="st13" cx="1007.8" cy="334.9" r="6.8"/>
		<path class="st7" d="M912.1,691c0,0,0.4,0.2,1,0.6c0.3,0.2,0.7,0.5,1.1,0.7c0.4,0.2,0.8,0.4,1.3,0.6c0.5,0.3,1.1,0.5,1.7,0.7
			c0.6,0.3,1.3,0.4,2,0.7c0.7,0.2,1.4,0.4,2.2,0.6c0.8,0.2,1.5,0.3,2.3,0.4c1.5,0.2,3.1,0.4,4.7,0.5c1.5,0.1,2.9,0.1,4.1,0
			c1.2,0,2.2-0.1,2.9-0.2c0.3,0,0.6-0.1,0.8-0.1c0.2,0,0.3,0,0.3,0l0.5,2.4l-0.3,0.1c-0.2,0-0.5,0.1-0.9,0.2
			c-0.7,0.2-1.8,0.3-3.1,0.5c-1.3,0.2-2.8,0.4-4.4,0.4c-1.7,0.1-3.4,0.1-5.1,0.1c-0.9-0.1-1.7-0.1-2.6-0.2c-0.9-0.1-1.7-0.2-2.5-0.4
			c-0.8-0.2-1.6-0.3-2.4-0.5c-0.8-0.2-1.4-0.4-2.1-0.6c-0.7-0.3-1.3-0.5-1.8-0.7c-0.5-0.2-0.9-0.4-1.2-0.6c-0.7-0.3-1-0.5-1-0.5
			L912.1,691z"/>
		<polygon class="st7" points="913.4,470.2 914.5,504.2 912,504.2 910.9,470.3 		"/>
		<polygon class="st7" points="914.8,511.2 915.1,521.1 912.5,521.2 912.2,511.2 		"/>
		<polygon class="st7" points="915.3,526.1 916.4,562.1 913.9,562.2 912.7,526.2 		"/>
		<polygon class="st7" points="916.6,569.1 917.7,603.1 915.4,603.2 914.2,569.2 		"/>
		<polygon class="st7" points="917.9,610.1 918.2,620.1 916,620.2 915.7,610.2 		"/>
		<polygon class="st7" points="918.3,625.1 919.4,661.1 917.6,661.1 916.2,625.2 		"/>
		<path class="st7" d="M919.6,668.1c0,0,0.2,7,0.4,14c0.1,3.5,0.2,7,0.3,9.6c0,0.7,0,1.3,0.1,1.8c0,0.5,0,0.9-0.1,1.4
			c0.3,0.3,0.2,0.8-0.1,1.1c-0.3,0.3-0.8,0.2-1.1-0.1c-0.2-0.3-0.2-0.6,0-0.9c-0.1-0.4-0.2-0.9-0.2-1.4c0-0.5,0-1.1-0.1-1.8
			c-0.1-2.6-0.2-6.1-0.4-9.6c-0.3-7-0.5-14-0.5-14L919.6,668.1z"/>
		<path class="st7" d="M944,740.1l-0.2-0.3c-0.1-0.2-0.3-0.5-0.5-0.8c-0.2-0.3-0.4-0.8-0.6-1.3c-0.2-0.5-0.5-1.1-0.6-1.6
			c-0.2-0.6-0.4-1.3-0.6-1.9c-0.2-0.7-0.4-1.4-0.5-2.2c-0.1-0.8-0.3-1.5-0.3-2.3c-0.1-0.8-0.1-1.6-0.2-2.4c0-0.8,0-1.6,0-2.4
			c0-0.8,0.1-1.6,0.2-2.4c0.1-0.8,0.2-1.5,0.3-2.2c0.1-0.7,0.3-1.4,0.5-2c0.1-0.6,0.3-1.1,0.5-1.7c0.2-0.5,0.3-0.9,0.5-1.3
			c0.1-0.4,0.3-0.6,0.4-0.8c0.1-0.2,0.2-0.3,0.2-0.3l0.4,0c0,0,0.1,1.6,0.3,4.1c0.1,2.4,0.3,5.7,0.5,8.9c0.1,3.2,0.2,6.5,0.3,8.9
			c0.1,2.4,0.1,4.1,0.1,4.1L944,740.1z"/>
		<path class="st7" d="M886.5,368.2l0.1,0.3l0.2,0.8c0.1,0.3,0.2,0.8,0.3,1.2c0,0.1,0.1,0.3,0.1,0.3c0.1,0.1,0.1,0.3,0.2,0.4
			c0.1,0.3,0.2,0.6,0.3,0.9c0.1,0.3,0.3,0.5,0.4,0.8c0.2,0.3,0.3,0.6,0.5,0.9c0.4,0.6,0.8,1.2,1.3,1.7c0.5,0.6,1,1.1,1.6,1.6
			c0.6,0.5,1.2,0.9,1.9,1.4c0.7,0.4,1.4,0.7,2.1,1c0.4,0.1,0.7,0.3,1.1,0.4c0.4,0.1,0.7,0.2,1.1,0.3c0.4,0.1,0.7,0.1,1.1,0.2
			c0.3,0.1,0.7,0.1,1,0.1c0.7,0,1.4,0,2.1,0c2.6,0,4.4,0.1,4.4,0.1l0.1,2c0,0-1.7,0.2-4.3,0.4c-0.7,0-1.3,0.1-2.2,0.1
			c-0.4,0-0.8,0-1.3,0c-0.4,0-0.9-0.1-1.3-0.1c-0.5-0.1-0.9-0.2-1.3-0.3c-0.5-0.1-0.9-0.2-1.3-0.4c-0.9-0.3-1.8-0.7-2.6-1.2
			c-0.4-0.2-0.8-0.5-1.2-0.8c-0.4-0.3-0.7-0.6-1.1-0.9c-0.3-0.3-0.7-0.6-1-1c-0.3-0.3-0.6-0.7-0.9-1c-0.5-0.7-1-1.4-1.4-2.2
			c-0.2-0.4-0.4-0.7-0.5-1.1c-0.1-0.4-0.3-0.7-0.4-1.1c-0.1-0.3-0.2-0.6-0.3-0.9l-0.1-0.4c-0.1-0.2-0.1-0.3-0.1-0.5
			c-0.1-0.6-0.2-1.1-0.2-1.5c0-0.4,0-0.7-0.1-1l0-0.3L886.5,368.2z"/>
		<path class="st7" d="M907.6,351.4c0,0-0.5,0-1.3,0.1c-0.8,0-2,0.1-3.4,0.2c-0.7,0-1.4,0.1-2.2,0.1c-0.4,0-0.8,0.1-1.2,0.1
			c-0.4,0.1-0.7,0.1-1.1,0.2c-0.8,0.2-1.6,0.4-2.3,0.7c-0.8,0.3-1.5,0.7-2.2,1.1c-0.7,0.4-1.4,0.9-2,1.5c-0.6,0.5-1.2,1.1-1.6,1.8
			c-0.9,1.1-1.6,2.4-2.1,3.8c-0.2,0.7-0.4,1.3-0.6,1.8l-0.3,0.8l0,0.1l0,0l0,0l0,0l0,0c0,0,0-0.1,0-0.1l0,0.2L887,364
			c-0.2,0.8-0.4,1.2-0.4,1.2l-2-0.4l0.2-1.3l0.1-0.3l0-0.2l0.1-0.2c0.1-0.2,0.1-0.5,0.2-0.8c0.1-0.6,0.2-1.2,0.5-1.9
			c0.5-1.7,1.2-3.3,2.2-4.7c0.6-0.8,1.2-1.6,1.9-2.2c0.7-0.7,1.6-1.3,2.4-1.9c1.7-1.1,3.6-1.8,5.6-2.1c0.5-0.1,1-0.1,1.5-0.2
			c0.4,0,0.8,0,1.2,0c0.8,0,1.6,0.1,2.3,0.1c1.4,0,2.6,0.1,3.4,0.2c0.8,0.1,1.3,0.1,1.3,0.1L907.6,351.4L907.6,351.4z"/>
		<path class="st7" d="M950.1,480.1c0,0-0.5,0-1.4,0.1c-0.9,0-2.1,0.1-3.5,0.3c-3.5,0.3-7,1.1-10.3,2.3c-1.7,0.6-3.3,1.4-4.8,2.5
			c-0.7,0.5-1.3,1-1.9,1.5c-0.3,0.2-0.5,0.5-0.8,0.8c-0.2,0.2-0.4,0.5-0.6,0.8c-0.2,0.2-0.4,0.5-0.5,0.8c-0.2,0.2-0.3,0.5-0.4,0.7
			c-0.2,0.4-0.4,0.8-0.6,1.2c-0.1,0.3-0.2,0.6-0.3,0.8L925,492l-4.1-1.3c0,0,0.1-0.1,0.2-0.4c0.1-0.2,0.2-0.6,0.5-1.1
			c0.3-0.5,0.6-1.1,0.9-1.6c0.2-0.3,0.4-0.6,0.6-0.9c0.2-0.3,0.5-0.7,0.8-1c0.3-0.3,0.6-0.7,0.9-1c0.3-0.3,0.7-0.6,1-0.9
			c0.8-0.6,1.6-1.2,2.4-1.7c1.8-1,3.7-1.9,5.7-2.4c3.6-1,7.4-1.6,11.1-1.6c1.5,0,2.8,0,3.7,0c0.9,0,1.4,0,1.4,0L950.1,480.1z"/>
		<path class="st7" d="M949.7,484.3c0,0-0.4,0-1.2,0.1c-0.7,0.1-1.7,0.2-3,0.5c-0.6,0.1-1.3,0.3-2,0.4c-0.7,0.2-1.4,0.3-2.2,0.6
			c-0.7,0.2-1.5,0.5-2.2,0.7c-0.7,0.3-1.5,0.6-2.2,0.9l-1.1,0.5c-0.3,0.2-0.7,0.4-1,0.6c-0.3,0.2-0.6,0.4-0.9,0.6
			c-0.3,0.2-0.6,0.4-0.9,0.7c-0.5,0.4-1,0.9-1.5,1.4c-0.2,0.2-0.4,0.5-0.6,0.7c-0.2,0.2-0.3,0.5-0.5,0.7c-0.3,0.4-0.5,0.8-0.7,1.3
			c-0.1,0.2-0.2,0.4-0.3,0.5c-0.1,0.2-0.1,0.3-0.2,0.5c-0.2,0.6-0.3,0.9-0.3,0.9l-4.1-1.3l0.5-1.2c0.1-0.2,0.2-0.4,0.3-0.6
			c0.1-0.2,0.3-0.5,0.4-0.7c0.3-0.6,0.7-1.1,1.1-1.7c0.2-0.3,0.5-0.6,0.7-0.9c0.3-0.3,0.6-0.6,0.9-0.8c0.6-0.6,1.3-1.1,2-1.6
			c0.4-0.3,0.7-0.5,1.1-0.7c0.4-0.2,0.8-0.5,1.2-0.7c0.4-0.2,0.8-0.4,1.2-0.6l1.3-0.5c0.8-0.3,1.7-0.6,2.5-0.8
			c0.8-0.2,1.7-0.4,2.5-0.6c0.8-0.2,1.6-0.3,2.3-0.4c0.7-0.1,1.5-0.2,2.1-0.2c1.3-0.1,2.4-0.2,3.2-0.2c0.7,0,1.2,0,1.2,0
			L949.7,484.3z"/>
		<path class="st7" d="M985.2,473.2l1.1,0.1c0.7,0.1,1.8,0.1,3.1,0.3c0.6,0.1,1.3,0.2,2,0.3c0.7,0.2,1.5,0.3,2.3,0.5
			c0.8,0.2,1.6,0.4,2.4,0.7c0.8,0.2,1.6,0.6,2.4,0.9c0.8,0.3,1.6,0.7,2.4,1.2c0.4,0.2,0.8,0.4,1.1,0.7c0.4,0.2,0.7,0.5,1.1,0.7
			c0.7,0.5,1.3,1,1.8,1.6c0.3,0.3,0.5,0.5,0.8,0.8c0.2,0.3,0.4,0.6,0.7,0.9c0.4,0.5,0.7,1,1,1.6c0.1,0.2,0.3,0.5,0.4,0.7
			c0.1,0.2,0.2,0.4,0.3,0.6c0.3,0.7,0.5,1.2,0.5,1.2l-2.8,0.9l-0.4-1l-0.2-0.5c-0.1-0.2-0.2-0.4-0.3-0.6c-0.2-0.5-0.5-0.9-0.8-1.3
			c-0.2-0.2-0.3-0.5-0.5-0.7c-0.2-0.2-0.4-0.5-0.6-0.7c-0.5-0.5-1-1-1.5-1.4c-0.3-0.2-0.6-0.4-0.9-0.6c-0.3-0.2-0.6-0.4-1-0.6
			c-0.7-0.4-1.4-0.8-2.1-1.1c-0.7-0.3-1.5-0.6-2.2-0.9c-0.7-0.3-1.5-0.5-2.2-0.7c-0.7-0.2-1.4-0.4-2.1-0.5c-0.7-0.1-1.3-0.3-1.9-0.4
			c-1.2-0.2-2.2-0.3-2.9-0.4c-0.7-0.1-1.1-0.1-1.1-0.1L985.2,473.2z"/>
		<path class="st7" d="M985.3,477.9c0,0,0.4,0.1,1,0.2c0.6,0.1,1.6,0.3,2.7,0.6c1.3,0.3,2.5,0.7,3.8,1.2c0.7,0.3,1.4,0.5,2.1,0.9
			c0.7,0.3,1.4,0.7,2.1,1.1c0.7,0.4,1.4,0.8,2,1.3c0.6,0.4,1.3,0.9,1.8,1.4c0.6,0.5,1.1,1,1.6,1.6c0.5,0.5,0.9,1,1.3,1.6
			c0.3,0.5,0.7,1,0.9,1.5c0.2,0.4,0.4,0.8,0.6,1.2c0.3,0.7,0.5,1.1,0.5,1.1l-4.1,1.3c0,0-0.1-0.3-0.3-0.8c-0.1-0.3-0.2-0.6-0.4-0.9
			c-0.2-0.4-0.4-0.8-0.6-1.2c-0.3-0.5-0.5-0.9-0.9-1.3c-0.4-0.5-0.7-0.9-1.1-1.4c-0.5-0.5-0.9-0.9-1.4-1.3c-0.5-0.5-1.1-0.9-1.6-1.3
			c-0.6-0.4-1.2-0.8-1.8-1.1c-0.6-0.4-1.2-0.7-1.8-1c-1.1-0.5-2.2-1-3.4-1.4c-1-0.4-1.9-0.6-2.5-0.8l-1-0.3L985.3,477.9z"/>
		<path class="st14" d="M1012.9,472.7c-0.6,3.4-2.6,6.4-5.5,8.2"/>
		<path class="st4" d="M977.4,499.4l2.3,178.3c0,0-2.7,7.7,0.3,9s1.7,7-1.3,7s-4.7,12.3,1,12.7c-12.7-4.3-12.8-4-14.9-11.5
			c-0.7-5.5,1.2-12.9,1.2-12.9l-1.9-76.9l-0.9-103.5C963.3,501.5,974.8,501.1,977.4,499.4z"/>
		<path class="st4" d="M940.1,470.1l-2,216c0,0-2.7,7.7,0.3,9s1.7,7-1.3,7s-4.7,12.3,1,12.7c-18-2.7-25.7-9.2-27.8-16.7
			c-0.7-5.5,1.2-12.9,1.2-12.9l-1.9-76.9l-6.4-144.5C903.3,463.7,937.4,471.7,940.1,470.1z"/>
		<polygon class="st4" points="986.4,712.1 988.4,745.1 966.4,742.6 950.8,734.7 948.4,713.7 957.9,706.4 964.8,708.4 		"/>
		<path class="st4" d="M934.9,714.1l0.5,32.5l-21-1.5l-26.5-12.5l-6.5-11.5l10.7,0.9c8.2,0.7,16.1-3.2,20.6-10.1l4.2-2.8
			L934.9,714.1z"/>
		<path class="st15" d="M1165.1,628.3c0.4,0,0.9,0.2,1.2,0.4c1.2,0.4,2.3,0.9,3.4,1.4c1.8,0.8,3.5,1.8,5.1,2.8
			c1.1,0.6,2.1,1.4,3,2.2c1.2,0.9,2,2.3,2.2,3.8c0.1,0.9-0.1,1.7-0.6,2.4c-0.4,0.7-1.1,1.4-1.8,1.8c-1.5,0.9-3.2,1.4-4.9,1.5
			c-1.8,0.1-3.5,0-5.3-0.2c-1.8-0.2-3.6-0.4-5.5-0.6c-8.1-1-16.2-2.5-24.2-4.4c-8.7-2.1-17.3-4.8-25.7-8c-2.1-0.8-4.2-1.6-6.2-2.5
			c-1.1-0.4-2.1-1-3-1.8c-1-0.8-1.7-1.9-1.8-3.2c0-0.7,0.2-1.3,0.6-1.9c0.4-0.5,0.9-0.9,1.5-1.2c1-0.4,2.1-0.7,3.2-0.8
			c2-0.3,4-0.5,5.9-0.7c6.3-0.6,12.6-0.5,18.8,0.2c2.3,0.3,4.1,0.6,5.4,0.8c0.6,0.1,1.3,0.2,1.9,0.5c0,0.1,2.1,0.5,3.4,0.9
			c1.4,0.4,2.1,0.6-0.6,0c-1.4-0.2-3.6-0.7-7-1.1c-4.8-0.6-9.6-0.8-14.4-0.7c-3.5,0.1-7.1,0.4-10.6,0.8c-1,0.1-2,0.3-3,0.5
			c-1,0.1-2,0.4-2.8,0.9c-0.8,0.5-1.1,1.5-0.8,2.4c0.5,1,1.2,1.8,2.2,2.3c1.1,0.6,2.2,1.1,3.3,1.5c1.2,0.5,2.4,1,3.7,1.4
			c1.3,0.5,2.5,1,3.9,1.4c1.3,0.5,2.7,1,4.1,1.4c5.6,1.9,11.8,3.7,18.6,5.3c7.3,1.8,14.7,3.1,22.1,4.1c3.3,0.4,6.5,0.8,9.5,1.1
			c1.4,0.1,2.8,0.1,4.2-0.2c1.2-0.2,2.4-0.7,3.4-1.5c0.4-0.4,0.8-0.8,1-1.3c0.1-0.2,0.2-0.4,0.2-0.7c0-0.1,0-0.3,0-0.5
			c0-0.1,0-0.2,0-0.3c-0.2-1-0.8-2-1.6-2.6c-0.8-0.7-1.7-1.4-2.6-2c-0.9-0.6-1.8-1.2-2.7-1.7c-3-1.8-6.3-3.3-9.6-4.4
			c-3.9-1.3-7.9-2.2-11.9-2.6c-1,0-2-0.1-2.9-0.3c3.1-0.1,6.3,0.2,9.4,0.9c2,0.4,4,0.9,5.9,1.5
			C1164.1,628,1165.1,628.4,1165.1,628.3z"/>
		<path class="st16" d="M725.1,591.4c-0.1,0.2-0.3,0.4-0.5,0.5c-0.3,0.3-0.8,0.8-1.4,1.3c-1.8,1.6-3.7,3.1-5.7,4.4
			c-3,2-6.1,3.8-9.4,5.3c-1.9,0.8-3.8,1.7-5.9,2.3c-1,0.4-2.1,0.7-3.2,1c-1.1,0.4-2.4,0.6-3.6,0.4c-0.7-0.2-1.3-0.6-1.7-1.1
			c-0.4-0.5-0.7-1.2-0.8-1.8c-0.1-0.7-0.1-1.3,0.1-2c0.2-0.6,0.5-1.2,0.9-1.7c0.8-1,1.7-1.8,2.8-2.5c1-0.7,2-1.3,3.1-2
			c3.8-2.4,7.8-4.5,11.9-6.5c3.7-1.8,6.9-3.1,9.3-3.9c1.2-0.4,2.1-0.7,2.7-1c0.3-0.1,0.7-0.2,1-0.3c0,0.1,4.3-1.3,1.6-0.3
			c-1.4,0.5-4.6,1.6-10.7,4.3c-3.1,1.4-6.8,3.2-11.4,5.9c-2.3,1.3-4.7,2.8-7.3,4.6c-1.4,0.8-2.4,2.1-3,3.6c-0.2,0.8-0.2,1.6,0.1,2.4
			c0.3,0.8,0.9,1.4,1.7,1.6c1,0.1,2,0,3-0.4c1-0.3,2-0.6,2.9-0.9c0.9-0.3,1.9-0.6,2.7-1c0.9-0.3,1.7-0.7,2.6-1.1
			c7-3.1,13.5-7.3,19.1-12.6c2.3-2.2,3.7-3.8,4.6-4.7c0.3-0.4,0.7-0.8,1.1-1.2c-0.1,0.1-0.5,0.6-1,1.4c-0.6,0.7-1.4,1.6-2.2,2.5
			c-0.8,0.9-1.6,1.7-2.3,2.4l-0.7,0.8C725.2,591.2,725.1,591.3,725.1,591.4z"/>
		<path class="st16" d="M1299.7,677.4c-0.2,0-0.5-0.1-0.7-0.1c-0.4-0.1-1.1-0.3-1.9-0.6c-2.3-0.8-4.5-1.7-6.7-2.7
			c-3.2-1.5-6.3-3.4-9.3-5.4c-1.6-1.2-3.4-2.5-5-3.9c-0.9-0.7-1.7-1.5-2.5-2.3c-1-0.8-1.7-1.8-2.2-2.9c-0.2-0.7-0.2-1.4,0.1-2
			c0.3-0.6,0.7-1.2,1.2-1.6c0.5-0.4,1.1-0.7,1.8-0.9c0.6-0.2,1.3-0.2,1.9-0.1c1.2,0.2,2.5,0.6,3.6,1.1c1.1,0.5,2.2,1.1,3.2,1.7
			c4,2.1,7.9,4.5,11.6,7c3.4,2.3,6.1,4.4,8.1,6c1,0.8,1.7,1.4,2.2,1.9c0.3,0.2,0.5,0.5,0.7,0.7c-0.1,0.1,3.4,3.1,1.1,1.2
			c-1.2-0.9-3.7-3.2-9.2-7.1c-2.8-1.9-6.3-4.3-10.8-6.9c-2.3-1.3-4.8-2.7-7.7-4c-1.4-0.8-3-1-4.6-0.8c-0.8,0.2-1.5,0.6-2,1.3
			c-0.5,0.6-0.7,1.5-0.5,2.2c0.4,0.9,1,1.8,1.8,2.4c0.8,0.7,1.5,1.4,2.3,2.1c0.8,0.7,1.5,1.3,2.2,1.9c0.7,0.6,1.5,1.2,2.2,1.7
			c6.2,4.5,13.2,7.9,20.5,10.1c3.1,0.9,5.2,1.3,6.4,1.6c0.5,0.1,1.1,0.2,1.6,0.3c-0.1,0-0.8-0.1-1.7-0.2c-0.9-0.2-2.1-0.4-3.3-0.6
			c-1.2-0.3-2.3-0.5-3.2-0.8c-0.4-0.1-0.8-0.2-1-0.3C1300,677.4,1299.9,677.4,1299.7,677.4z"/>
		<path class="st17" d="M495.6,745.3c0.1,0.1-1.3,1.9-4.2,4.7c-4.3,3.8-9.1,7-14.3,9.5c-7.7,3.6-15.9,6.2-24.2,7.9
			c-4.7,1-9.6,2-14.8,2.6c-5.4,0.7-10.9,0.6-16.3-0.4c-1.5-0.2-3-0.7-4.3-1.5c-0.2-0.1-0.4-0.3-0.5-0.5c-0.1-0.1-0.1-0.2-0.2-0.2
			l0-0.1l-0.1-0.1l-0.1-0.1c-0.3-0.4-0.4-0.8-0.5-1.3c-0.2-0.9-0.1-1.7,0.1-2.6c0.4-1.4,1.1-2.8,2-4.1c0.8-1.2,1.5-2.5,2.3-3.6
			c0.9-1.2,1.6-2.4,2.6-3.5l2.7-3.4c1-1.1,2-2.1,2.9-3.2c0.5-0.5,1-1.1,1.5-1.5l1.5-1.5l1.5-1.5l1.6-1.4c1.1-0.9,2.1-1.9,3.2-2.7
			c2.2-1.7,4.4-3.4,6.7-4.9c4.3-2.9,8.8-5.4,13.5-7.5c7.3-3.3,15-5.5,22.9-6.6c2.3-0.4,4.6-0.6,6.8-0.6c0.8-0.1,1.6-0.1,2.5,0
			c0,0.2,10.8,0.3,3.8,0.5c-0.9,0-2,0-3.5,0.1c-1.5,0.1-3.3,0.3-5.4,0.5c-1.2,0.1-2.4,0.3-3.5,0.5c-1.3,0.2-2.7,0.5-4.1,0.7
			c-1.5,0.3-3,0.8-4.7,1.2c-0.8,0.2-1.7,0.4-2.6,0.7c-0.9,0.3-1.8,0.6-2.7,0.9c-0.9,0.3-1.9,0.6-2.9,1c-1,0.4-2,0.8-3,1.3
			c-1,0.4-2.1,0.8-3.2,1.4c-1.1,0.5-2.1,1.1-3.3,1.6c-0.6,0.3-1.1,0.6-1.7,0.9c-0.6,0.3-1.1,0.7-1.7,1c-1.1,0.7-2.3,1.4-3.5,2.1
			c-1.2,0.8-2.3,1.6-3.6,2.4c-1.2,0.8-2.4,1.7-3.6,2.7c-5.4,4.1-10.3,8.8-14.7,14.1c-1.1,1.5-2.4,2.9-3.5,4.5
			c-0.6,0.8-1.1,1.6-1.7,2.4c-0.5,0.8-1,1.7-1.6,2.6c-0.5,0.8-1,1.7-1.5,2.6c-0.4,0.8-0.6,1.7-0.5,2.6c0.1,0.8,0.7,1.5,1.4,1.8
			c1,0.4,2,0.6,3,0.8c4.9,0.8,9.8,1,14.7,0.4c4.5-0.5,8.9-1.2,13.3-2.1c7.5-1.4,14.9-3.5,22-6.2c12.6-5,20.5-12,25-17.9
			c1.9-2.4,3.5-5.1,4.7-8c0.7-1.8,1.1-3.7,1.1-5.6c0-0.9-0.2-1.9-0.5-2.8c-0.2-0.5-0.3-0.7-0.2-0.6c0.7,1.1,1,2.3,1,3.6
			c0,2.6-0.6,5.1-1.7,7.4c-1.1,2.3-2.4,4.5-3.9,6.6C496.4,744.2,495.5,745.3,495.6,745.3z"/>
		<path class="st18" d="M744.7,719.3c-0.2,0.3-0.5,0.6-0.8,0.9c-0.8,0.8-1.7,1.5-2.5,2.2c-3.3,2.5-6.9,4.6-10.7,6.2
			c-5.6,2.4-11.4,4.4-17.2,6c-3.3,0.9-6.8,1.8-10.5,2.5c-1.8,0.4-3.7,0.7-5.6,1c-1.9,0.3-3.9,0.6-5.9,0.7c-3.1,0.3-6.3-0.2-9.2-1.3
			l-0.6-0.3l0.2-0.7c1.4-3.6,3.8-6.8,6.9-9.1c3-2.3,6.1-4.2,9.5-5.9c6-3,12.2-5.5,18.7-7.3c4.6-1.3,9.4-2.3,14.2-2.9
			c1.7-0.2,3.1-0.3,4.1-0.4c0.5-0.1,1-0.1,1.5,0c1,0,2.1,0,3.1,0c1.3,0,2.1,0,0,0.1c-0.5,0-1.2,0.1-2.1,0.2c-0.9,0.1-2,0.2-3.4,0.4
			c-10.2,1.3-20.1,4.1-29.5,8.2c-4,1.8-7.8,3.8-11.5,6.1c-2.1,1.3-4,2.8-5.8,4.6c-1.9,1.9-3.3,4.1-4.2,6.6l-0.3-0.7
			c2.8,1,5.7,1.4,8.7,1.1c3.6-0.3,7.1-0.8,10.6-1.5c3.3-0.6,6.5-1.4,9.5-2.1c5.3-1.4,10.6-3.1,15.7-5.1c4-1.5,7.9-3.4,11.5-5.7
			c2.7-1.7,5.2-3.8,7.3-6.1c0.8-0.9,1.5-1.9,2-2.9c0.4-0.8,0.6-1.8,0.5-2.7c-0.1-1.2-0.9-2.3-2-2.9c-0.5-0.3-1.2-0.4-1.8-0.3
			c-0.3,0.1-0.4,0.1-0.4,0c0.2-0.1,0.5-0.2,0.7-0.2c0.6,0,1.2,0.1,1.7,0.4c0.7,0.4,1.4,0.9,1.8,1.7c0.4,0.8,0.6,1.8,0.4,2.7
			c-0.4,1.8-1.2,3.4-2.5,4.8c-0.5,0.6-0.9,1-1.2,1.4C745,718.9,744.8,719.1,744.7,719.3z"/>
		<path class="st19" d="M483.6,734.1c-0.2,0.1-0.4,0.1-0.7,0.1c-0.4,0-1.1,0.1-1.9,0.1c-1.6,0.1-4,0.2-6.8,0.6
			c-7.5,0.9-14.8,2.8-21.8,5.8c-4.2,1.8-8.2,4-11.9,6.6c-3.5,2.5-6.8,5.2-9.7,8.3c-2.2,2.3-4.2,4.7-6.1,7.3c-0.7,1-1.2,1.7-1.6,2.3
			c-0.2,0.3-0.4,0.6-0.6,0.8c-0.1-0.1-2.2,3.7-0.9,1.2c1.7-3.3,3.8-6.3,6.2-9.2c2.6-3.2,5.5-6,8.7-8.6c4.7-3.8,10-7,15.5-9.5
			c6.4-2.8,13.2-4.6,20.1-5.6c4.2-0.6,8.5-0.8,12.8-0.7c6.2,0.2,8.1,0.6,7.9,0.6c-0.2,0-2.6-0.2-4.9-0.2c-1.1,0-2.3,0-3.1,0
			c-0.4,0-0.8,0-1,0C483.9,734.1,483.8,734.1,483.6,734.1z"/>
		<path class="st17" d="M1355.5,776.6c0,0.1-2.3,0.1-6.3-0.7c-5.6-1.2-11.1-3.2-16.1-5.9c-7.5-4.1-14.4-9.1-20.7-14.8
			c-3.6-3.2-7.3-6.6-10.9-10.4c-3.8-4-6.9-8.5-9.4-13.3c-0.8-1.3-1.2-2.8-1.3-4.4c0-0.2,0-0.5,0.1-0.7c0-0.1,0.1-0.2,0.1-0.3l0-0.1
			l0-0.1l0.1-0.2c0.2-0.4,0.4-0.8,0.7-1.2c0.6-0.6,1.3-1.1,2.1-1.4c1.4-0.5,2.9-0.8,4.4-0.8c1.4-0.1,2.9-0.3,4.3-0.3
			c1.4,0,2.9-0.1,4.3,0l4.3,0.2c1.4,0.2,2.9,0.3,4.3,0.5c0.7,0.1,1.4,0.2,2.1,0.3l2.1,0.4l2.1,0.4c0.7,0.2,1.4,0.3,2.1,0.5
			c1.4,0.3,2.8,0.6,4.1,1c2.7,0.8,5.4,1.5,7.9,2.5c4.9,1.8,9.6,3.9,14.1,6.4c7,3.9,13.3,8.8,18.9,14.5c1.6,1.6,3.2,3.3,4.6,5.1
			c0.6,0.6,1,1.3,1.5,2c-0.2,0.1,6.1,8.9,1.9,3.3c-0.5-0.7-1.2-1.6-2.1-2.8c-1-1.1-2.2-2.4-3.6-4.1c-0.8-0.9-1.6-1.8-2.5-2.6
			c-0.9-0.9-1.9-1.9-3-2.9c-1.1-1-2.4-2-3.8-3.1c-0.7-0.5-1.3-1.2-2.1-1.7c-0.8-0.5-1.5-1.1-2.4-1.7c-0.8-0.6-1.6-1.2-2.5-1.8
			c-0.9-0.5-1.8-1.1-2.8-1.7c-1-0.6-1.9-1.2-3-1.7c-1.1-0.5-2.1-1.1-3.3-1.7c-0.6-0.3-1.1-0.6-1.7-0.9c-0.6-0.3-1.2-0.5-1.8-0.8
			c-1.2-0.5-2.5-1.1-3.7-1.6c-1.3-0.5-2.7-0.9-4-1.4c-1.4-0.5-2.8-0.9-4.3-1.3c-6.5-1.9-13.2-3.1-20-3.5c-1.9,0-3.7-0.2-5.7-0.1
			c-1,0-1.9,0-2.9,0.1c-1,0.1-2,0.2-3,0.3c-1,0.1-2,0.2-3,0.4c-0.9,0.2-1.7,0.6-2.4,1.1c-0.6,0.6-0.8,1.4-0.6,2.2
			c0.3,1,0.6,2,1.1,2.9c2.2,4.4,5,8.5,8.4,12.1c3,3.3,6.3,6.5,9.6,9.4c5.6,5.2,11.6,9.9,18.1,14c11.5,7.2,21.8,9.4,29.2,9.5
			c3.1,0.1,6.2-0.2,9.2-0.9c1.9-0.5,3.6-1.3,5.1-2.4c0.7-0.6,1.4-1.3,1.9-2c0.3-0.4,0.4-0.6,0.4-0.5c-0.5,1.2-1.3,2.2-2.3,3
			c-2.1,1.5-4.5,2.6-7,3.1c-2.5,0.5-5.1,0.7-7.6,0.7C1356.9,776.7,1355.5,776.6,1355.5,776.6z"/>
		<path class="st19" d="M1357.4,760.4c-0.2-0.1-0.3-0.3-0.4-0.5c-0.3-0.3-0.7-0.8-1.2-1.4c-1-1.3-2.5-3-4.5-5.2
			c-5.1-5.5-11.1-10.3-17.6-14.1c-3.9-2.3-8.1-4.2-12.4-5.7c-4.1-1.4-8.2-2.3-12.5-2.9c-3.1-0.4-6.3-0.6-9.5-0.5
			c-1.2,0-2.1,0.1-2.7,0.1c-0.3,0-0.7,0-1,0c0-0.1-4.3,0.4-1.5,0c3.7-0.5,7.4-0.7,11.1-0.4c4.1,0.2,8.2,0.9,12.1,1.9
			c5.9,1.5,11.6,3.8,16.8,6.9c6,3.5,11.6,7.9,16.4,12.9c3,3.1,5.7,6.4,8.2,9.9c3.5,5.1,4.3,6.9,4.2,6.7c-0.2-0.2-1.4-2.2-2.7-4
			c-0.7-0.9-1.3-1.9-1.8-2.5c-0.3-0.3-0.5-0.6-0.6-0.8C1357.6,760.6,1357.5,760.5,1357.4,760.4z"/>
		<path class="st20" d="M1165.8,639.9c-0.1,0.2-3.9-3-8.8-6.4c-2.5-1.7-5.3-3.6-7.5-5c-1.3-0.7-2.6-1.6-3.8-2.4
			c0.1-0.1-1.2-0.8-0.4-0.4c0.4,0.2,1.4,0.7,3.3,1.7c1.9,1.1,4.8,2.7,8.8,5.5c3.2,2.2,6.2,4.5,9.1,7c0.7,0.5,1.4,1.2,1.9,1.9
			C1168.3,641.7,1165.9,639.8,1165.8,639.9z"/>
		<path class="st21" d="M865.4,606.8c-0.3,0.2-0.6,0.3-0.9,0.4c-0.6,0.2-1.4,0.5-2.6,0.8c-3.2,0.8-6.4,1.4-9.7,1.7
			c-4.8,0.6-9.7,0.9-14.6,1c-2.8,0-5.6-0.1-8.6-0.2c-1.5-0.1-3-0.2-4.6-0.4c-0.8-0.1-1.5-0.2-2.3-0.3c-0.8-0.1-1.7-0.3-2.4-0.7
			c-0.2-0.1-0.4-0.2-0.6-0.3c-0.2-0.1-0.4-0.3-0.5-0.4c-0.3-0.3-0.6-0.7-0.8-1.1c-0.4-0.8-0.6-1.7-0.6-2.6c0-0.9,0.3-1.8,0.7-2.6
			c0.4-0.8,0.9-1.5,1.6-2.1c1.3-1.1,2.7-2.1,4.3-2.8c1.5-0.7,3-1.4,4.6-2c3-1.2,6.1-2.1,9.2-2.8c2.9-0.6,5.8-1.1,8.8-1.4
			c4.6-0.4,9.2-0.3,13.7,0.3c1.7,0.2,3,0.5,3.9,0.7c0.5,0.1,0.9,0.2,1.4,0.4c0,0.1,6,1.6,2,0.7c-0.5-0.1-1.1-0.3-2-0.4
			c-0.8-0.2-1.9-0.4-3.1-0.5c-3.5-0.5-7-0.7-10.5-0.7c-5.8,0.1-11.6,1-17.1,2.6c-3.8,1.1-7.4,2.5-10.9,4.3c-2,0.9-3.7,2.3-4.9,4.1
			c-0.5,1-0.7,2.1-0.5,3.2c0.2,1.1,0.9,2.1,1.9,2.5c1.3,0.5,2.7,0.7,4.2,0.8c1.4,0.1,2.8,0.3,4.2,0.3c2.7,0.2,5.3,0.3,7.8,0.3
			c4.4,0,8.8-0.2,13.2-0.6c3.9-0.4,7.3-0.9,10.3-1.4c2.5-0.5,5-1.2,7.4-2.1c2.8-1,5.2-2.7,7.2-4.8c1.1-1.3,1.4-1.8,1.3-1.6
			c-0.3,0.7-0.8,1.3-1.3,1.9c-1,1.2-2.1,2.2-3.3,3c-1.2,0.8-2.5,1.5-3.9,2.1c-0.6,0.2-1,0.4-1.3,0.6
			C865.7,606.7,865.5,606.7,865.4,606.8z"/>
		<path class="st22" d="M1041.7,549.8c0.4,0,0.7,0,1.1,0c0.7,0,1.8,0.1,3,0.2c3.3,0.1,6.7,0.1,10-0.2c0.6-0.1,1.3-0.1,1.9-0.2
			l-0.1,0.3c-3-1.9-6.4-3.1-9.9-3.6c-1.2-0.2-2.4-0.3-3.6-0.3c-0.9,0-1.4,0-1.4,0c0-0.1-1.8,0.1-0.8,0c1.4-0.1,2.9-0.2,4.3,0
			c4.1,0.3,8,1.6,11.5,3.7l0.4,0.2l-0.4,0c-0.6,0.1-1.3,0.1-1.9,0.2c-4.9,0.5-9.9,0.4-14.9-0.2c-1.2-0.1-2.3-0.3-3.4-0.5
			C1037.8,549.4,1041.7,549.9,1041.7,549.8z"/>
		<path class="st23" d="M558.5,655.4c0,0,0.6-0.4,1.6-1.2c1.4-1.1,2.8-2.4,4-3.7c1.8-2.1,3.8-4,6-5.6c0.7-0.5,1.4-0.9,2.1-1.2
			c0.7-0.4,1.5-0.7,2.2-1.1c0.7-0.4,1.3-0.9,1.8-1.5c0.4-0.7,0.5-1.5,0.3-2.3c-0.1-0.4-0.3-0.7-0.6-0.9c-0.1-0.1-0.3-0.2-0.5-0.2
			l-0.2,0l0,0c0,0,0,0,0,0l0,0l-0.1,0c-0.1,0-0.2,0-0.3,0c-0.9,0.2-1.7,0.5-2.5,0.9c-1.7,0.7-3.4,1.5-5,2.4c-3,1.7-5.9,3.6-8.5,5.7
			c-2,1.6-3.9,3.3-5.6,5.2c-0.6,0.7-1.2,1.2-1.5,1.6c-0.2,0.2-0.4,0.4-0.6,0.6c-0.1-0.1-2.3,2.6-0.9,0.8c1.8-2.3,3.8-4.5,6-6.5
			c2.4-2.2,5-4.2,7.8-6c1.9-1.2,3.8-2.3,5.8-3.3c1.1-0.5,2.3-1.1,3.5-1.6c0.6-0.3,1.4-0.5,2.1-0.4c0.2,0,0.4,0.1,0.6,0.2
			c0.2,0.1,0.3,0.2,0.5,0.4c0.3,0.3,0.5,0.7,0.6,1c0.3,0.9,0.1,1.8-0.3,2.6c-0.5,0.7-1.1,1.3-1.8,1.7c-1.4,0.8-2.8,1.2-3.9,2
			c-2,1.4-3.9,3-5.6,4.8c-1.3,1.4-2.7,2.8-4.2,4.1c-1.2,0.9-2.4,1.7-3.8,2.4c-1.6,0.8-3.3,1.1-5.1,1c-0.4,0-0.9-0.1-1.2-0.2
			c1.3,0.2,2.6,0.2,3.9-0.2c0.8-0.2,1.6-0.5,2.3-0.9c0.3-0.1,0.5-0.3,0.7-0.4C558.3,655.5,558.4,655.5,558.5,655.4z"/>
		<path class="st4" d="M1077.6,872.8c0,0-0.5,0.1-1.3,0.1c-0.8,0.1-2,0.2-3.4,0.3c-2.8,0.2-6.6,0.3-10.4,0.2
			c-3.8-0.1-7.5-0.3-10.4-0.7c-1.5-0.1-2.6-0.3-3.3-0.4c-0.8-0.1-1.2-0.2-1.2-0.2s1,0,2.8-0.1c0.9-0.1,2.1-0.1,3.4-0.2
			c1.3-0.1,2.7-0.2,4.3-0.4c7.6-0.8,15.1-2.4,22.3-4.8c3.8-1.2,7.5-2.6,11.1-4.3c0.9-0.4,1.7-0.8,2.5-1.2c0.4-0.2,0.8-0.4,1.2-0.6
			c0.4-0.2,0.8-0.4,1.2-0.6c1.3-0.7,2.6-1.5,3.7-2.4c1.5-1,2.7-2.4,3.4-4c0.1-0.4,0.2-0.9,0.2-1.3c0.1-0.1,0.1-0.2,0.2-0.3l0,0l0,0
			l0,0c0,0.1,0.1-0.3-0.1,0.3l0,0l0,0l0.1-0.2c0.1-0.2,0.1-0.4,0.2-0.6c0-0.1,0-0.2,0.1-0.2c0,0,0.1,0,0.1-0.1
			c0.2-0.7,0.2-1.4,0-2.1c-0.3-1.1-0.8-2.2-1.5-3.1c-0.9-1.2-2.1-2.3-3.5-3l-0.1-0.1l0,0c-0.1,0-0.1-0.2-0.1-0.2
			c0-0.1,0.2-0.1,0.2-0.1c0.1,0,0.1,0.2,0.1,0.2c0,0.1-0.1,0.1-0.2,0.1l0,0l-0.1,0l-0.4-0.2c-0.2-0.1-0.5-0.2-0.7-0.3l-0.6-0.2
			l-0.7-0.2c-1-0.3-2-0.5-3-0.7c-4.3-0.7-9.4-0.3-14.3,0.1c-4.9,0.3-9.8,1.1-14.7,2.2c-4.5,1-8.7,2.9-12.6,5.3c-3,2-5.6,4.5-7.5,7.5
			c-0.2,0.3-0.4,0.5-0.5,0.8c-0.1,0.3-0.3,0.5-0.4,0.7c-0.2,0.5-0.5,0.9-0.6,1.2c-0.3,0.7-0.5,1-0.5,1s0.2-0.5,0.6-1.5
			c0.2-0.5,0.4-1.1,0.8-1.8c0.4-0.7,0.8-1.5,1.3-2.3c0.5-0.8,1.2-1.7,1.9-2.7c0.7-0.9,1.6-1.9,2.5-2.8c2.1-2,4.4-3.8,6.9-5.2
			c5.9-3.2,12.2-5.6,18.7-7c3.5-0.8,6.8-1.5,10.6-2.1c4.1-0.8,8.3-0.9,12.4-0.4l0.8,0.1l0.9,0.2c0.7,0.2,1,0.3,1.5,0.4l0.2,0
			l0.3,0.1l0.1,0l0.4,0.2l0.9,0.3c0.6,0.3,1.1,0.5,1.7,0.8c2.2,1.1,4.1,2.7,5.7,4.5c1.7,1.9,2.9,4.2,3.7,6.6c0.2,0.7,0.3,1.3,0.4,2
			l0.1,1l0,0.5l0,0.6c0,0.4,0,0.8-0.1,1.2c0,0.1,0,0.3-0.1,0.4l-0.1,0.3l-0.1,0.3l0,0.2l-0.1,0.4l0,0.1l-0.3,1
			c-0.8,2.4-2.1,4.6-3.9,6.3c-1.5,1.5-3.2,2.7-5,3.7c-1.6,0.8-3.2,1.6-4.8,2.2c-0.4,0.1-0.8,0.3-1.2,0.4c-0.3,0.1-0.7,0.2-1,0.3
			c-0.7,0.2-1.4,0.4-2.1,0.6c-4.4,1.3-8.8,2.3-13.3,3.1C1079.5,872.6,1077.6,872.8,1077.6,872.8z"/>
		<path class="st4" d="M1095.2,859.2c-0.3,0.5-0.6,1.1-1,1.5c-0.8,1.1-1.7,2.1-2.6,3c-1,1-2.1,1.9-2.9,2.6c-0.8,0.7-1.3,1.1-1.3,1.1
			s0.3-0.3,0.8-0.8c0.5-0.5,1.2-1.2,2-2.1c2.1-2.1,3.7-4.5,4.8-7.2c0.5-1.4,0.7-2.9,0.6-4.4c-0.1-1.3-0.4-2.5-1-3.6
			c-0.4-0.7-0.9-1.4-1.6-1.9c-0.2-0.2-0.4-0.3-0.6-0.4l-0.2-0.1c-0.3-0.3-0.6-0.5-0.9-0.7c-0.9-0.6-1.9-1-3-1.4
			c-3.3-1.2-6.6-2.2-10-2.8c-3.5-0.7-7-1.1-10.5-1.1c-1.4,0-2.7,0-3.5,0c-0.8,0-1.3,0.1-1.3,0.1s0.7-0.1,1.9-0.2
			c1.2-0.1,3-0.2,5.1-0.2c5.2,0,10.3,0.6,15.3,1.8c1.4,0.4,2.7,0.7,4.1,1.1c1.4,0.4,2.7,1,3.9,1.8c1.2,0.8,2.1,1.9,2.7,3.2
			c0.5,1.1,0.9,2.3,1,3.6c0.1,1.8-0.2,3.7-0.8,5.4c-0.1,0.3-0.2,0.6-0.3,0.8c-0.1,0.1-0.1,0.2-0.2,0.3c0,0.1-0.1,0.2-0.1,0.3
			C1095.3,859,1095.2,859.2,1095.2,859.2z"/>
	</g>
</g>
</svg>
