<svg id="Layer_1" data-name="Layer 1" xmlns="http://www.w3.org/2000/svg" xmlns:xlink="http://www.w3.org/1999/xlink" viewBox="0 0 394.237 328.33503"><defs><style>.cls-1{fill:none;}.cls-2{fill:#e4e9f2;}.cls-3{fill:url(#linear-gradient);}.cls-4{clip-path:url(#clip-path);}.cls-5{stroke:#383776;stroke-miterlimit:10;stroke-width:4px;fill:url(#linear-gradient-2);}.cls-6{fill:#383776;}.cls-7{fill:#fff;}.cls-8{fill:#4bd0e2;}.cls-9{fill:#f2604c;}.cls-10{fill:url(#linear-gradient-3);}</style><linearGradient id="linear-gradient" x1="13.7305" y1="192.92536" x2="380.46448" y2="192.92536" gradientUnits="userSpaceOnUse"><stop offset="0" stop-color="#383776" stop-opacity="0"/><stop offset="0.50002" stop-color="#383776" stop-opacity="0.01588"/><stop offset="0.68011" stop-color="#383776" stop-opacity="0.07339"/><stop offset="0.80845" stop-color="#383776" stop-opacity="0.17352"/><stop offset="0.91155" stop-color="#383776" stop-opacity="0.31534"/><stop offset="1" stop-color="#383776" stop-opacity="0.5"/></linearGradient><clipPath id="clip-path"><path class="cls-1" d="M102.56805,322.12877a28.09312,28.09312,0,0,1-5.79437-.56246c-8.65662-1.80721-13.73432-9.16916-18.69443-19.66959-1.07611-2.27648-2.14113-4.68609-3.17121-7.01582-4.94569-11.18826-10.06056-22.757-19.983-29.08281a145.153,145.153,0,0,0-14.73333-7.90888c-14.253-6.94482-25.51111-12.42967-26.3892-30.44293-1.63691-33.57032,24.60806-72.54783,38.70738-93.48657C68.74313,109.85141,10.63278,5.247,190.88151,2.21762,201.83215,2.03358,300.12,23.90594,307.513,23.42335c1.64523-.1065-13.03947,80.5882-11.3787,80.5882,32.43707,0,64.26564,20.47723,77.40144,49.79745,13.87466,30.96768,6.3879,70.71955-17.80248,94.52164-22.27611,21.92055-54.12021,28.96744-84.91593,35.78135-4.61065,1.02064-9.37772,2.07457-13.98338,3.15512L119.48079,319.48175C114.19064,320.72316,108.196,322.12877,102.56805,322.12877Z"/></clipPath><linearGradient id="linear-gradient-2" x1="79.369" y1="265.07005" x2="398.90002" y2="265.07005" xlink:href="#linear-gradient"/><linearGradient id="linear-gradient-3" x1="132.37854" y1="130.22504" x2="258.99167" y2="130.22504" xlink:href="#linear-gradient"/></defs><title>ReactUniversity_artwork</title><path class="cls-2" d="M73.97154,303.28324c-6.01081-12.72306-10.76-27.36923-21.48835-34.20867-18.89557-12.04615-41.88055-14.52516-43.21828-41.963-1.62236-33.2757,21.64924-69.7685,39.47725-96.2456,16.72169-24.8336,36.01373-49.43325,62.86611-62.67231s63.04438-11.83759,82.86416,10.6012c5.001,5.66178,8.80045,12.4035,14.46314,17.40342,21.19866,18.71756,53.70264,4.72465,81.92226,2.88515,35.88323-2.33906,72.12385,19.49549,86.82635,52.31185,14.70239,32.8161,6.87284,74.39481-18.76251,99.62011-26.70832,26.28112-66.1346,31.93108-101.04863,40.12054q-68.67662,16.10883-137.35376,32.21545c-8.10082,1.9-16.51595,3.8072-24.67072,2.10883C84.87692,323.17055,78.98534,313.89592,73.97154,303.28324Z"/><path class="cls-2" d="M77.85716,301.012C71.53169,287.46033,66.60354,272.40273,53.17,264.20872c-10.11315-6.16869-22.58082-9.60291-31.24532-17.93565-10.98577-10.56512-9.11145-27.83386-5.83939-41.35356,4.117-17.01071,12.2012-32.81606,21.12342-47.76272,17.00029-28.4792,36.70989-59.407,64.746-78.164,24.18947-16.18346,60.534-22.37012,84.40291-1.89282,6.13024,5.25918,10.20787,12.20091,15.45456,18.244a42.15122,42.15122,0,0,0,18.044,12.26692c14.546,5.06647,30.70033,2.18545,45.44591-.35579,15.59048-2.68685,31.00695-5.47464,46.75295-2.23869a88.688,88.688,0,0,1,41.01552,20.57c23.37251,20.87044,32.4278,52.69366,24.76566,82.95634A83.98288,83.98288,0,0,1,355.17959,248.375c-11.58284,11.20672-26.1481,18.66506-41.25943,23.91873-15.29311,5.31686-31.16985,8.65793-46.948,12.16508-18.95129,4.21246-37.824,8.79489-56.72474,13.22793q-29.98568,7.03295-59.97141,14.06566-15.47641,3.62982-30.953,7.25973c-8.973,2.08725-19.77749,4.90563-28.25436-.20918-6.45774-3.8965-10.06648-11.22616-13.21147-17.791-2.50136-5.22131-10.26407-.661-7.77124,4.54247,3.39911,7.09528,7.38086,14.211,13.7097,19.1046,7.31978,5.65982,16.4049,6.60478,25.36277,5.47253,10.42545-1.31776,20.71814-4.355,30.93548-6.75141q15.96013-3.74329,31.92028-7.48654c40.16472-9.42016,80.52635-18.20558,120.58305-28.05985,32.42692-7.97729,65.18207-21.18065,83.19042-51.0718,16.58921-27.5356,18.59548-63.59833,3.551-92.21762-15.09846-28.72188-46.05063-48.057-78.30663-49.98695-17.13727-1.02538-33.86386,3.93813-50.74393,5.962-7.92814.95056-16.24178,1.47041-24.07261-.4258-8.9177-2.1594-15.37769-7.43873-20.874-14.62007-5.09359-6.6552-9.91015-13.01171-16.74744-18.0052a62.36032,62.36032,0,0,0-20.10863-9.53454c-15.01662-4.15709-31.44218-3.39149-46.26246,1.22174-34.35023,10.69248-58.05159,40.79-77.36637,69.4392-10.34317,15.34182-20.39751,31.0114-28.10264,47.876-7.18374,15.72341-12.93354,33.12633-11.989,50.64085C5.53986,241.48113,12.625,252.25489,24.854,259.537c12.14358,7.23126,26.69411,10.7743,34.43543,23.51619,4.3241,7.11728,7.28384,14.97572,10.79653,22.5013C72.53357,310.79829,80.29437,306.23347,77.85716,301.012Z"/><path class="cls-3" d="M102.56916,321.57423a28.16989,28.16989,0,0,1-5.79437-.56246c-8.65662-1.80721-13.73432-9.16916-18.69443-19.66959-1.075-2.27537-2.13947-4.68276-3.169-7.01138-4.94624-11.19048-10.06167-22.76148-19.98521-29.08836a145.153,145.153,0,0,0-14.73333-7.90888c-14.253-6.94482-25.51111-12.42967-26.3892-30.44293-1.63691-33.57032,24.60806-72.54672,38.70793-93.48657C68.74368,109.29688,87.381,85.20524,113.61819,72.26968a79.23646,79.23646,0,0,1,34.3713-7.9932c17.79582,0,33.09439,6.22482,43.07729,17.52735,1.81719,2.05682,3.47185,4.27561,5.22359,6.62531a70.72958,70.72958,0,0,0,9.63788,11.17494c8.20953,7.2499,18.71551,10.77334,32.11812,10.77334,9.75436,0,20.07119-1.80055,30.048-3.5423a222.88392,222.88392,0,0,1,23.05935-3.21725c1.64579-.1065,3.32264-0.16086,4.98452-0.16086,32.43541,0,64.26287,20.47612,77.39922,49.79634,13.8741,30.96768,6.38679,70.72066-17.803,94.52275-22.27556,21.91944-54.11966,28.96633-84.91593,35.78024-4.61009,1.02064-9.37772,2.07457-13.98338,3.15512L119.48135,318.92722C114.19175,320.16863,108.19657,321.57423,102.56916,321.57423Z"/><g class="cls-4"><line class="cls-5" x1="398.90002" y1="265.07005" x2="79.369" y2="265.07005"/><rect class="cls-6" x="99.43392" y="18.51627" width="194.25966" height="247.65266" rx="13.03318" ry="13.03318"/><polygon class="cls-7" points="279.633 233.224 112.31 233.224 112.31 29.881 279.633 29.881 279.633 52.092 279.633 233.224"/><rect class="cls-8" x="132.37854" y="52.97558" width="126.61313" height="154.49891"/><polygon class="cls-9" points="145.632 52.976 145.632 132.876 151.691 128.332 157.75 133.633 157.75 52.976 145.632 52.976"/><g id="pnlzGC.tif"><path class="cls-6" d="M183.504,141.67969a16.47419,16.47419,0,0,1,.599-5.393c0.34709-1.32424-.1132-1.85091-1.33365-2.20752a23.35309,23.35309,0,0,1-6.969-3.43192c-4.486-3.17976-4.58881-8.05335-.25132-11.39382a24.0178,24.0178,0,0,1,6.92071-3.52467c1.92241-.66743,1.94005-0.65846,1.52527-2.69691a21.558,21.558,0,0,1-.1811-8.76721c0.84987-4.08994,4.11226-6.09277,8.14438-4.98535a20.44124,20.44124,0,0,1,8.31611,5.13419c0.87894,0.81037,1.32707.69977,2.14571-.04333a20.81325,20.81325,0,0,1,8.1917-5.06853c4.09829-1.159,7.37557.85642,8.248,5.017a22.40378,22.40378,0,0,1-.14794,8.48122c-0.39914,2.31892-.86616,2.12425,1.80889,3.04684a22.681,22.681,0,0,1,6.75372,3.52849c4.09167,3.223,4.001,8.05985-.22363,11.13406a21.52959,21.52959,0,0,1-6.93975,3.4829c-1.54809.425-1.8525,1.163-1.493,2.6405a19.94346,19.94346,0,0,1,.24015,8.7595c-0.848,4.17-4.13353,6.192-8.22911,5.04086a20.45248,20.45248,0,0,1-8.19137-5.06635c-0.921-.84752-1.38611-0.737-2.25559.04233-2.53129,2.26892-5.22665,4.3306-8.63744,5.14276a6.0673,6.0673,0,0,1-7.59574-4.4981A12.89089,12.89089,0,0,1,183.504,141.67969Zm17.85417-7.409c1.17682,0,2.35364-.00227,3.53045.00064a2.86627,2.86627,0,0,0,2.65123-1.51374c1.32586-2.17866,2.65156-4.3524,3.80065-6.63339a2.543,2.543,0,0,0,.00676-2.50364c-1.14864-2.28122-2.47808-4.45276-3.797-6.63539a2.96636,2.96636,0,0,0-2.7929-1.53371q-3.45693.01376-6.91394,0.00139a2.86575,2.86575,0,0,0-2.7618,1.5842c-0.56228,1.03177-1.26483,1.98731-1.8235,3.02081-3.081,5.69959-3.19428,3.99548.02178,9.58367C196.37977,135.028,195.161,134.20619,201.35817,134.27071Zm-15.52008-27.01835a36.46921,36.46921,0,0,0,.6926,5.91117,1.14328,1.14328,0,0,0,1.60779,1.09127c1.8717-.36291,3.76356-0.62751,5.65309-0.88933a1.91732,1.91732,0,0,0,1.34158-.77852c1.234-1.58244,2.47776-3.15795,3.75113-4.70872a0.88054,0.88054,0,0,0-.02375-1.3951c-2.37887-2.22426-4.8667-4.28485-8.17786-4.94724a3.35771,3.35771,0,0,0-4.11245,2.22214A8.95278,8.95278,0,0,0,185.83808,107.25236Zm30.98943-.09545a9.10328,9.10328,0,0,0-.63417-3.12575,3.43457,3.43457,0,0,0-4.36234-2.4686c-3.24537.69274-5.67036,2.76794-8.03466,4.92273-0.59014.53784-.3537,0.98457,0.07605,1.50594,1.21389,1.47266,2.38957,2.97706,3.567,4.47935a1.93268,1.93268,0,0,0,1.2838.87881c1.98582,0.27972,3.97275.563,5.94478,0.92395a1.03011,1.03011,0,0,0,1.42274-.96871A35.26514,35.26514,0,0,0,216.82751,107.15691Zm11.01833,17.68842a4.34192,4.34192,0,0,0-1.5936-3.04538,20.07951,20.07951,0,0,0-7.76665-4.02621c-0.86111-.27467-1.1035.241-1.34737,0.90328-0.62635,1.70094-1.28552,3.39021-1.95889,5.07323a2.50966,2.50966,0,0,0-.09867,1.98581c0.73151,1.81791,1.42224,3.65226,2.1252,5.4816,0.18144,0.47218.346,0.97679,1.017,0.76845,3.20275-.99449,6.34077-2.11984,8.65295-4.73334A3.672,3.672,0,0,0,227.84585,124.84533Zm-40.01672.18289a5.17357,5.17357,0,0,0-.14611-0.68149c-0.76523-2.01539-1.55276-4.02244-2.303-6.04334-0.303-.81606-0.88387-0.64291-1.44745-0.46062a22.18027,22.18027,0,0,0-6.83729,3.341c-3.02241,2.32159-3.01448,5.05141.01775,7.37589a22.99,22.99,0,0,0,6.99292,3.355,0.95509,0.95509,0,0,0,1.39049-.79316c0.38268-1.1634.81235-2.31213,1.25035-3.45628C187.09587,126.75337,187.487,125.85759,187.82913,125.02822Zm-1.97525,16.69294a11.16743,11.16743,0,0,0,.26295,2.6321c0.69673,3.52727,2.53745,4.61557,5.974,3.44183a19.43629,19.43629,0,0,0,6.68445-4.45671,0.949,0.949,0,0,0,.10374-1.51534c-1.30956-1.58988-2.5816-3.21079-3.85986-4.82625a1.63631,1.63631,0,0,0-1.12178-.61652c-1.98848-.2917-3.97871-0.5776-5.95715-0.92849a0.97686,0.97686,0,0,0-1.34788.88442A35.75131,35.75131,0,0,0,185.85388,141.72116Zm30.95262,0.13492a37.60065,37.60065,0,0,0-.70267-5.38946,1.09077,1.09077,0,0,0-1.54367-.99538c-1.92668.35854-3.87064,0.626-5.81048,0.91068a1.63722,1.63722,0,0,0-1.11709.62521c-1.27841,1.61525-2.55069,3.23589-3.8605,4.82547a0.94707,0.94707,0,0,0,.1202,1.51382c2.08212,1.8841,4.21965,3.69168,6.96639,4.54381,3.20055,0.99292,4.9941-.10357,5.65687-3.40444A10.56463,10.56463,0,0,0,216.8065,141.85608Zm-15.60392-28.79933c0.78494,0,1.57-.00934,2.35478.00258,0.81237,0.01234,1.00608-.30505.49726-0.949-0.63789-.80735-1.31714-1.58187-1.96344-2.38274a0.85863,0.85863,0,0,0-1.55049.02911c-0.61673.76187-1.26262,1.50023-1.87571,2.26494-0.50936.63534-.50885,1.06239,0.47719,1.03888C199.82862,113.04412,200.51576,113.05733,201.20258,113.05675Zm0.34971,23.61813c-0.2216,0-.32056-0.00846-0.41768.00132-0.91352.09194-2.3112-.434-2.63545,0.22925-0.4468.914,0.90034,1.54856,1.45977,2.30285,1.296,1.7475,1.44522,1.74644,2.71233.04346,0.56661-.76152,1.91886-1.45989,1.50675-2.29732C203.79566,136.1775,202.37761,136.82441,201.55229,136.67488Zm-10.04738-20.57459c-3.89218.15086-4.18607,0.58532-2.78983,4.21851,0.05281,0.13742.09489,0.27908,0.15038,0.41534,0.28865,0.70889.6374,0.86515,1.07645,0.11053,0.74044-1.27265,1.47619-2.548,2.22075-3.81828C192.577,116.31946,192.37027,116.02422,191.50492,116.10029Zm19.96056,0.02709c-0.97548-.08173-1.46956.01193-0.99891,0.83813q1.12958,1.98292,2.29358,3.94617c0.4035,0.68273.69944,0.47586,1.0132-.112C215.60392,117.36977,215.04775,116.36368,211.46548,116.12738ZM191.45183,133.6221c0.989,0.11,1.11021-.25292.66827-0.996-0.72749-1.22314-1.43783-2.45655-2.147-3.69046-0.50315-.87542-0.80986-0.58991-1.14646.14029C187.15548,132.70125,187.5497,133.37953,191.45183,133.6221Zm19.62387,0.02429c0.99393-.18877,2.10722-0.37612,3.2083-0.61884a0.765,0.765,0,0,0,.556-1.1412c-0.35775-1.01837-.71918-2.03642-1.11921-3.03859-0.2323-.582-0.59985-0.6344-0.934-0.07061q-1.201,2.02661-2.36594,4.07451C210.08825,133.4363,210.36226,133.66192,211.0757,133.64639Z"/><path class="cls-6" d="M206.48806,124.90583a5.1596,5.1596,0,1,1-5.19089-5.28366A5.23825,5.23825,0,0,1,206.48806,124.90583Z"/></g><rect class="cls-2" x="132.37854" y="178.69528" width="126.61313" height="28.77921"/><circle class="cls-7" cx="191.83032" cy="249.88596" r="5.68011"/><rect class="cls-10" x="132.37854" y="52.97558" width="126.61313" height="154.49891"/></g></svg>