<svg id="Layer_1" data-name="Layer 1" xmlns="http://www.w3.org/2000/svg" viewBox="0 0 58.8205 55.5059"><defs><style>.cls-1{fill:#e4e9f2;}</style></defs><title>ReactUniversity_icon_alt</title><path class="cls-1" d="M9.57271,21.28471c0,1.7887,2.59689,3.14207,4.49727,2.39041l-0.00111-2.39041V8.18445h7.04951V3.69155H2.70175v4.4929h6.871V21.28471Z"/><path class="cls-1" d="M37.70045,3.69155v4.4929h7.15673V21.28471L44.856,23.82381c1.89744,0.75939,4.49409-.66053,4.49409-2.5391V8.18445h6.76868V3.69155H37.70045Z"/><path class="cls-1" d="M43.649,23.313c-0.74984-.2905-1.54943-0.55474-2.38849-0.79354,0.21285-.84607.38391-1.67058,0.50729-2.46523,0.66713-4.29692-.1034-7.31458-2.16983-8.497-2.066-1.18215-5.05854-.31812-8.42516,2.43419-0.53452.43693-1.07023,0.91708-1.60451,1.43066-0.5342-.51366-1.06983-0.99393-1.60427-1.431-3.36639-2.75283-6.35865-3.61717-8.42508-2.43518-2.06643,1.18215-2.83728,4.19985-2.17063,8.49708,0.116,0.74761.27311,1.52121,0.46837,2.31471-0.92233.24708-1.79985,0.52385-2.617,0.83306-4.067,1.5388-6.31209,3.69757-6.3214,6.07842-0.00645,1.61991,1.02518,3.14474,2.96106,4.44919L11.85876,33.728a34.80949,34.80949,0,0,0,4.99772,8.7124c0.17226,2.29329.97352,3.92638,2.36589,4.72318a4.03216,4.03216,0,0,0,2.03459.51613c1.81219,0,4.00757-1.00221,6.39065-2.95036,0.63951-.52286,1.28077-1.10569,1.91917-1.73724,0.63824,0.63155,1.27934,1.21443,1.91877,1.73724q0.44632,0.36495.88341,0.68548l-0.00478.00008a4.24642,4.24642,0,0,1-5.46792-.05811L26.87111,45.334c-1.90245,1.4149-3.45665,3.86524-2.53918,4.6027L24.43,50.01527a8.28861,8.28861,0,0,0,10.3277-.0121l0.09218-.07371c0.828-.66339-0.61316-3.14335-2.48035-4.51419a9.83764,9.83764,0,0,0,5.50725,2.26539,4.03215,4.03215,0,0,0,2.03372-.51581c1.42652-.816,2.235-2.50718,2.38014-4.88947a36.03335,36.03335,0,0,0,4.73687-8.47889c1.87913-1.27393,2.88839-2.76441,2.89467-4.35523C49.93156,27.06045,47.70385,24.88417,43.649,23.313ZM32.22162,15.27419c2.06707-1.68988,3.927-2.57981,5.32178-2.57981a2.44462,2.44462,0,0,1,1.23166.30093c1.4079,0.80548,1.9019,3.286,1.35544,6.80493-0.11534.74267-.2747,1.51384-0.47338,2.30611a42.15746,42.15746,0,0,0-5.17053-.84607,42.06321,42.06321,0,0,0-3.75452-4.65894C31.22853,16.12516,31.72587,15.67948,32.22162,15.27419ZM22.46307,33.51455q0.65265,1.14082,1.34764,2.22273a39.66854,39.66854,0,0,1-4.20084-.71939,39.73275,39.73275,0,0,1,1.495-4.03655Q21.74065,32.2492,22.46307,33.51455ZM19.885,23.57387c1.14752-.24688,2.35737-0.44672,3.61514-0.59637q-0.6942,1.08482-1.35114,2.2277-0.5299.926-1.01284,1.85692C20.6485,25.87576,20.228,24.70726,19.885,23.57387Zm2.11626,5.45642c0.48612-.99966,1.01427-2.00347,1.58588-3.00249,0.64675-1.13017,1.32575-2.218,2.02767-3.253,1.244-.08919,2.52246-0.13142,3.82194-0.12362,1.40591,0.00557,2.78618.06981,4.12586,0.18579,0.687,1.01666,1.35194,2.08386,1.9858,3.19178,0.57145,0.99895,1.09936,2.00263,1.5854,3.00229-0.569,1.21673-1.203,2.44266-1.90046,3.66151-0.64532,1.12766-1.32272,2.21329-2.02289,3.24619-1.24654.09035-2.52684,0.13476-3.82672,0.1307-1.17443-.00462-2.3307-0.05079-3.461-0.13285-0.69969-1.03246-1.37661-2.11757-2.02146-3.24468C23.20391,31.47311,22.57005,30.2471,22.00123,29.03029Zm14.67023,4.48494q0.72249-1.2626,1.35846-2.53293a39.72588,39.72588,0,0,1,1.49235,4.02978,38.85833,38.85833,0,0,1-4.19726.72341Q36.01682,34.65419,36.67145,33.51522ZM37.99911,27.063q-0.48369-.92983-1.0126-1.85684-0.62614-1.09455-1.2916-2.13465c1.22362,0.16449,2.40083.37532,3.51564,0.63135C38.8748,24.79625,38.4686,25.92113,37.99911,27.063ZM32.317,21.08484q-1.41633-.0834-2.87374-0.09051c-0.87561-.00295-1.74277.01767-2.59944,0.05707a38.74336,38.74336,0,0,1,2.72441-3.27063A38.82386,38.82386,0,0,1,32.317,21.08484ZM20.36185,12.994a2.44267,2.44267,0,0,1,1.23118-.30061c1.39476,0,3.25511.89025,5.322,2.58045,0.49567,0.40533.99294,0.85109,1.48941,1.32734a41.95366,41.95366,0,0,0-3.7105,4.59395,42.92967,42.92967,0,0,0-5.24687.78371c-0.184-.748-0.33233-1.47663-0.44146-2.1799C18.45972,16.27967,18.9538,13.79947,20.36185,12.994ZM15.77009,33.8628q-0.31128-.12065-0.60584-0.24565,0.29456,0.125.60592,0.24565c0.27948,0.10826.56771,0.212,0.862,0.31235C16.33868,34.0743,16.04957,33.97106,15.77009,33.8628ZM18.004,34.60611c-0.13309-.03793-0.263-0.07777-0.3937-0.11709a25.85462,25.85462,0,0,1-3.23887-9.1264c0.44377-.21229.91978-0.41754,1.43464-0.61241,0.77006-.29142,1.59727-0.55322,2.4673-0.78741A41.95894,41.95894,0,0,0,20.17288,29.017,42.94431,42.94431,0,0,0,18.004,34.60611Zm8.595,8.84044c-0.33066.2704-.65344,0.51151-0.97208,0.73937a48.27625,48.27625,0,0,1-6.51754-7.3449c0.01831-.07566.03487-0.15045,0.054-0.22662a42.87545,42.87545,0,0,0,5.84372.9096,42.54689,42.54689,0,0,0,3.41192,4.27419C27.81287,42.39829,27.20472,42.95135,26.599,43.44655Zm0.559-5.77709q1.09849,0.05063,2.21926.05691,0.10531,0.00048.21023,0.00032c0.80476,0,1.601-.02038,2.38826-0.0562-0.786,1.05121-1.59241,2.0322-2.40871,2.92874C28.75056,39.70242,27.944,38.72106,27.15791,37.66946Zm6.506,6.63391a13.39874,13.39874,0,0,0,1.57808.96157A13.35711,13.35711,0,0,1,33.66391,44.30337Zm-0.00072-.00048c-0.36831-.2583-0.74442-0.54184-1.12866-0.856-0.60568-.49535-1.21375-1.04846-1.81975-1.64865a42.5481,42.5481,0,0,0,3.41065-4.27141,41.97526,41.97526,0,0,0,5.84372-.91756c0.02643,0.10539.05063,0.20951,0.07562,0.31414A37.6238,37.6238,0,0,1,33.66319,44.30289Zm6.11937,0.79831a4.93528,4.93528,0,0,0,.8175-2.42233A4.93448,4.93448,0,0,1,39.78256,45.10121ZM44.528,25.50362a28.36484,28.36484,0,0,1-3.04249,8.98491c-0.11837.03606-.239,0.07076-0.35932,0.10567a42.97109,42.97109,0,0,0-2.1641-5.57626,42.16133,42.16133,0,0,0,1.8543-4.90336c0.7855,0.22416,1.53295.47179,2.23391,0.74339,0.53094,0.20569,1.02128.42212,1.47771,0.64564a11.27666,11.27666,0,0,1,2.19857,1.36969A11.31087,11.31087,0,0,0,44.528,25.50362Z"/><circle class="cls-1" cx="29.356" cy="29.42973" r="3.60956" transform="translate(-10.73894 18.46251) rotate(-29.77387)"/></svg>