<svg id="Layer_1" data-name="Layer 1" xmlns="http://www.w3.org/2000/svg" xmlns:xlink="http://www.w3.org/1999/xlink" viewBox="0 0 361.19666 358.33045"><defs><style>.cls-1,.cls-10,.cls-14,.cls-6,.cls-7,.cls-8,.cls-9{fill:none;}.cls-2{fill:#e4e9f2;}.cls-3{clip-path:url(#clip-path);}.cls-4{fill:#383776;}.cls-5{fill:#fff;}.cls-6{stroke:#fff;stroke-miterlimit:10;}.cls-10,.cls-14,.cls-6,.cls-7,.cls-8,.cls-9{stroke-linecap:round;}.cls-14,.cls-6{stroke-width:3px;}.cls-7{stroke:#e4e9f2;}.cls-10,.cls-14,.cls-7,.cls-8,.cls-9{stroke-linejoin:round;}.cls-10,.cls-7,.cls-8,.cls-9{stroke-width:4px;}.cls-8{stroke:#f2604c;}.cls-9{stroke:#83c48d;}.cls-10{stroke:#4bd0e2;}.cls-11{fill:url(#linear-gradient);}.cls-12{fill:#4bd0e2;}.cls-13{fill:url(#linear-gradient-2);}.cls-14{stroke:#383776;}.cls-15{clip-path:url(#clip-path-2);}.cls-16{fill:#fcdfdb;}.cls-17{fill:#fabfb7;}.cls-18{fill:#f7a094;}.cls-19{fill:#f58070;}.cls-20{fill:#f2604c;}.cls-21{fill:url(#linear-gradient-3);}</style><clipPath id="clip-path"><path class="cls-1" d="M45.5227,18.54575C112.5993-16.92914,267.54318,13.0925,316.40891,74.529c34.12625,42.90528,5.88288,102.559,20.11406,154.478,10.95434,39.9643,44.34644,93.37172-5.867,117.091C294.00254,363.412,187.08923,340.73185,149.2489,329.7513c-52.55343-15.25-75.50559-26.5527-75.38714-82.10634,0.12288-57.6351,14.18038-53.01823-25.01573-97.78207C13.61625,109.62881-27.1837,56.99808,45.5227,18.54575Z"/></clipPath><linearGradient id="linear-gradient" x1="4.62765" y1="179.38749" x2="357.07068" y2="179.38749" gradientUnits="userSpaceOnUse"><stop offset="0" stop-color="#383776" stop-opacity="0"/><stop offset="0.50002" stop-color="#383776" stop-opacity="0.01588"/><stop offset="0.68011" stop-color="#383776" stop-opacity="0.07339"/><stop offset="0.80845" stop-color="#383776" stop-opacity="0.17352"/><stop offset="0.91155" stop-color="#383776" stop-opacity="0.31534"/><stop offset="1" stop-color="#383776" stop-opacity="0.5"/></linearGradient><linearGradient id="linear-gradient-2" x1="91.49702" y1="134.55129" x2="203.91308" y2="134.55129" xlink:href="#linear-gradient"/><clipPath id="clip-path-2"><rect class="cls-1" x="95.94995" y="66.50468" width="103.5102" height="131.38333"/></clipPath><linearGradient id="linear-gradient-3" x1="95.96358" y1="132.23401" x2="199.47378" y2="132.23401" xlink:href="#linear-gradient"/></defs><title>ReactUniversity_artwork</title><path class="cls-2" d="M44.02277,20.04568c67.0766-35.47489,222.02048-5.45325,270.88621,55.98326,34.12625,42.90528,5.88288,102.559,20.11405,154.478,10.95434,39.9643,44.34644,93.37172-5.867,117.091-36.65347,17.31395-143.56678-5.36616-181.40711-16.34671-52.55343-15.25-75.50559-26.5527-75.38714-82.10634,0.12288-57.6351,14.18038-53.01823-25.01573-97.78207C12.11633,111.12873-28.68362,58.498,44.02277,20.04568Z"/><g class="cls-3"><path class="cls-4" d="M117.235,125.54731H350.17166a7.747,7.747,0,0,1,7.747,7.747V355.06322a0,0,0,0,1,0,0H109.488a0,0,0,0,1,0,0V133.29431A7.747,7.747,0,0,1,117.235,125.54731Z"/><circle class="cls-5" cx="126.27642" cy="141.53082" r="4.03877"/><circle class="cls-5" cx="141.92055" cy="141.53082" r="4.03877"/><circle class="cls-5" cx="157.28259" cy="141.53082" r="4.03877"/><line class="cls-6" x1="99.03736" y1="157.46857" x2="366.79153" y2="157.46857"/><line class="cls-7" x1="133.94088" y1="177.4632" x2="127.60201" y2="177.4632"/><line class="cls-7" x1="133.94088" y1="200.23142" x2="127.60201" y2="200.23142"/><line class="cls-7" x1="133.94088" y1="222.99963" x2="127.60201" y2="222.99963"/><line class="cls-7" x1="133.94088" y1="245.76784" x2="127.60201" y2="245.76784"/><line class="cls-7" x1="133.94088" y1="268.53605" x2="127.60201" y2="268.53605"/><line class="cls-7" x1="133.94088" y1="291.30426" x2="127.60201" y2="291.30426"/><line class="cls-7" x1="133.94088" y1="314.07247" x2="127.60201" y2="314.07247"/><line class="cls-7" x1="133.94088" y1="336.84069" x2="127.60201" y2="336.84069"/><line class="cls-8" x1="185.97052" y1="177.4632" x2="154.61136" y2="177.4632"/><line class="cls-9" x1="252.902" y1="177.4632" x2="196.40145" y2="177.4632"/><line class="cls-10" x1="335.82628" y1="177.4632" x2="261.60227" y2="177.4632"/><line class="cls-10" x1="211.1812" y1="200.23142" x2="154.61136" y2="200.23142"/><line class="cls-8" x1="239.8688" y1="200.23142" x2="222.48496" y2="200.23142"/><line class="cls-9" x1="304.19962" y1="200.23142" x2="249.43384" y2="200.23142"/><line class="cls-10" x1="335.82628" y1="200.23142" x2="313.76647" y2="200.23142"/><line class="cls-10" x1="179.01552" y1="222.99963" x2="154.61136" y2="222.99963"/><line class="cls-9" x1="253.77841" y1="222.99963" x2="188.58022" y2="222.99963"/><line class="cls-8" x1="335.82628" y1="222.99963" x2="264.21039" y2="222.99963"/><line class="cls-9" x1="206.83449" y1="245.76784" x2="154.61136" y2="245.76784"/><line class="cls-10" x1="237.8415" y1="245.76784" x2="215.23873" y2="245.76784"/><line class="cls-8" x1="292.60856" y1="245.76784" x2="247.40609" y2="245.76784"/><line class="cls-10" x1="335.82628" y1="245.76784" x2="300.72402" y2="245.76784"/><line class="cls-8" x1="182.05863" y1="268.53605" x2="154.61136" y2="268.53605"/><line class="cls-10" x1="251.46019" y1="268.53605" x2="191.33141" y2="268.53605"/><line class="cls-9" x1="294.20164" y1="268.53605" x2="259.42824" y2="268.53605"/><line class="cls-8" x1="335.82628" y1="268.53605" x2="302.02632" y2="268.53605"/><line class="cls-9" x1="211.18115" y1="291.30426" x2="154.61136" y2="291.30426"/><line class="cls-8" x1="276.8157" y1="291.30426" x2="219.00355" y2="291.30426"/><line class="cls-10" x1="335.82628" y1="291.30426" x2="285.07435" y2="291.30426"/><line class="cls-10" x1="185.10153" y1="314.07247" x2="154.61136" y2="314.07247"/><line class="cls-9" x1="237.26111" y1="314.07247" x2="192.92658" y2="314.07247"/><line class="cls-10" x1="298.54899" y1="314.07247" x2="245.52045" y2="314.07247"/><line class="cls-8" x1="335.82628" y1="314.07247" x2="305.93836" y2="314.07247"/><line class="cls-9" x1="210.74656" y1="336.84069" x2="154.61136" y2="336.84069"/><line class="cls-10" x1="273.3384" y1="336.84069" x2="218.1356" y2="336.84069"/><line class="cls-9" x1="335.82628" y1="336.84069" x2="281.1645" y2="336.84069"/></g><path class="cls-11" d="M45.02357,20.04568c67.0766-35.47489,222.02048-5.45325,270.88621,55.98326,34.12625,42.90528,5.88288,102.559,20.11405,154.478,10.95434,39.9643,44.34644,93.37172-5.867,117.091-36.65347,17.31395-143.56678-5.36616-181.40711-16.34671-52.55343-15.25-75.50559-26.5527-75.38714-82.10634,0.12288-57.6351,14.18038-53.01823-25.01573-97.78207C13.11713,111.12873-27.68282,58.498,45.02357,20.04568Z"/><path class="cls-2" d="M47.32374,24.98669C77.96083,8.986,116.1389,8.67655,149.72641,11.73314c39.2852,3.57509,79.16143,13.62266,114.41746,31.563,15.08974,7.67855,29.65728,16.964,41.59342,29.07673,15.49029,15.71943,22.16813,35.47766,23.24332,57.256,1.19985,24.30338-2.61678,48.54408-1.614,72.85271a138.39191,138.39191,0,0,0,5.6258,34.68809c2.75153,9.049,6.11859,17.89739,9.27475,26.80919,5.91857,16.71181,13.4188,36.28,9.31,54.24869-3.91351,17.11464-19.75416,27.07888-36.09564,30.23912-17.38,3.36106-35.80213,2.20129-53.31338.64424a581.28783,581.28783,0,0,1-59.80741-8.81779c-16.36048-3.19361-32.67184-6.8252-48.73611-11.29025-16.769-4.66094-34.46154-9.43067-49.45161-18.55241C72.29516,291.05214,76.76376,249.33926,79.526,217.14171c1.05116-12.25289,1.79347-23.85954-3.65843-35.25277-7.72185-16.13691-21.60473-29.19066-32.968-42.72024C22.405,114.767-6.24392,76.58787,19.55078,45.986c7.57307-8.98442,17.50561-15.49087,27.773-20.99928,5.1057-2.7392.5656-10.5117-4.54247-7.77124C24.2014,27.1835,4.9851,42.06747,1.024,64.10026c-3.18989,17.74314,3.55853,35.21011,12.55337,50.238,10.587,17.688,24.598,32.7938,37.82669,48.47283,9.06049,10.73873,19.45909,22.65267,20.0026,37.40051,0.25722,6.97953-.64808,13.98917-1.22066,20.93272-0.875,10.61055-1.41723,21.26485-1.27964,31.91451,0.2271,17.5782,2.772,36.2356,13.87061,50.50724,10.21529,13.13576,25.85523,20.18836,41.15185,25.627a460.9402,460.9402,0,0,0,50.50078,14.33679c39.51661,9.14874,81.09152,17.09656,121.81948,15.82863,17.06853-.53137,33.99191-3.16428,47.82289-13.91775,15.97305-12.41892,19.398-31.35277,16.32448-50.43725-3.23071-20.06034-11.93465-38.73139-18.02883-57.98478-7.6235-24.085-6.35772-48.75585-5.00908-73.65289,1.30145-24.02586,2.40211-49.17582-7.45566-71.726C322.29739,74.24191,308.27525,60.841,292.995,50.04647,260.09471,26.80456,219.56019,13.82375,180.23541,6.83933,142.54877,0.14585,101.53919-2.2015,64.35977,8.63339a117.76,117.76,0,0,0-21.5785,8.58206C37.64543,19.89773,42.19036,27.66768,47.32374,24.98669Z"/><rect class="cls-12" x="91.49702" y="42.05759" width="112.41606" height="184.9874" rx="8.51525" ry="8.51525"/><rect class="cls-13" x="91.49702" y="42.05759" width="112.41606" height="184.9874" rx="8.51525" ry="8.51525"/><rect class="cls-5" x="95.94995" y="66.50468" width="103.5102" height="131.38333"/><circle class="cls-4" cx="147.70505" cy="211.41196" r="6.43998"/><line class="cls-14" x1="168.31298" y1="54.26871" x2="127.09711" y2="54.26871"/><g class="cls-15"><circle class="cls-5" cx="148.97025" cy="139.17567" r="83.70452" transform="translate(-2.62999 275.48183) rotate(-85.01238)"/><circle class="cls-16" cx="146.96865" cy="157.47357" r="72.8217" transform="translate(-22.68619 290.19488) rotate(-85.01238)"/><circle class="cls-17" cx="146.96865" cy="173.38715" r="58.55647" transform="translate(-38.5395 304.72492) rotate(-85.01238)"/><circle class="cls-18" cx="146.96865" cy="189.30072" r="44.29124" transform="translate(-54.39282 319.25497) rotate(-85.01238)"/><circle class="cls-19" cx="146.96865" cy="205.2143" r="30.02601" transform="translate(-70.24614 333.78501) rotate(-85.01238)"/><circle class="cls-20" cx="148.97025" cy="215.65317" r="15.14864" transform="translate(-78.81791 345.31034) rotate(-85.01238)"/></g><rect class="cls-21" x="95.96358" y="66.54234" width="103.5102" height="131.38333"/></svg>