<svg id="Layer_1" data-name="Layer 1" xmlns="http://www.w3.org/2000/svg" xmlns:xlink="http://www.w3.org/1999/xlink" viewBox="0 0 291.80653 323.88281"><defs><style>.cls-1,.cls-7,.cls-9{fill:none;}.cls-2{fill:#e4e9f2;}.cls-3{clip-path:url(#clip-path);}.cls-4{fill:#4bd0e2;}.cls-5{fill:#fff;}.cls-6{fill:url(#linear-gradient);}.cls-7{stroke:#e4e9f2;stroke-width:9px;}.cls-7,.cls-9{stroke-miterlimit:10;}.cls-8{fill:#383776;}.cls-9{stroke:#383776;stroke-linecap:round;stroke-width:3px;}.cls-10{fill:url(#linear-gradient-2);}.cls-11{fill:#f2604c;}.cls-12{fill:url(#linear-gradient-3);}</style><clipPath id="clip-path"><path class="cls-1" d="M264.43719,42.415c-27.9235-25.2483-74.06088-18.25022-107.29212-8.94938C128.26179,41.5496,99.75343,52.50082,71.18339,61.84894,50.39,68.65253,29.39957,79.37175,18.3187,98.23618c-6.8025,11.58078-9.239,25.2936-9.293,38.72437a120.52344,120.52344,0,0,0,12.25522,53.31613c17.56133,35.81465,53.7132,67.25619,84.90675,91.19925,19.81368,15.20828,42.93231,27.17425,67.80031,29.50991,40.16492,3.77238,75.42231-21.90612,87.21719-59.93793,5.12346-16.52031,4.84809-35.06866-2.83834-50.56348-6.4941-13.09123-17.72415-23.26054-24.98781-35.94095-2.82812-4.93714-5.07854-10.47413-4.69494-16.151,0.674-9.97384,9.09311-17.58,17.55387-22.90436,16.51938-10.39571,31.02039-20.94219,33.63774-41.88614A48.27276,48.27276,0,0,0,264.43719,42.415Z"/></clipPath><linearGradient id="linear-gradient" x1="10.02558" y1="168.16344" x2="281.22393" y2="168.16344" gradientUnits="userSpaceOnUse"><stop offset="0" stop-color="#383776" stop-opacity="0"/><stop offset="0.27036" stop-color="#383776" stop-opacity="0.03152"/><stop offset="0.5237" stop-color="#383776" stop-opacity="0.12746"/><stop offset="0.76938" stop-color="#383776" stop-opacity="0.28733"/><stop offset="1" stop-color="#383776" stop-opacity="0.5"/></linearGradient><linearGradient id="linear-gradient-2" x1="74.5192" y1="21.36745" x2="221.56803" y2="21.36745" gradientUnits="userSpaceOnUse"><stop offset="0" stop-color="#383776" stop-opacity="0"/><stop offset="0.50002" stop-color="#383776" stop-opacity="0.01588"/><stop offset="0.68011" stop-color="#383776" stop-opacity="0.07339"/><stop offset="0.80845" stop-color="#383776" stop-opacity="0.17352"/><stop offset="0.91155" stop-color="#383776" stop-opacity="0.31534"/><stop offset="1" stop-color="#383776" stop-opacity="0.5"/></linearGradient><linearGradient id="linear-gradient-3" x1="85.91168" y1="111.82599" x2="207.91016" y2="111.82599" xlink:href="#linear-gradient-2"/></defs><title>ReactUniversity_artwork</title><path class="cls-2" d="M264.43719,42.415c-27.9235-25.2483-74.06088-18.25022-107.29212-8.94938C128.26179,41.5496,99.75343,52.50082,71.18339,61.84894,50.39,68.65253,29.39957,79.37175,18.3187,98.23618c-6.8025,11.58078-9.239,25.2936-9.293,38.72437a120.52344,120.52344,0,0,0,12.25522,53.31613c17.56133,35.81465,53.7132,67.25619,84.90675,91.19925,19.81368,15.20828,42.93231,27.17425,67.80031,29.50991,40.16492,3.77238,75.42231-21.90612,87.21719-59.93793,5.12346-16.52031,4.84809-35.06866-2.83834-50.56348-6.4941-13.09123-17.72415-23.26054-24.98781-35.94095-2.82812-4.93714-5.07854-10.47413-4.69494-16.151,0.674-9.97384,9.09311-17.58,17.55387-22.90436,16.51938-10.39571,31.02039-20.94219,33.63774-41.88614A48.27276,48.27276,0,0,0,264.43719,42.415Z"/><g class="cls-3"><circle class="cls-4" cx="173.4732" cy="254.21615" r="118"/></g><circle class="cls-5" cx="49.62683" cy="110.2368" r="4.49978"/><circle class="cls-5" cx="65.80653" cy="184.88281" r="4.49978" transform="translate(-111.4576 100.68317) rotate(-45)"/><circle class="cls-5" cx="103.80653" cy="197.75563" r="3.12718"/><circle class="cls-5" cx="74.74718" cy="146.68183" r="7.37303" transform="translate(-18.86275 11.25701) rotate(-7.65065)"/><circle class="cls-5" cx="35.74718" cy="154.68183" r="9.02095" transform="translate(-20.27498 6.13606) rotate(-7.65065)"/><path class="cls-6" d="M265.438,42.415c-27.9235-25.2483-74.06088-18.25022-107.29212-8.94938-28.88329,8.08393-57.39164,19.03516-85.96168,28.38328C51.39084,68.65253,30.40037,79.37175,19.3195,98.23618c-6.8025,11.58078-9.239,25.2936-9.293,38.72437a120.52344,120.52344,0,0,0,12.25522,53.31613c17.56133,35.81465,53.7132,67.25619,84.90675,91.19925,19.81368,15.20828,42.93231,27.17425,67.80031,29.50991,40.16492,3.77238,75.42231-21.90612,87.21719-59.93793,5.12346-16.52031,4.84809-35.06866-2.83834-50.56348-6.49409-13.09123-17.72415-23.26054-24.98781-35.94095-2.82812-4.93714-5.07854-10.47413-4.69494-16.151,0.674-9.97384,9.09311-17.58,17.55387-22.90436,16.51938-10.39571,31.02039-20.94219,33.63774-41.88614A48.27276,48.27276,0,0,0,265.438,42.415Z"/><path class="cls-7" d="M264.43719,42.415c-27.9235-25.2483-74.06088-18.25022-107.29212-8.94938C128.26179,41.5496,99.75343,52.50082,71.18339,61.84894,50.39,68.65253,29.39957,79.37175,18.3187,98.23618c-6.8025,11.58078-9.239,25.2936-9.293,38.72437a120.52344,120.52344,0,0,0,12.25522,53.31613c17.56133,35.81465,53.7132,67.25619,84.90675,91.19925,19.81368,15.20828,42.93231,27.17425,67.80031,29.50991,40.16492,3.77238,75.42231-21.90612,87.21719-59.93793,5.12346-16.52031,4.84809-35.06866-2.83834-50.56348-6.4941-13.09123-17.72415-23.26054-24.98781-35.94095-2.82812-4.93714-5.07854-10.47413-4.69494-16.151,0.674-9.97384,9.09311-17.58,17.55387-22.90436,16.51938-10.39571,31.02039-20.94219,33.63774-41.88614A48.27276,48.27276,0,0,0,264.43719,42.415Z"/><g id="pnlzGC.tif"><path class="cls-8" d="M119.78165,269.39408a22.711,22.711,0,0,1,.82584-7.43471c0.4785-1.82558-.15606-2.55163-1.83855-3.04324a32.19417,32.19417,0,0,1-9.60739-4.73119c-6.18427-4.38356-6.32605-11.10221-.34647-15.70732a33.11052,33.11052,0,0,1,9.54077-4.859c2.65021-.92011,2.67452-0.90775,2.10272-3.71791a29.71945,29.71945,0,0,1-.24966-12.08633c1.17162-5.63833,5.66909-8.39939,11.2277-6.87271,4.49689,1.23508,8.11766,3.99223,11.46444,7.0779,1.21169,1.11716,1.82948.96469,2.958-.05973,3.32051-3.01411,6.879-5.73913,11.29294-6.98739,5.64984-1.59778,10.16783,1.18064,11.37049,6.91637a30.88546,30.88546,0,0,1-.20394,11.69206c-0.55025,3.19683-1.19407,2.92846,2.49371,4.20033a31.26767,31.26767,0,0,1,9.31056,4.86431c5.6407,4.4432,5.51574,11.11117-.30829,15.34922a29.68031,29.68031,0,0,1-9.567,4.80147c-2.13417.58588-2.55382,1.60325-2.05823,3.64015a27.49371,27.49371,0,0,1,.33107,12.0757c-1.169,5.74868-5.69841,8.53623-11.34451,6.94925-4.417-1.24151-7.99429-3.94918-11.29248-6.98438-1.26961-1.16838-1.91086-1.01606-3.10951.05835-3.48959,3.12789-7.20537,5.97009-11.90743,7.08973a8.36427,8.36427,0,0,1-10.47136-6.201A17.77117,17.77117,0,0,1,119.78165,269.39408ZM144.3951,259.1802c1.62234,0,3.24468-.00313,4.867.00088a3.95139,3.95139,0,0,0,3.65494-2.08681c1.8278-3.00347,3.6554-6.00014,5.23951-9.14468a3.50576,3.50576,0,0,0,.00931-3.45148c-1.5835-3.14485-3.41623-6.1385-5.23453-9.14744a4.08937,4.08937,0,0,0-3.85024-2.11435q-4.76567.019-9.53144,0.00192a3.95068,3.95068,0,0,0-3.80737,2.18394c-0.77515,1.42239-1.74367,2.73967-2.51385,4.16443-4.24745,7.85736-4.40357,5.50809.03,13.21189C137.532,260.22413,135.85173,259.09124,144.3951,259.1802Zm-21.39572-37.247a50.27581,50.27581,0,0,0,.95481,8.149c0.22393,1.35123.83822,1.77165,2.21647,1.50441,2.58029-.5003,5.18838-0.86507,7.79325-1.226a2.64319,2.64319,0,0,0,1.84947-1.07325c1.70121-2.18153,3.4158-4.35349,5.17124-6.49137a1.2139,1.2139,0,0,0-.03274-1.92327c-3.27947-3.06633-6.70915-5.907-11.27386-6.82017a4.62889,4.62889,0,0,0-5.66935,3.0634A12.34214,12.34214,0,0,0,122.99938,221.93316Zm42.72149-.13158a12.54963,12.54963,0,0,0-.87426-4.30911c-1.028-2.85425-3.04318-4.03728-6.01385-3.40317-4.474.955-7.81706,3.81584-11.07644,6.78639-0.81356.74146-.4876,1.35731,0.10484,2.07606,1.67345,2.03019,3.29422,4.10412,4.91747,6.17515a2.66437,2.66437,0,0,0,1.76982,1.21151c2.73762,0.38561,5.47677.77613,8.19538,1.27374a1.42009,1.42009,0,0,0,1.96137-1.33545A48.61592,48.61592,0,0,0,165.72087,221.80158Zm15.18969,24.385a5.9857,5.9857,0,0,0-2.1969-4.19831c-3.06542-2.81054-6.81913-4.31035-10.707-5.55046-1.18711-.37866-1.52126.33225-1.85746,1.24524-0.86348,2.34489-1.77219,4.67369-2.70049,6.99386a3.45977,3.45977,0,0,0-.136,2.7376c1.00844,2.50614,1.96068,5.03494,2.92977,7.55684,0.25014,0.65094.477,1.34659,1.402,1.05938,4.41526-1.371,8.74127-2.92238,11.92881-6.52531A5.06219,5.06219,0,0,0,180.91055,246.18653Zm-55.16636.25212a7.13219,7.13219,0,0,0-.20143-0.93949c-1.05493-2.77838-2.1406-5.54526-3.17488-8.33124-0.41766-1.125-1.21849-.88631-1.99543-0.635a30.57734,30.57734,0,0,0-9.42577,4.60587c-4.16665,3.20051-4.15571,6.96379.02446,10.16827a31.69359,31.69359,0,0,0,9.64031,4.62516c1.141,0.37572,1.58893-.09635,1.9169-1.09344,0.52755-1.60384,1.11989-3.18747,1.72372-4.76476C124.73334,248.81692,125.27255,247.582,125.7442,246.43865Zm-2.723,23.0126a15.39523,15.39523,0,0,0,.3625,3.62856c0.96049,4.86264,3.49809,6.36295,8.23559,4.74485,3.60123-1.23,6.45734-3.62225,9.21506-6.14394a1.30831,1.30831,0,0,0,.143-2.089c-1.80534-2.19178-3.55894-4.42634-5.32113-6.65338a2.25579,2.25579,0,0,0-1.54647-.84993c-2.74128-.40213-5.485-0.79627-8.21243-1.28a1.34668,1.34668,0,0,0-1.85816,1.21924A49.28615,49.28615,0,0,0,123.02116,269.45125Zm42.67075,0.186a51.83561,51.83561,0,0,0-.96869-7.42982c-0.23188-1.29945-.86818-1.60669-2.12808-1.37222-2.65608.49428-5.336,0.863-8.01022,1.25545a2.257,2.257,0,0,0-1.54.86191c-1.7624,2.22675-3.51634,4.46094-5.322,6.65232a1.30561,1.30561,0,0,0,.16571,2.08693c2.87037,2.59738,5.81714,5.08928,9.60374,6.264,4.41222,1.36882,6.88479-.14278,7.79846-4.6933A14.56421,14.56421,0,0,0,165.6919,269.63725ZM144.18061,229.935c1.08211,0,2.16441-.01288,3.24627.00356,1.11992,0.017,1.387-.42054.68552-1.30833-0.87938-1.113-1.81579-2.18074-2.70677-3.28481-0.74479-.92292-1.42723-0.83725-2.13748.04014-0.85022,1.05031-1.74062,2.06819-2.58582,3.12241-0.7022.87587-.70149,1.46459,0.65785,1.43218C142.28649,229.91757,143.23376,229.93579,144.18061,229.935Zm0.48211,32.55955c-0.3055,0-.44192-0.01166-0.57581.00182-1.25936.12674-3.18618-.59835-3.63318,0.316-0.616,1.26,1.2412,2.13482,2.01241,3.17467,1.7867,2.40907,1.99235,2.40761,3.73917.05992,0.78113-1.04982,2.64531-2.01258,2.07718-3.167C147.75539,261.80885,145.80049,262.70068,144.66272,262.49454Zm-13.85114-28.36378c-5.36569.208-5.77085,0.80692-3.846,5.81556,0.0728,0.18945.13082,0.38473,0.20731,0.57258,0.39792,0.97727.87871,1.19267,1.484,0.15237,1.02076-1.75445,2.03506-3.51269,3.06149-5.26381C132.28958,234.4329,132.00453,234.02589,130.81158,234.13076Zm27.51728,0.03734c-1.34477-.11267-2.02591.01645-1.37708,1.15543q1.55723,2.73362,3.16189,5.44012c0.55626,0.9412.96424,0.656,1.39677-.1544C164.03405,235.88085,163.26732,234.49387,158.32886,234.1681ZM130.73839,258.286c1.36342,0.15162,1.53051-.34868.92127-1.373-1.0029-1.6862-1.98217-3.38656-2.95985-5.0876-0.69363-1.20683-1.11646-.81325-1.58049.1934C124.81552,257.01656,125.359,257.95163,130.73839,258.286Zm27.05313,0.03348c1.37021-.26023,2.905-0.51851,4.42291-0.85313a1.05461,1.05461,0,0,0,.76646-1.57324c-0.49318-1.40391-.99145-2.80738-1.54292-4.189-0.32024-.80231-0.82695-0.87457-1.28755-0.09734q-1.65568,2.79385-3.26164,5.617C156.43023,258.02988,156.808,258.34092,157.79152,258.31951Z"/><path class="cls-8" d="M151.46708,246.26993a7.11293,7.11293,0,1,1-7.15607-7.284A7.22136,7.22136,0,0,1,151.46708,246.26993Z"/></g><line class="cls-9" x1="143.91008" y1="189.97548" x2="143.91008" y2="213.07777"/><path class="cls-8" d="M145.52434,196.33194l-0.925.553A128.13991,128.13991,0,0,1,85.91168,89.19917V26.76709H207.91016V86.349A128.13991,128.13991,0,0,1,145.52434,196.33194Z"/><rect class="cls-4" x="74.5192" y="14.47453" width="147.04883" height="13.78583"/><path class="cls-2" d="M152.82261,104.12438c5.99983,12.11321,14.92924,19.4251,20.48392,19.4251-8.28537,21.6618-20.16667,39.06744-28.01408,39.06744-9.48592,0-26.23592-38.98411-26.23592-38.98411s26-15.25,28.08333-38.08333a60.69843,60.69843,0,0,0,5.68274,18.5749"/><polygon class="cls-5" points="146.473 64.02 149.005 69.15 154.666 69.972 150.57 73.966 151.537 79.604 146.473 76.942 141.41 79.604 142.377 73.966 138.28 69.972 143.941 69.15 146.473 64.02"/><path class="cls-8" d="M147.13991,85.54948s0.06824,0.95529.18762,2.627c0.05969,0.83588.1322,1.85087,0.21533,3.01513,0.08069,1.165.30359,2.46139,0.474,3.8801,0.1814,1.4174.3678,2.94894,0.70666,4.55585q0.22742,1.20589.46667,2.47389,0.1192,0.63217.241,1.27757,0.15491,0.63882.31274,1.28939,0.31622,1.29852.642,2.6367c0.20593,0.89239.437,1.78962,0.71838,2.68226,0.54651,1.78809,1.02209,3.6221,1.68127,5.402q0.46454,1.34151.92786,2.67954c0.31665,0.88721.683,1.7535,1.01794,2.62118,0.65515,1.74141,1.40723,3.41135,2.12366,5.028,0.70837,1.6198,1.49548,3.13923,2.19788,4.59444,0.76611,1.425,1.4447,2.79369,2.16174,4.00526,0.68469,1.23023,1.34949,2.33162,1.94861,3.29955,0.59351,0.9707,1.14331,1.7923,1.58862,2.46832,0.45593,0.66718.8136,1.18933,1.06323,1.52506l0.36487,0.49371-4.0802,2.89008s-0.13989-.22533-0.40247-0.64782c-0.2533-.40744-0.5929-1.0011-1.02222-1.7555-0.41626-.75937-0.92529-1.67516-1.46436-2.74323-0.5448-1.06515-1.14417-2.27158-1.75049-3.6061-0.6405-1.31911-1.229-2.79314-1.89783-4.32775-0.60388-1.56254-1.28345-3.19041-1.87622-4.91491-0.60083-1.72144-1.22949-3.49363-1.75562-5.33183-0.27026-.91614-0.57068-1.82944-0.82019-2.76229q-0.3609-1.40211-.72363-2.81156c-0.521-1.86414-.85559-3.77629-1.2605-5.63338-0.21045-.92709-0.37073-1.857-0.5061-2.78q-0.21863-1.37949-.4314-2.72176-0.10547-.66932-0.209-1.327-0.06995-.66273-0.13843-1.31232-0.13641-1.29689-.26672-2.5339c-0.20789-1.63953-.27075-3.20894-0.33655-4.65193-0.05481-1.44244-.171-2.76078-0.15637-3.92752,0.01209-1.16715.02246-2.18467,0.03113-3.02263C147.13,86.50714,147.13991,85.54948,147.13991,85.54948Z"/><path class="cls-8" d="M125.125,140.69943l0.53406-.44786c0.3324-.28955.89453-0.72613,1.47351-1.26,0.53845-.55031,1.23-1.11384,1.97156-1.97241,0.77283-.80093,1.56592-1.78611,2.43213-2.86816q0.613-.84476,1.27527-1.757,0.62146-.94617,1.28284-1.95329,0.61853-1.03957,1.2688-2.13269,0.605-1.12389,1.2345-2.29318c0.79138-1.58613,1.57727-3.24885,2.29736-4.9802,0.71838-1.73123,1.41235-3.51247,2.02612-5.32623a124.75722,124.75722,0,0,0,5.04077-20.55126c0.92151-5.73081,1.178-9.60765,1.178-9.60765s0.05713,3.88262-.40222,9.70038a126.34971,126.34971,0,0,1-3.42224,21.178c-0.47815,1.905-1.04211,3.79208-1.64014,5.641-0.59961,1.84882-1.27649,3.64521-1.97241,5.37422q-0.5625,1.28315-1.10474,2.51994-0.59656,1.21624-1.16553,2.37633-0.62238,1.13766-1.20874,2.20982-0.63831,1.04771-1.23157,2.02119c-0.85034,1.26375-1.64148,2.42186-2.43372,3.3926-0.72864.99364-1.55957,1.82892-2.16418,2.52992-0.61963.66417-1.08313,1.08289-1.41016,1.41733-0.32373.31918-.49622,0.48942-0.49622,0.48942Z"/><rect class="cls-10" x="74.5192" y="14.47453" width="147.04883" height="13.78583"/><path class="cls-11" d="M99.69655,40.5528v48.65c0,35.75,18.02,67.55,45,90.31,0.09,0.08.63-.12,0.71008-0.04a113.53358,113.53358,0,0,0,48.72-93.12v-45.8H99.69655Zm80.64,45.8a101.14618,101.14618,0,0,1-35.04,76.26,100.10186,100.10186,0,0,1-31.81006-73.41v-34.86h66.8501v32.01Z"/><path class="cls-12" d="M145.52434,196.33194l-0.925.553A128.13991,128.13991,0,0,1,85.91168,89.19917V26.76709H207.91016V86.349A128.13991,128.13991,0,0,1,145.52434,196.33194Z"/></svg>